<svg id="svg" version="1.1" xmlns="http://www.w3.org/2000/svg" xmlns:xlink="http://www.w3.org/1999/xlink" width="400" height="400" viewBox="0, 0, 400,400"><g id="svgg"><path id="path0" d="M140.080 118.480 C 139.716 118.844,139.600 125.514,139.600 146.053 L 139.600 173.145 144.216 180.073 C 152.130 191.948,151.978 196.155,143.400 202.720 C 132.873 210.777,131.600 211.956,131.600 213.646 C 131.600 215.865,139.759 228.849,143.950 233.300 L 145.362 234.800 220.253 234.800 C 287.801 234.800,295.204 234.738,295.771 234.171 C 296.860 233.083,296.717 118.998,295.626 118.414 C 294.434 117.776,140.719 117.841,140.080 118.480 M153.584 126.992 C 154.213 127.317,156.495 128.965,158.656 130.654 C 160.816 132.343,166.539 136.712,171.374 140.362 C 184.732 150.451,191.380 155.489,196.000 159.026 C 216.890 175.018,215.705 174.200,217.984 174.200 C 219.730 174.200,220.194 173.924,226.615 169.058 C 230.347 166.230,237.540 160.786,242.600 156.960 C 247.660 153.134,255.490 147.195,260.000 143.764 C 285.778 124.149,284.575 124.863,287.035 127.722 C 289.404 130.477,288.220 132.314,280.273 138.200 C 277.897 139.960,275.739 141.586,275.477 141.812 C 274.978 142.244,265.193 149.681,252.730 159.101 C 248.698 162.148,240.900 168.054,235.400 172.227 C 223.903 180.948,224.043 180.853,221.429 181.735 C 216.018 183.560,214.175 182.721,200.325 172.127 C 197.396 169.887,189.934 164.217,183.743 159.527 C 169.237 148.539,155.353 138.011,151.800 135.304 C 147.706 132.186,146.807 130.002,148.731 127.853 C 150.051 126.379,151.799 126.069,153.584 126.992 M114.180 154.759 C 113.971 154.957,113.170 155.455,112.400 155.867 C 94.557 165.415,92.278 168.504,92.225 183.200 C 92.200 190.233,92.327 191.249,94.071 198.000 C 95.865 204.943,98.722 211.881,102.974 219.619 C 105.516 224.246,113.972 237.030,116.322 239.800 C 116.696 240.240,117.721 241.500,118.601 242.600 C 119.480 243.700,120.290 244.690,120.400 244.800 C 120.510 244.910,121.320 245.896,122.200 246.991 C 127.340 253.388,138.980 265.458,147.800 273.537 C 151.320 276.761,154.290 279.493,154.400 279.609 C 154.935 280.172,163.379 286.930,166.200 289.053 C 186.847 304.589,206.640 312.410,222.800 311.420 C 233.874 310.742,237.141 308.776,242.619 299.495 C 244.338 296.583,246.522 292.898,247.472 291.307 C 249.498 287.915,249.575 287.216,248.100 285.630 C 245.593 282.935,212.843 261.600,211.213 261.600 C 209.338 261.600,209.696 261.223,201.618 271.678 C 193.994 281.545,190.589 282.121,179.200 275.472 C 156.399 262.160,123.912 225.850,123.820 213.575 C 123.784 208.889,125.022 207.169,132.756 201.154 C 144.071 192.354,143.736 193.235,138.624 185.718 C 137.757 184.443,132.923 177.190,127.882 169.600 C 117.527 154.011,116.336 152.721,114.180 154.759 M192.100 180.021 C 194.006 182.086,193.676 183.521,190.514 186.916 C 189.036 188.502,186.921 190.778,185.814 191.974 C 182.988 195.025,178.726 199.596,175.182 203.379 C 166.893 212.228,165.027 214.220,160.400 219.161 C 157.650 222.098,155.310 224.623,155.200 224.773 C 153.781 226.710,150.788 226.900,149.160 225.158 C 147.068 222.918,147.718 221.080,152.189 216.585 C 152.635 216.137,154.980 213.618,157.400 210.987 C 159.820 208.356,162.250 205.736,162.800 205.165 C 164.185 203.726,172.192 195.160,179.968 186.800 C 188.331 177.808,189.471 177.171,192.100 180.021 M250.780 181.100 C 252.027 182.365,258.152 188.890,264.392 195.600 C 270.632 202.310,278.081 210.287,280.945 213.326 C 288.780 221.640,289.323 222.738,286.831 225.231 C 284.057 228.005,283.499 227.626,271.791 215.003 C 268.936 211.924,265.070 207.778,263.200 205.789 C 261.330 203.800,258.807 201.098,257.593 199.786 C 256.379 198.474,252.670 194.500,249.350 190.955 C 243.156 184.341,242.493 183.281,243.261 181.220 C 244.471 177.975,247.650 177.924,250.780 181.100 " stroke="none" fill="#fcfafa" fill-rule="evenodd"></path><path id="path1" d="M49.824 0.464 C 48.076 0.665,46.456 0.986,46.224 1.177 C 45.991 1.369,44.943 1.653,43.895 1.809 C 42.847 1.965,41.892 2.252,41.771 2.446 C 41.651 2.641,41.248 2.801,40.876 2.802 C 40.504 2.804,39.684 3.074,39.054 3.402 C 38.424 3.731,37.659 4.000,37.354 4.000 C 37.049 4.000,36.800 4.180,36.800 4.400 C 36.800 4.620,36.575 4.806,36.300 4.814 C 36.025 4.821,35.080 5.175,34.200 5.600 C 33.320 6.025,32.375 6.379,32.100 6.386 C 31.825 6.394,31.600 6.580,31.600 6.800 C 31.600 7.020,31.339 7.200,31.020 7.200 C 30.701 7.200,30.296 7.425,30.120 7.700 C 29.944 7.975,28.928 8.650,27.862 9.200 C 26.796 9.750,25.482 10.605,24.941 11.100 C 24.401 11.595,23.871 12.000,23.764 12.000 C 23.657 12.000,22.820 12.720,21.904 13.600 C 20.988 14.480,20.091 15.200,19.911 15.200 C 19.483 15.200,15.200 19.483,15.200 19.911 C 15.200 20.091,14.480 20.988,13.600 21.904 C 12.720 22.820,12.000 23.657,12.000 23.764 C 12.000 23.871,11.595 24.401,11.100 24.941 C 10.605 25.482,9.750 26.796,9.200 27.862 C 8.650 28.928,7.975 29.944,7.700 30.120 C 7.425 30.296,7.200 30.701,7.200 31.020 C 7.200 31.339,7.034 31.600,6.832 31.600 C 6.629 31.600,6.345 32.140,6.200 32.800 C 6.055 33.460,5.791 34.000,5.613 34.000 C 5.435 34.000,5.171 34.630,5.026 35.400 C 4.882 36.170,4.592 36.800,4.382 36.800 C 4.172 36.800,4.000 37.072,4.000 37.405 C 4.000 37.738,3.830 38.323,3.621 38.705 C 3.027 39.795,1.600 44.325,1.600 45.122 C 1.600 45.517,1.430 46.011,1.222 46.220 C -0.099 47.548,-0.610 346.842,0.702 351.400 C 0.955 352.280,1.396 353.930,1.681 355.067 C 1.967 356.204,2.335 357.269,2.500 357.434 C 2.665 357.598,2.800 357.991,2.800 358.306 C 2.800 358.621,3.070 359.491,3.400 360.240 C 3.730 360.988,4.270 362.212,4.600 362.960 C 4.930 363.709,5.200 364.519,5.200 364.760 C 5.200 365.002,5.366 365.200,5.568 365.200 C 5.771 365.200,6.055 365.740,6.200 366.400 C 6.345 367.060,6.629 367.600,6.832 367.600 C 7.034 367.600,7.200 367.857,7.200 368.171 C 7.200 368.486,7.425 368.984,7.700 369.279 C 7.975 369.573,8.546 370.441,8.969 371.207 C 9.687 372.508,11.956 375.618,14.080 378.210 C 16.302 380.923,23.021 387.200,23.703 387.200 C 23.913 387.200,24.439 387.650,24.871 388.200 C 25.304 388.750,25.915 389.200,26.229 389.200 C 26.543 389.200,26.800 389.368,26.800 389.573 C 26.800 389.778,27.205 390.072,27.700 390.227 C 28.195 390.381,28.690 390.619,28.800 390.754 C 29.125 391.154,30.519 391.994,31.700 392.502 C 32.305 392.762,32.800 393.108,32.800 393.270 C 32.800 393.431,33.430 393.682,34.200 393.826 C 34.970 393.971,35.600 394.241,35.600 394.426 C 35.600 394.612,36.230 394.882,37.000 395.026 C 37.770 395.171,38.400 395.449,38.400 395.645 C 38.400 395.840,38.749 396.000,39.176 396.000 C 39.603 396.000,40.058 396.170,40.186 396.377 C 40.314 396.584,41.224 396.875,42.209 397.022 C 43.194 397.170,44.000 397.437,44.000 397.617 C 44.000 397.796,45.035 398.068,46.300 398.221 C 47.565 398.374,48.853 398.702,49.161 398.949 C 49.962 399.592,349.903 399.596,350.315 398.954 C 350.472 398.709,351.635 398.381,352.900 398.225 C 354.165 398.070,355.200 397.775,355.200 397.571 C 355.200 397.367,355.646 397.200,356.192 397.200 C 357.211 397.200,360.443 396.067,360.800 395.585 C 360.910 395.437,361.675 395.191,362.500 395.040 C 363.325 394.888,364.000 394.606,364.000 394.414 C 364.000 394.221,364.540 393.945,365.200 393.800 C 365.860 393.655,366.400 393.385,366.400 393.200 C 366.400 393.015,366.940 392.745,367.600 392.600 C 368.260 392.455,368.800 392.174,368.800 391.976 C 368.800 391.778,369.250 391.502,369.800 391.364 C 370.350 391.226,370.800 390.953,370.800 390.757 C 370.800 390.560,370.999 390.400,371.242 390.400 C 371.710 390.400,374.906 388.020,375.133 387.503 C 375.207 387.336,375.458 387.200,375.693 387.200 C 375.927 387.200,376.731 386.570,377.479 385.800 C 378.227 385.030,378.995 384.400,379.187 384.400 C 379.379 384.400,380.630 383.306,381.968 381.968 C 383.306 380.630,384.400 379.379,384.400 379.187 C 384.400 378.995,385.030 378.227,385.800 377.479 C 386.570 376.731,387.200 375.927,387.200 375.693 C 387.200 375.458,387.336 375.207,387.503 375.133 C 388.020 374.906,390.400 371.710,390.400 371.242 C 390.400 370.999,390.560 370.800,390.757 370.800 C 390.953 370.800,391.226 370.350,391.364 369.800 C 391.502 369.250,391.778 368.800,391.976 368.800 C 392.174 368.800,392.455 368.260,392.600 367.600 C 392.745 366.940,393.015 366.400,393.200 366.400 C 393.385 366.400,393.655 365.860,393.800 365.200 C 393.945 364.540,394.221 364.000,394.414 364.000 C 394.606 364.000,394.888 363.325,395.040 362.500 C 395.191 361.675,395.437 360.910,395.585 360.800 C 396.067 360.443,397.200 357.211,397.200 356.192 C 397.200 355.646,397.367 355.200,397.571 355.200 C 397.775 355.200,398.070 354.165,398.225 352.900 C 398.381 351.635,398.709 350.472,398.954 350.315 C 399.596 349.903,399.592 49.962,398.949 49.161 C 398.702 48.853,398.374 47.565,398.221 46.300 C 398.068 45.035,397.796 44.000,397.617 44.000 C 397.437 44.000,397.170 43.194,397.022 42.209 C 396.875 41.224,396.584 40.314,396.377 40.186 C 396.170 40.058,396.000 39.603,396.000 39.176 C 396.000 38.749,395.840 38.400,395.645 38.400 C 395.449 38.400,395.171 37.770,395.026 37.000 C 394.882 36.230,394.612 35.600,394.426 35.600 C 394.241 35.600,393.971 34.970,393.826 34.200 C 393.682 33.430,393.431 32.800,393.270 32.800 C 393.108 32.800,392.749 32.305,392.472 31.700 C 391.544 29.672,391.012 28.800,390.705 28.800 C 390.537 28.800,390.400 28.567,390.400 28.281 C 390.400 27.720,389.530 26.450,388.100 24.924 C 387.605 24.396,387.200 23.819,387.200 23.642 C 387.200 23.014,380.778 16.183,378.210 14.080 C 375.618 11.956,372.508 9.687,371.207 8.969 C 370.441 8.546,369.573 7.975,369.279 7.700 C 368.984 7.425,368.486 7.200,368.171 7.200 C 367.857 7.200,367.600 7.034,367.600 6.832 C 367.600 6.629,367.060 6.345,366.400 6.200 C 365.740 6.055,365.200 5.771,365.200 5.568 C 365.200 5.366,365.002 5.200,364.760 5.200 C 364.519 5.200,363.664 4.909,362.860 4.553 C 359.301 2.974,358.847 2.800,358.306 2.800 C 357.991 2.800,357.598 2.665,357.434 2.500 C 357.269 2.335,356.204 1.967,355.067 1.681 C 353.930 1.396,352.280 0.955,351.400 0.702 C 349.396 0.125,54.799 -0.107,49.824 0.464 M296.139 117.933 C 296.752 118.610,296.795 123.120,296.701 176.621 L 296.600 234.576 295.600 235.082 C 294.353 235.713,146.012 235.848,144.837 235.220 C 144.446 235.010,143.341 233.795,142.382 232.520 C 141.423 231.244,140.449 229.993,140.219 229.739 C 137.767 227.040,130.801 215.096,130.800 213.589 C 130.800 212.093,131.624 211.147,135.915 207.716 C 138.052 206.008,140.038 204.383,140.329 204.105 C 140.619 203.827,140.981 203.600,141.133 203.600 C 141.284 203.600,141.856 203.193,142.404 202.696 C 142.952 202.199,144.153 201.203,145.072 200.484 C 147.933 198.247,148.969 195.998,148.979 192.000 L 148.988 188.600 146.516 184.800 C 145.156 182.710,143.896 180.820,143.716 180.600 C 143.535 180.380,142.766 179.210,142.007 178.000 C 141.248 176.790,140.526 175.710,140.404 175.600 C 138.777 174.137,138.800 174.559,138.800 146.140 L 138.800 119.052 139.670 118.126 L 140.539 117.200 218.008 117.200 C 292.607 117.200,295.501 117.227,296.139 117.933 M149.455 128.255 C 147.170 130.539,147.874 131.562,155.800 137.475 C 158.440 139.444,163.480 143.255,167.000 145.942 C 170.520 148.629,173.820 151.136,174.332 151.514 C 174.845 151.891,175.638 152.515,176.094 152.900 C 176.549 153.285,177.032 153.600,177.165 153.600 C 177.299 153.600,177.874 154.032,178.443 154.559 C 179.012 155.087,182.441 157.742,186.064 160.459 C 189.687 163.177,196.600 168.383,201.426 172.030 C 206.252 175.676,210.928 179.141,211.817 179.728 C 215.196 181.960,220.590 181.945,224.179 179.693 C 225.880 178.626,234.847 171.907,236.166 170.711 C 236.588 170.329,237.668 169.518,238.566 168.909 C 239.465 168.300,240.290 167.703,240.400 167.583 C 240.663 167.293,254.103 157.105,262.200 151.055 C 265.720 148.426,269.157 145.807,269.837 145.237 C 270.517 144.667,271.486 143.930,271.991 143.600 C 272.495 143.270,273.828 142.265,274.954 141.367 C 276.079 140.468,278.710 138.468,280.800 136.921 C 286.400 132.776,287.200 131.945,287.200 130.269 C 287.200 126.175,283.101 126.518,277.890 131.047 C 277.400 131.472,273.760 134.243,269.800 137.204 C 263.806 141.687,258.158 145.976,256.178 147.550 C 255.946 147.735,253.156 149.839,249.978 152.226 C 246.800 154.612,244.110 156.674,244.000 156.808 C 243.890 156.942,240.650 159.414,236.800 162.301 C 232.950 165.189,227.818 169.065,225.396 170.915 C 218.192 176.417,217.814 176.415,210.400 170.825 C 200.562 163.408,192.191 157.038,192.000 156.824 C 191.890 156.701,190.900 155.973,189.800 155.207 C 187.764 153.788,187.509 153.595,185.400 151.879 C 184.740 151.341,181.590 148.937,178.400 146.536 C 175.210 144.135,169.540 139.844,165.800 137.001 C 158.082 131.133,158.593 131.524,157.000 130.259 C 152.805 126.925,151.208 126.501,149.455 128.255 M118.356 154.624 C 119.026 155.188,120.428 157.033,121.472 158.724 C 122.517 160.416,123.468 161.890,123.586 162.000 C 124.121 162.499,131.200 173.264,131.200 173.579 C 131.200 173.774,131.336 173.993,131.502 174.067 C 131.668 174.140,133.468 176.720,135.502 179.800 C 137.536 182.880,139.343 185.580,139.518 185.800 C 144.473 192.048,144.140 193.229,135.560 199.810 C 121.748 210.406,121.449 211.920,130.284 226.596 C 130.551 227.038,130.902 227.670,131.064 228.000 C 131.227 228.330,131.505 228.780,131.683 229.000 C 131.861 229.220,133.195 231.020,134.648 233.000 C 138.727 238.559,142.246 242.548,150.136 250.555 C 156.594 257.108,158.843 259.255,164.021 263.814 C 166.310 265.828,173.302 271.025,175.623 272.436 C 176.820 273.164,177.890 273.859,178.000 273.980 C 178.208 274.208,178.893 274.583,184.084 277.311 C 189.583 280.201,194.720 279.386,198.062 275.093 C 198.786 274.162,199.483 273.310,199.609 273.200 C 199.735 273.090,200.271 272.370,200.800 271.600 C 201.329 270.830,201.860 270.110,201.981 270.000 C 202.399 269.619,207.028 263.794,207.922 262.524 C 210.199 259.290,212.880 260.347,226.200 269.727 C 226.860 270.192,232.214 273.780,238.098 277.702 C 249.104 285.037,250.351 286.149,249.842 288.177 C 249.655 288.920,246.175 295.124,244.780 297.200 C 244.558 297.530,244.271 298.115,244.142 298.500 C 244.012 298.885,243.748 299.200,243.553 299.200 C 243.359 299.200,243.200 299.409,243.200 299.665 C 243.200 301.296,238.402 307.359,235.835 308.971 C 229.981 312.649,217.638 313.343,206.800 310.604 C 205.370 310.243,203.480 309.776,202.600 309.566 C 201.720 309.357,200.640 309.034,200.200 308.849 C 199.760 308.664,197.870 307.917,196.000 307.191 C 186.878 303.646,176.119 297.338,165.400 289.249 C 163.200 287.589,161.220 286.098,161.000 285.935 C 151.980 279.255,128.397 256.210,121.863 247.689 C 121.404 247.090,120.925 246.510,120.801 246.400 C 120.005 245.698,110.000 232.572,110.000 232.229 C 110.000 232.005,107.541 228.325,107.174 228.000 C 105.237 226.283,97.148 210.157,95.034 203.800 C 93.345 198.721,93.177 198.139,92.760 195.909 C 92.543 194.749,92.204 192.990,92.006 192.000 C 91.541 189.664,91.529 177.074,91.991 175.000 C 93.756 167.074,95.408 164.889,102.800 160.709 C 104.834 159.559,107.817 157.807,108.973 157.084 C 109.399 156.818,110.822 155.925,112.135 155.100 C 115.018 153.290,116.624 153.167,118.356 154.624 M185.249 182.311 C 182.553 185.061,179.433 188.379,169.966 198.560 C 168.555 200.077,166.860 201.894,166.200 202.598 C 165.540 203.301,163.920 205.035,162.600 206.452 C 161.280 207.869,157.764 211.632,154.787 214.814 C 148.417 221.623,148.077 222.201,149.334 224.072 C 151.751 227.671,152.089 227.405,170.450 207.425 C 171.852 205.899,174.191 203.379,175.647 201.825 C 178.561 198.714,179.482 197.729,185.142 191.670 C 192.821 183.449,192.400 183.989,192.400 182.358 C 192.400 181.155,192.168 180.689,191.238 180.027 C 189.304 178.650,188.558 178.934,185.249 182.311 M245.100 180.046 C 243.169 181.487,243.643 183.953,246.400 186.814 C 247.818 188.285,267.020 208.831,271.621 213.800 C 282.832 225.908,282.507 225.600,284.067 225.600 C 286.145 225.600,287.200 224.654,287.200 222.791 C 287.200 221.205,286.642 220.354,283.400 217.006 C 281.465 215.007,276.110 209.267,271.800 204.574 C 269.600 202.178,266.166 198.504,264.168 196.409 C 262.170 194.314,259.740 191.713,258.768 190.629 C 257.796 189.545,256.280 187.907,255.400 186.989 C 254.520 186.070,252.730 184.168,251.422 182.762 C 247.993 179.074,246.984 178.640,245.100 180.046 " stroke="none" fill="#fc1c04" fill-rule="evenodd"></path><path id="path2" d="M250.000 180.925 C 250.000 180.994,250.585 181.579,251.300 182.225 L 252.600 183.400 251.425 182.100 C 250.330 180.888,250.000 180.616,250.000 180.925 M181.586 185.500 L 179.400 187.800 181.700 185.614 C 183.837 183.582,184.183 183.200,183.886 183.200 C 183.824 183.200,182.789 184.235,181.586 185.500 M245.800 186.800 C 246.659 187.680,247.452 188.400,247.562 188.400 C 247.672 188.400,247.059 187.680,246.200 186.800 C 245.341 185.920,244.548 185.200,244.438 185.200 C 244.328 185.200,244.941 185.920,245.800 186.800 M256.400 187.800 C 257.146 188.570,257.847 189.200,257.957 189.200 C 258.067 189.200,257.546 188.570,256.800 187.800 C 256.054 187.030,255.353 186.400,255.243 186.400 C 255.133 186.400,255.654 187.030,256.400 187.800 M186.378 190.700 L 185.000 192.200 186.500 190.822 C 187.325 190.063,188.000 189.388,188.000 189.322 C 188.000 189.016,187.662 189.304,186.378 190.700 M176.181 191.300 L 174.600 193.000 176.300 191.419 C 177.881 189.948,178.184 189.600,177.881 189.600 C 177.816 189.600,177.051 190.365,176.181 191.300 M250.000 191.325 C 250.000 191.394,250.585 191.979,251.300 192.625 L 252.600 193.800 251.425 192.500 C 250.330 191.288,250.000 191.016,250.000 191.325 M261.183 192.900 C 262.164 193.945,263.019 194.800,263.083 194.800 C 263.384 194.800,263.066 194.441,261.300 192.783 L 259.400 191.000 261.183 192.900 M180.378 197.100 L 179.000 198.600 180.500 197.222 C 181.325 196.463,182.000 195.788,182.000 195.722 C 182.000 195.416,181.662 195.704,180.378 197.100 M169.775 198.100 L 168.600 199.400 169.900 198.225 C 170.615 197.579,171.200 196.994,171.200 196.925 C 171.200 196.616,170.870 196.888,169.775 198.100 M255.600 197.325 C 255.600 197.394,256.185 197.979,256.900 198.625 L 258.200 199.800 257.025 198.500 C 255.930 197.288,255.600 197.016,255.600 197.325 M266.000 198.125 C 266.000 198.194,266.585 198.779,267.300 199.425 L 268.600 200.600 267.425 199.300 C 266.330 198.088,266.000 197.816,266.000 198.125 M175.200 202.600 C 174.228 203.590,173.523 204.400,173.633 204.400 C 173.743 204.400,174.628 203.590,175.600 202.600 C 176.572 201.610,177.277 200.800,177.167 200.800 C 177.057 200.800,176.172 201.610,175.200 202.600 M164.800 203.400 C 163.828 204.390,163.123 205.200,163.233 205.200 C 163.343 205.200,164.228 204.390,165.200 203.400 C 166.172 202.410,166.877 201.600,166.767 201.600 C 166.657 201.600,165.772 202.410,164.800 203.400 M261.200 203.325 C 261.200 203.394,261.785 203.979,262.500 204.625 L 263.800 205.800 262.625 204.500 C 261.530 203.288,261.200 203.016,261.200 203.325 M272.400 205.000 C 273.146 205.770,273.847 206.400,273.957 206.400 C 274.067 206.400,273.546 205.770,272.800 205.000 C 272.054 204.230,271.353 203.600,271.243 203.600 C 271.133 203.600,271.654 204.230,272.400 205.000 M159.385 209.300 L 157.400 211.400 159.500 209.415 C 160.655 208.323,161.600 207.378,161.600 207.315 C 161.600 207.017,161.229 207.349,159.385 209.300 M169.381 208.900 L 167.800 210.600 169.500 209.019 C 171.081 207.548,171.384 207.200,171.081 207.200 C 171.016 207.200,170.251 207.965,169.381 208.900 M268.400 211.000 C 269.146 211.770,269.847 212.400,269.957 212.400 C 270.067 212.400,269.546 211.770,268.800 211.000 C 268.054 210.230,267.353 209.600,267.243 209.600 C 267.133 209.600,267.654 210.230,268.400 211.000 M278.200 211.200 C 279.059 212.080,279.852 212.800,279.962 212.800 C 280.072 212.800,279.459 212.080,278.600 211.200 C 277.741 210.320,276.948 209.600,276.838 209.600 C 276.728 209.600,277.341 210.320,278.200 211.200 M124.114 213.800 C 124.117 214.900,124.195 215.303,124.287 214.695 C 124.379 214.086,124.377 213.186,124.282 212.695 C 124.187 212.203,124.111 212.700,124.114 213.800 M164.175 214.500 L 163.000 215.800 164.300 214.625 C 165.512 213.530,165.784 213.200,165.475 213.200 C 165.406 213.200,164.821 213.785,164.175 214.500 M153.775 215.300 L 152.600 216.600 153.900 215.425 C 155.112 214.330,155.384 214.000,155.075 214.000 C 155.006 214.000,154.421 214.585,153.775 215.300 M283.583 216.900 C 284.564 217.945,285.419 218.800,285.483 218.800 C 285.784 218.800,285.466 218.441,283.700 216.783 L 281.800 215.000 283.583 216.900 M158.575 220.500 L 157.400 221.800 158.700 220.625 C 159.912 219.530,160.184 219.200,159.875 219.200 C 159.806 219.200,159.221 219.785,158.575 220.500 M143.600 244.525 C 143.600 244.594,144.185 245.179,144.900 245.825 L 146.200 247.000 145.025 245.700 C 143.930 244.488,143.600 244.216,143.600 244.525 M156.800 257.725 C 156.800 257.794,157.385 258.379,158.100 259.025 L 159.400 260.200 158.225 258.900 C 157.130 257.688,156.800 257.416,156.800 257.725 M197.178 276.300 L 195.800 277.800 197.300 276.422 C 198.696 275.138,198.984 274.800,198.678 274.800 C 198.612 274.800,197.937 275.475,197.178 276.300 M189.105 279.483 C 189.602 279.579,190.322 279.575,190.705 279.475 C 191.087 279.375,190.680 279.296,189.800 279.301 C 188.920 279.305,188.607 279.387,189.105 279.483 M249.293 287.600 C 249.293 288.370,249.375 288.685,249.476 288.300 C 249.576 287.915,249.576 287.285,249.476 286.900 C 249.375 286.515,249.293 286.830,249.293 287.600 " stroke="none" fill="#fc6d5e" fill-rule="evenodd"></path><path id="path3" d="M140.262 117.500 C 140.160 117.665,175.009 117.754,217.704 117.698 C 291.223 117.601,295.377 117.633,296.166 118.298 C 297.000 119.000,297.000 119.000,296.238 118.100 L 295.476 117.200 217.962 117.200 C 175.329 117.200,140.364 117.335,140.262 117.500 M138.988 146.200 C 138.988 160.280,139.039 165.982,139.100 158.871 C 139.161 151.760,139.161 140.240,139.100 133.271 C 139.038 126.302,138.988 132.120,138.988 146.200 M150.800 126.955 C 150.800 127.040,151.330 127.187,151.979 127.282 C 152.627 127.377,153.067 127.308,152.955 127.128 C 152.757 126.807,150.800 126.650,150.800 126.955 M282.576 127.422 C 281.826 128.023,281.830 128.030,282.674 127.622 C 283.979 126.991,284.963 127.106,286.246 128.039 L 287.400 128.878 286.278 127.839 C 285.003 126.659,283.711 126.513,282.576 127.422 M280.200 129.035 L 279.000 130.066 280.300 129.206 C 281.015 128.733,281.600 128.268,281.600 128.173 C 281.600 127.873,281.431 127.978,280.200 129.035 M148.400 131.725 C 148.400 131.794,148.985 132.379,149.700 133.025 L 151.000 134.200 149.825 132.900 C 148.730 131.688,148.400 131.416,148.400 131.725 M285.185 133.629 L 283.800 134.858 285.300 133.781 C 286.626 132.830,287.057 132.400,286.685 132.400 C 286.622 132.400,285.947 132.953,285.185 133.629 M273.185 134.429 L 271.800 135.658 273.300 134.581 C 274.626 133.630,275.057 133.200,274.685 133.200 C 274.622 133.200,273.947 133.753,273.185 134.429 M166.400 137.346 C 166.400 137.456,166.940 137.930,167.600 138.400 C 168.260 138.870,168.800 139.164,168.800 139.054 C 168.800 138.944,168.260 138.470,167.600 138.000 C 166.940 137.530,166.400 137.236,166.400 137.346 M157.600 138.925 C 157.600 139.024,158.261 139.609,159.068 140.225 C 159.876 140.841,160.411 141.141,160.256 140.891 C 159.940 140.379,157.600 138.647,157.600 138.925 M170.897 140.634 C 171.036 140.859,172.276 141.928,173.653 143.009 C 175.029 144.090,176.042 144.791,175.903 144.566 C 175.764 144.341,174.524 143.272,173.147 142.191 C 171.771 141.110,170.758 140.409,170.897 140.634 M270.122 145.029 L 269.000 146.058 270.300 145.154 C 271.015 144.657,271.600 144.193,271.600 144.125 C 271.600 143.809,271.158 144.080,270.122 145.029 M250.200 151.844 L 248.600 153.276 250.300 152.004 C 251.763 150.910,252.291 150.383,251.900 150.406 C 251.845 150.409,251.080 151.056,250.200 151.844 M184.544 151.109 C 184.860 151.621,187.200 153.353,187.200 153.075 C 187.200 152.976,186.539 152.391,185.732 151.775 C 184.924 151.159,184.389 150.859,184.544 151.109 M177.400 154.188 C 178.060 154.729,178.770 155.178,178.978 155.186 C 179.185 155.194,178.745 154.750,178.000 154.200 C 176.257 152.914,175.835 152.905,177.400 154.188 M113.500 154.229 C 112.895 154.557,112.400 154.916,112.400 155.027 C 112.400 155.138,112.805 155.007,113.300 154.736 C 113.795 154.465,114.920 154.121,115.800 153.972 L 117.400 153.700 116.000 153.666 C 115.230 153.647,114.105 153.901,113.500 154.229 M187.633 153.716 C 187.725 153.780,188.520 154.333,189.400 154.945 L 191.000 156.058 189.615 154.829 C 188.853 154.153,188.058 153.600,187.848 153.600 C 187.638 153.600,187.542 153.652,187.633 153.716 M257.185 154.829 L 255.800 156.058 257.300 154.981 C 258.626 154.030,259.057 153.600,258.685 153.600 C 258.622 153.600,257.947 154.153,257.185 154.829 M118.677 155.222 C 119.315 156.003,120.249 157.308,120.751 158.122 C 121.254 158.935,121.751 159.600,121.855 159.600 C 122.261 159.600,120.524 157.024,119.058 155.453 C 117.923 154.237,117.823 154.176,118.677 155.222 M241.100 158.635 C 239.835 159.642,238.800 160.568,238.800 160.694 C 238.800 160.821,239.115 160.650,239.500 160.315 C 239.885 159.980,241.069 159.052,242.131 158.253 C 243.192 157.454,243.912 156.801,243.731 156.803 C 243.549 156.805,242.365 157.629,241.100 158.635 M252.200 158.644 L 250.600 160.076 252.300 158.804 C 253.763 157.710,254.291 157.183,253.900 157.206 C 253.845 157.209,253.080 157.856,252.200 158.644 M187.600 161.725 C 187.600 161.824,188.261 162.409,189.068 163.025 C 189.876 163.641,190.411 163.941,190.256 163.691 C 189.940 163.179,187.600 161.447,187.600 161.725 M98.400 163.400 C 97.655 163.950,97.215 164.394,97.422 164.386 C 97.824 164.370,100.355 162.405,99.978 162.402 C 99.855 162.401,99.145 162.850,98.400 163.400 M204.400 166.114 C 204.400 166.206,205.525 167.133,206.900 168.173 C 208.275 169.214,208.770 169.497,208.000 168.803 C 206.393 167.355,204.400 165.866,204.400 166.114 M228.800 168.049 C 227.406 169.271,227.405 169.272,228.688 168.419 C 229.396 167.948,230.082 167.391,230.212 167.181 C 230.597 166.557,230.277 166.754,228.800 168.049 M128.585 169.900 C 129.202 170.835,129.783 171.600,129.876 171.600 C 130.164 171.600,128.633 169.166,128.032 168.669 C 127.720 168.411,127.968 168.965,128.585 169.900 M237.246 169.821 C 236.281 170.579,235.651 171.197,235.846 171.194 C 236.041 171.191,236.920 170.568,237.800 169.809 C 239.864 168.030,239.513 168.037,237.246 169.821 M225.185 170.829 L 223.800 172.058 225.300 170.981 C 226.626 170.030,227.057 169.600,226.685 169.600 C 226.622 169.600,225.947 170.153,225.185 170.829 M233.585 172.829 L 232.200 174.058 233.700 172.981 C 235.026 172.030,235.457 171.600,235.085 171.600 C 235.022 171.600,234.347 172.153,233.585 172.829 M217.300 175.076 C 217.685 175.176,218.315 175.176,218.700 175.076 C 219.085 174.975,218.770 174.893,218.000 174.893 C 217.230 174.893,216.915 174.975,217.300 175.076 M135.855 180.800 C 136.880 182.340,137.792 183.600,137.882 183.600 C 138.095 183.600,137.798 183.101,135.915 180.300 C 135.066 179.035,134.285 178.000,134.182 178.000 C 134.078 178.000,134.831 179.260,135.855 180.800 M211.400 179.765 C 212.060 180.332,212.765 180.797,212.967 180.798 C 213.401 180.800,213.396 180.796,211.600 179.637 L 210.200 178.734 211.400 179.765 M185.870 181.262 L 183.800 183.325 186.000 181.390 C 187.210 180.325,188.275 179.397,188.367 179.327 C 188.458 179.257,188.400 179.200,188.237 179.200 C 188.074 179.200,187.009 180.128,185.870 181.262 M220.200 181.200 C 219.093 181.482,219.077 181.509,220.000 181.547 C 220.550 181.569,221.270 181.413,221.600 181.200 C 222.281 180.760,221.929 180.760,220.200 181.200 M192.493 182.400 C 192.493 183.170,192.575 183.485,192.676 183.100 C 192.776 182.715,192.776 182.085,192.676 181.700 C 192.575 181.315,192.493 181.630,192.493 182.400 M243.650 182.478 C 243.615 183.512,243.870 184.238,244.500 184.897 C 244.995 185.415,245.141 185.509,244.825 185.105 C 244.509 184.702,244.126 183.613,243.975 182.686 L 243.700 181.000 243.650 182.478 M251.983 183.300 C 252.964 184.345,253.819 185.200,253.883 185.200 C 254.184 185.200,253.866 184.841,252.100 183.183 L 250.200 181.400 251.983 183.300 M179.986 187.500 L 177.800 189.800 180.100 187.614 C 182.237 185.582,182.583 185.200,182.286 185.200 C 182.224 185.200,181.189 186.235,179.986 187.500 M187.848 188.638 C 185.837 190.921,186.143 190.900,188.400 188.600 C 189.372 187.610,189.994 186.817,189.783 186.838 C 189.572 186.858,188.702 187.668,187.848 188.638 M249.800 190.800 C 251.106 192.120,252.265 193.200,252.375 193.200 C 252.485 193.200,251.506 192.120,250.200 190.800 C 248.894 189.480,247.735 188.400,247.625 188.400 C 247.515 188.400,248.494 189.480,249.800 190.800 M257.200 188.925 C 257.200 188.994,257.785 189.579,258.500 190.225 L 259.800 191.400 258.625 190.100 C 257.530 188.888,257.200 188.616,257.200 188.925 M149.314 192.200 C 149.317 193.300,149.395 193.703,149.487 193.095 C 149.579 192.486,149.577 191.586,149.482 191.095 C 149.387 190.603,149.311 191.100,149.314 192.200 M174.386 193.500 L 172.200 195.800 174.500 193.614 C 176.637 191.582,176.983 191.200,176.686 191.200 C 176.624 191.200,175.589 192.235,174.386 193.500 M92.006 192.633 C 92.009 193.055,92.195 193.670,92.418 194.000 C 92.715 194.438,92.752 194.276,92.556 193.400 C 92.227 191.929,91.998 191.610,92.006 192.633 M262.400 194.600 C 263.817 196.030,265.067 197.200,265.177 197.200 C 265.287 197.200,264.217 196.030,262.800 194.600 C 261.383 193.170,260.133 192.000,260.023 192.000 C 259.913 192.000,260.983 193.170,262.400 194.600 M182.400 194.600 C 181.428 195.590,180.723 196.400,180.833 196.400 C 180.943 196.400,181.828 195.590,182.800 194.600 C 183.772 193.610,184.477 192.800,184.367 192.800 C 184.257 192.800,183.372 193.610,182.400 194.600 M140.975 195.300 L 139.800 196.600 141.100 195.425 C 142.312 194.330,142.584 194.000,142.275 194.000 C 142.206 194.000,141.621 194.585,140.975 195.300 M255.600 197.000 C 256.795 198.210,257.863 199.200,257.973 199.200 C 258.083 199.200,257.195 198.210,256.000 197.000 C 254.805 195.790,253.737 194.800,253.627 194.800 C 253.517 194.800,254.405 195.790,255.600 197.000 M147.763 197.300 C 147.402 198.015,146.722 199.049,146.253 199.597 L 145.400 200.594 146.343 199.797 C 147.225 199.051,149.053 196.000,148.618 196.000 C 148.510 196.000,148.125 196.585,147.763 197.300 M168.810 199.390 C 167.620 200.595,166.726 201.636,166.823 201.705 C 166.921 201.773,167.974 200.788,169.163 199.515 C 171.906 196.581,171.667 196.497,168.810 199.390 M136.000 199.234 L 134.200 200.865 136.100 199.384 C 137.766 198.086,138.259 197.597,137.900 197.601 C 137.845 197.602,136.990 198.336,136.000 199.234 M176.414 200.990 L 173.828 203.800 176.596 201.115 C 178.118 199.638,179.281 198.373,179.181 198.305 C 179.082 198.236,177.836 199.444,176.414 200.990 M269.183 201.700 C 270.164 202.745,271.019 203.600,271.083 203.600 C 271.384 203.600,271.066 203.241,269.300 201.583 L 267.400 199.800 269.183 201.700 M261.200 203.000 C 262.395 204.210,263.463 205.200,263.573 205.200 C 263.683 205.200,262.795 204.210,261.600 203.000 C 260.405 201.790,259.337 200.800,259.227 200.800 C 259.117 200.800,260.005 201.790,261.200 203.000 M163.208 205.392 C 162.241 206.377,161.529 207.241,161.625 207.313 C 161.721 207.384,162.590 206.578,163.557 205.521 C 165.771 203.100,165.541 203.014,163.208 205.392 M127.578 205.900 L 126.200 207.400 127.700 206.022 C 129.096 204.738,129.384 204.400,129.078 204.400 C 129.012 204.400,128.337 205.075,127.578 205.900 M171.375 206.500 L 170.200 207.800 171.500 206.625 C 172.712 205.530,172.984 205.200,172.675 205.200 C 172.606 205.200,172.021 205.785,171.375 206.500 M266.200 208.400 C 267.728 209.940,269.069 211.200,269.179 211.200 C 269.289 211.200,268.128 209.940,266.600 208.400 C 265.072 206.860,263.731 205.600,263.621 205.600 C 263.511 205.600,264.672 206.860,266.200 208.400 M274.600 207.594 C 275.480 208.580,276.245 209.465,276.300 209.561 C 276.355 209.656,276.486 209.647,276.592 209.542 C 276.697 209.436,275.932 208.551,274.892 207.575 L 273.001 205.800 274.600 207.594 M157.387 211.700 L 155.000 214.200 157.500 211.813 C 159.822 209.595,160.183 209.200,159.887 209.200 C 159.826 209.200,158.701 210.325,157.387 211.700 M279.400 212.800 C 280.706 214.120,281.865 215.200,281.975 215.200 C 282.085 215.200,281.106 214.120,279.800 212.800 C 278.494 211.480,277.335 210.400,277.225 210.400 C 277.115 210.400,278.094 211.480,279.400 212.800 M131.214 211.974 C 130.699 212.936,130.690 214.408,131.195 215.200 C 131.459 215.615,131.506 215.354,131.345 214.355 C 131.218 213.560,131.319 212.525,131.571 212.055 C 131.822 211.585,131.938 211.200,131.828 211.200 C 131.718 211.200,131.442 211.548,131.214 211.974 M165.775 212.500 L 164.600 213.800 165.900 212.625 C 167.112 211.530,167.384 211.200,167.075 211.200 C 167.006 211.200,166.421 211.785,165.775 212.500 M270.000 212.248 C 270.000 212.458,270.945 213.523,272.100 214.615 L 274.200 216.600 272.200 214.408 C 271.100 213.203,270.155 212.138,270.100 212.042 C 270.045 211.945,270.000 212.038,270.000 212.248 M151.988 217.500 L 149.400 220.200 152.100 217.612 C 153.585 216.188,154.800 214.973,154.800 214.912 C 154.800 214.617,154.393 214.992,151.988 217.500 M159.986 218.700 L 157.800 221.000 160.100 218.814 C 162.237 216.782,162.583 216.400,162.286 216.400 C 162.224 216.400,161.189 217.435,159.986 218.700 M285.829 219.638 C 286.473 220.429,287.081 221.008,287.179 220.925 C 287.278 220.842,286.751 220.195,286.009 219.487 L 284.658 218.200 285.829 219.638 M277.583 220.500 C 278.564 221.545,279.419 222.400,279.483 222.400 C 279.784 222.400,279.466 222.041,277.700 220.383 L 275.800 218.600 277.583 220.500 M155.178 223.900 L 153.800 225.400 155.300 224.022 C 156.696 222.738,156.984 222.400,156.678 222.400 C 156.612 222.400,155.937 223.075,155.178 223.900 M148.412 223.078 C 148.405 223.340,148.805 223.979,149.300 224.497 C 149.795 225.015,150.000 225.160,149.756 224.820 C 149.512 224.479,149.112 223.840,148.868 223.400 C 148.624 222.960,148.419 222.815,148.412 223.078 M152.000 225.600 L 150.600 225.895 151.876 225.947 C 152.578 225.976,153.264 225.820,153.400 225.600 C 153.536 225.380,153.592 225.224,153.524 225.253 C 153.456 225.282,152.770 225.438,152.000 225.600 M137.991 226.788 C 138.457 227.441,139.042 228.102,139.291 228.256 C 139.541 228.411,139.241 227.876,138.625 227.068 C 137.288 225.315,136.784 225.092,137.991 226.788 M133.200 231.600 C 133.670 232.260,134.144 232.800,134.254 232.800 C 134.364 232.800,134.070 232.260,133.600 231.600 C 133.130 230.940,132.656 230.400,132.546 230.400 C 132.436 230.400,132.730 230.940,133.200 231.600 M182.500 235.500 C 203.125 235.557,236.875 235.557,257.500 235.500 C 278.125 235.443,261.250 235.396,220.000 235.396 C 178.750 235.396,161.875 235.443,182.500 235.500 M113.200 236.800 C 113.670 237.460,114.144 238.000,114.254 238.000 C 114.364 238.000,114.070 237.460,113.600 236.800 C 113.130 236.140,112.656 235.600,112.546 235.600 C 112.436 235.600,112.730 236.140,113.200 236.800 M143.600 244.200 C 144.795 245.410,145.863 246.400,145.973 246.400 C 146.083 246.400,145.195 245.410,144.000 244.200 C 142.805 242.990,141.737 242.000,141.627 242.000 C 141.517 242.000,142.405 242.990,143.600 244.200 M146.800 247.586 C 146.800 247.925,156.755 257.789,156.886 257.580 C 156.949 257.481,154.705 255.141,151.900 252.380 C 149.095 249.619,146.800 247.462,146.800 247.586 M123.822 250.025 C 124.690 251.029,125.481 251.788,125.580 251.712 C 125.680 251.635,124.970 250.814,124.003 249.886 L 122.244 248.200 123.822 250.025 M127.201 253.796 C 127.970 254.673,128.645 255.468,128.700 255.562 C 128.755 255.656,128.887 255.647,128.993 255.541 C 129.099 255.435,128.424 254.640,127.493 253.774 L 125.801 252.200 127.201 253.796 M131.400 258.400 C 132.706 259.720,133.865 260.800,133.975 260.800 C 134.085 260.800,133.106 259.720,131.800 258.400 C 130.494 257.080,129.335 256.000,129.225 256.000 C 129.115 256.000,130.094 257.080,131.400 258.400 M159.583 260.100 C 161.241 261.866,161.600 262.184,161.600 261.883 C 161.600 261.819,160.745 260.964,159.700 259.983 L 157.800 258.200 159.583 260.100 M208.744 261.624 L 207.800 262.447 209.000 261.745 C 210.579 260.820,210.603 260.800,210.111 260.800 C 209.879 260.800,209.264 261.171,208.744 261.624 M212.899 261.378 C 213.503 261.693,214.223 262.068,214.499 262.210 C 214.774 262.353,214.550 262.098,214.000 261.644 C 213.450 261.189,212.730 260.815,212.400 260.811 C 212.070 260.808,212.294 261.063,212.899 261.378 M168.944 267.909 C 169.260 268.421,171.600 270.153,171.600 269.875 C 171.600 269.776,170.939 269.191,170.132 268.575 C 169.324 267.959,168.789 267.659,168.944 267.909 M144.600 271.600 C 145.906 272.920,147.065 274.000,147.175 274.000 C 147.285 274.000,146.306 272.920,145.000 271.600 C 143.694 270.280,142.535 269.200,142.425 269.200 C 142.315 269.200,143.294 270.280,144.600 271.600 M200.892 271.429 C 200.397 272.183,200.072 272.800,200.169 272.800 C 200.447 272.800,202.104 270.371,201.939 270.206 C 201.857 270.124,201.386 270.674,200.892 271.429 M150.087 276.605 C 150.904 277.460,151.638 278.079,151.717 277.980 C 151.797 277.881,151.128 277.181,150.231 276.425 L 148.600 275.050 150.087 276.605 M181.600 276.179 C 181.600 276.289,182.140 276.659,182.800 277.000 C 183.460 277.341,184.000 277.531,184.000 277.421 C 184.000 277.311,183.460 276.941,182.800 276.600 C 182.140 276.259,181.600 276.069,181.600 276.179 M237.069 277.232 C 237.566 277.833,240.000 279.364,240.000 279.076 C 240.000 278.983,239.235 278.402,238.300 277.785 C 237.365 277.168,236.811 276.920,237.069 277.232 M193.000 278.614 C 191.995 279.098,191.963 279.153,192.800 278.951 C 193.350 278.819,193.971 278.550,194.180 278.355 C 194.698 277.871,194.414 277.933,193.000 278.614 M152.400 278.525 C 152.400 278.594,152.985 279.179,153.700 279.825 L 155.000 281.000 153.825 279.700 C 152.730 278.488,152.400 278.216,152.400 278.525 M155.200 280.925 C 155.200 280.994,155.785 281.579,156.500 282.225 L 157.800 283.400 156.625 282.100 C 155.530 280.888,155.200 280.616,155.200 280.925 M158.770 284.132 C 159.789 285.254,160.008 285.393,159.987 284.900 C 159.981 284.735,159.486 284.254,158.887 283.832 L 157.800 283.064 158.770 284.132 M172.200 294.207 C 172.640 294.566,173.360 295.035,173.800 295.251 L 174.600 295.644 173.800 294.993 C 173.360 294.634,172.640 294.165,172.200 293.949 L 171.400 293.556 172.200 294.207 M241.853 301.591 C 241.274 302.467,240.800 303.317,240.800 303.480 C 240.800 303.644,241.042 303.423,241.339 302.989 C 242.641 301.081,243.278 300.000,243.099 300.000 C 242.993 300.000,242.432 300.716,241.853 301.591 M237.978 307.100 L 236.600 308.600 238.100 307.222 C 239.496 305.938,239.784 305.600,239.478 305.600 C 239.412 305.600,238.737 306.275,237.978 307.100 M194.400 306.600 C 194.950 306.914,195.580 307.172,195.800 307.172 C 196.020 307.172,195.750 306.914,195.200 306.600 C 194.650 306.286,194.020 306.028,193.800 306.028 C 193.580 306.028,193.850 306.286,194.400 306.600 M209.200 311.200 C 209.750 311.376,210.560 311.520,211.000 311.520 C 211.633 311.520,211.592 311.454,210.800 311.200 C 210.250 311.024,209.440 310.880,209.000 310.880 C 208.367 310.880,208.408 310.946,209.200 311.200 M218.100 312.294 C 219.145 312.376,220.855 312.376,221.900 312.294 C 222.945 312.212,222.090 312.144,220.000 312.144 C 217.910 312.144,217.055 312.212,218.100 312.294 " stroke="none" fill="#fc432e" fill-rule="evenodd"></path><path id="path4" d="M139.862 118.331 C 138.882 119.415,138.843 172.602,139.822 173.824 C 140.423 174.574,140.430 174.570,140.022 173.726 C 139.383 172.403,139.439 119.121,140.080 118.480 C 140.726 117.834,294.391 117.777,295.726 118.422 C 296.570 118.830,296.574 118.823,295.824 118.222 C 294.518 117.176,140.810 117.284,139.862 118.331 M296.400 176.371 C 296.400 227.812,296.337 233.606,295.771 234.171 C 295.204 234.738,287.805 234.800,220.290 234.800 L 145.438 234.800 144.028 233.500 C 143.033 232.584,142.848 232.495,143.399 233.200 C 143.829 233.750,144.445 234.425,144.767 234.700 C 145.934 235.696,295.000 235.400,296.000 234.400 C 296.763 233.637,297.359 119.200,296.600 119.200 C 296.490 119.200,296.400 144.927,296.400 176.371 M148.790 127.811 C 147.736 128.933,147.495 131.258,148.345 132.100 C 148.752 132.502,148.765 132.375,148.415 131.447 C 147.903 130.090,148.178 128.943,149.316 127.700 C 149.769 127.205,150.049 126.800,149.939 126.800 C 149.829 126.800,149.312 127.255,148.790 127.811 M153.400 127.058 C 154.123 127.788,162.000 133.629,162.000 133.434 C 162.000 133.183,155.737 128.327,154.200 127.387 C 153.540 126.984,153.180 126.835,153.400 127.058 M285.933 127.076 C 286.226 127.193,286.810 127.854,287.231 128.544 C 287.652 129.235,287.998 129.599,287.999 129.354 C 288.001 128.682,286.409 126.795,285.871 126.832 C 285.572 126.852,285.594 126.941,285.933 127.076 M273.006 133.829 C 268.830 137.012,265.140 139.907,264.806 140.264 C 264.108 141.011,278.998 129.855,280.189 128.739 C 281.892 127.143,280.302 128.270,273.006 133.829 M287.404 131.589 C 287.266 132.023,286.309 133.125,285.277 134.038 C 284.181 135.008,283.928 135.343,284.668 134.845 C 286.047 133.916,288.000 131.762,288.000 131.169 C 288.000 130.531,287.664 130.767,287.404 131.589 M150.144 133.909 C 150.460 134.421,152.800 136.153,152.800 135.875 C 152.800 135.776,152.139 135.191,151.332 134.575 C 150.524 133.959,149.989 133.659,150.144 133.909 M281.400 137.044 L 279.800 138.476 281.500 137.204 C 282.963 136.110,283.491 135.583,283.100 135.606 C 283.045 135.609,282.280 136.256,281.400 137.044 M153.200 136.169 C 153.200 136.282,155.399 138.046,158.086 140.088 C 164.326 144.828,164.400 144.881,164.400 144.656 C 164.400 144.551,161.880 142.553,158.800 140.214 C 155.720 137.875,153.200 136.055,153.200 136.169 M168.800 138.571 C 168.800 138.677,171.418 140.748,174.619 143.174 C 177.819 145.600,180.325 147.402,180.187 147.179 C 179.878 146.678,168.800 138.304,168.800 138.571 M277.600 139.838 C 275.427 141.564,275.149 141.848,276.200 141.264 C 277.123 140.751,279.899 138.425,279.600 138.415 C 279.490 138.411,278.590 139.051,277.600 139.838 M270.400 145.239 C 268.090 146.996,265.930 148.720,265.600 149.072 C 265.169 149.531,273.569 143.441,275.167 142.136 C 275.258 142.061,275.168 142.010,274.967 142.022 C 274.765 142.035,272.710 143.482,270.400 145.239 M256.400 146.441 C 254.090 148.203,251.930 149.930,251.600 150.278 C 251.270 150.626,253.205 149.260,255.900 147.243 C 260.050 144.137,261.269 143.114,260.700 143.218 C 260.645 143.228,258.710 144.678,256.400 146.441 M164.944 145.109 C 165.260 145.621,167.600 147.353,167.600 147.075 C 167.600 146.976,166.939 146.391,166.132 145.775 C 165.324 145.159,164.789 144.859,164.944 145.109 M168.127 147.482 C 168.268 147.710,171.312 150.106,174.892 152.807 C 178.471 155.508,181.040 157.357,180.600 156.916 C 179.492 155.805,167.810 146.970,168.127 147.482 M180.800 147.727 C 180.800 147.824,181.835 148.681,183.100 149.630 C 184.365 150.579,185.183 151.087,184.918 150.759 C 184.375 150.085,180.800 147.454,180.800 147.727 M257.886 154.757 C 252.011 159.229,248.446 162.136,251.012 160.362 C 255.312 157.389,265.386 149.499,264.724 149.623 C 264.656 149.636,261.579 151.946,257.886 154.757 M186.800 152.351 C 187.570 153.025,189.010 154.136,190.000 154.819 L 191.800 156.061 190.474 154.879 C 189.744 154.230,188.304 153.119,187.274 152.412 L 185.400 151.126 186.800 152.351 M246.000 154.449 C 244.606 155.671,244.605 155.672,245.888 154.819 C 246.596 154.348,247.282 153.791,247.412 153.581 C 247.797 152.957,247.477 153.154,246.000 154.449 M112.600 155.390 C 111.720 155.932,111.125 156.381,111.277 156.388 C 111.624 156.403,114.400 154.779,114.400 154.560 C 114.400 154.300,114.276 154.357,112.600 155.390 M241.600 157.647 C 238.318 160.173,237.152 161.354,239.800 159.471 C 241.949 157.942,244.728 155.628,244.400 155.640 C 244.290 155.643,243.030 156.547,241.600 157.647 M119.785 157.500 C 120.402 158.435,120.983 159.200,121.076 159.200 C 121.364 159.200,119.833 156.766,119.232 156.269 C 118.920 156.011,119.168 156.565,119.785 157.500 M192.000 156.133 C 192.000 156.243,192.720 156.903,193.600 157.600 C 194.480 158.297,195.200 158.777,195.200 158.667 C 195.200 158.557,194.480 157.897,193.600 157.200 C 192.720 156.503,192.000 156.023,192.000 156.133 M107.700 158.226 C 106.765 158.787,106.000 159.340,106.000 159.455 C 106.000 159.671,108.699 158.138,109.380 157.536 C 110.067 156.928,109.427 157.191,107.700 158.226 M122.637 161.700 C 123.449 162.965,124.188 164.000,124.279 164.000 C 124.547 164.000,123.100 161.682,122.090 160.494 C 121.579 159.892,121.825 160.435,122.637 161.700 M198.200 160.987 C 198.860 161.567,199.940 162.406,200.600 162.853 L 201.800 163.666 200.600 162.613 C 199.940 162.033,198.860 161.194,198.200 160.747 L 197.000 159.934 198.200 160.987 M234.300 163.222 C 232.595 164.552,231.200 165.729,231.200 165.836 C 231.200 165.944,232.640 164.915,234.400 163.551 C 237.235 161.354,237.863 160.797,237.500 160.801 C 237.445 160.802,236.005 161.891,234.300 163.222 M248.400 162.049 C 247.006 163.271,247.005 163.272,248.288 162.419 C 248.996 161.948,249.682 161.391,249.812 161.181 C 250.197 160.557,249.877 160.754,248.400 162.049 M186.682 161.641 C 187.225 162.315,190.800 164.946,190.800 164.673 C 190.800 164.576,189.765 163.719,188.500 162.770 C 187.235 161.821,186.417 161.313,186.682 161.641 M97.449 164.841 C 96.423 165.743,95.388 166.868,95.148 167.341 C 94.907 167.815,95.224 167.605,95.856 166.870 C 96.485 166.138,97.630 165.018,98.400 164.380 C 99.170 163.743,99.690 163.217,99.556 163.211 C 99.422 163.205,98.474 163.938,97.449 164.841 M244.785 164.829 L 243.400 166.058 244.900 164.981 C 246.226 164.030,246.657 163.600,246.285 163.600 C 246.222 163.600,245.547 164.153,244.785 164.829 M125.149 165.400 C 125.365 165.840,125.834 166.560,126.193 167.000 L 126.844 167.800 126.451 167.000 C 126.235 166.560,125.766 165.840,125.407 165.400 L 124.756 164.600 125.149 165.400 M191.200 164.938 C 191.200 165.042,192.415 166.071,193.900 167.224 C 195.385 168.377,196.825 169.495,197.100 169.709 C 197.375 169.923,197.600 170.008,197.600 169.899 C 197.600 169.790,196.160 168.586,194.400 167.224 C 192.640 165.863,191.200 164.834,191.200 164.938 M203.600 164.964 C 203.600 165.074,205.040 166.260,206.800 167.600 C 208.560 168.940,210.000 169.946,210.000 169.836 C 210.000 169.726,208.560 168.540,206.800 167.200 C 205.040 165.860,203.600 164.854,203.600 164.964 M238.800 169.241 C 236.490 171.003,234.330 172.730,234.000 173.078 C 233.670 173.426,235.605 172.060,238.300 170.043 C 242.450 166.937,243.669 165.914,243.100 166.018 C 243.045 166.028,241.110 167.478,238.800 169.241 M225.005 170.248 C 220.521 173.726,219.738 174.386,220.800 173.794 C 222.559 172.813,230.183 166.717,229.524 166.819 C 229.456 166.830,227.422 168.372,225.005 170.248 M127.785 169.500 C 128.402 170.435,128.983 171.200,129.076 171.200 C 129.364 171.200,127.833 168.766,127.232 168.269 C 126.920 168.011,127.168 168.565,127.785 169.500 M210.400 170.106 C 210.400 170.194,211.165 170.874,212.100 171.617 C 213.035 172.360,213.546 172.652,213.236 172.265 C 212.651 171.537,210.400 169.823,210.400 170.106 M130.185 173.100 C 130.802 174.035,131.383 174.800,131.476 174.800 C 131.764 174.800,130.233 172.366,129.632 171.869 C 129.320 171.611,129.568 172.165,130.185 173.100 M92.650 173.650 C 92.317 175.317,92.640 175.640,93.000 174.000 C 93.152 173.309,93.193 172.659,93.091 172.558 C 92.989 172.456,92.791 172.947,92.650 173.650 M201.600 172.893 C 201.600 173.512,212.890 181.600,213.755 181.600 C 213.974 181.600,213.174 181.009,211.976 180.288 C 210.779 179.566,208.630 178.067,207.200 176.957 C 203.151 173.815,201.600 172.689,201.600 172.893 M216.538 174.494 C 216.792 174.656,217.450 174.788,218.000 174.788 C 218.550 174.788,219.208 174.656,219.462 174.494 C 219.716 174.332,219.058 174.200,218.000 174.200 C 216.942 174.200,216.284 174.332,216.538 174.494 M141.077 176.031 C 141.475 176.708,142.056 177.473,142.368 177.731 C 142.680 177.989,142.432 177.435,141.815 176.500 C 140.520 174.537,140.009 174.212,141.077 176.031 M227.206 178.050 C 224.455 180.176,223.824 180.738,224.800 180.194 C 225.727 179.676,230.000 176.375,230.000 176.177 C 230.000 175.898,229.942 175.937,227.206 178.050 M92.093 177.600 C 92.093 178.370,92.175 178.685,92.276 178.300 C 92.376 177.915,92.376 177.285,92.276 176.900 C 92.175 176.515,92.093 176.830,92.093 177.600 M133.385 177.900 C 134.002 178.835,134.583 179.600,134.676 179.600 C 134.964 179.600,133.433 177.166,132.832 176.669 C 132.520 176.411,132.768 176.965,133.385 177.900 M186.385 180.029 L 185.000 181.258 186.600 180.145 C 187.480 179.533,188.275 178.980,188.367 178.916 C 188.458 178.852,188.362 178.800,188.152 178.800 C 187.942 178.800,187.147 179.353,186.385 180.029 M190.433 178.900 C 190.525 178.955,191.140 179.450,191.800 180.000 L 193.000 181.000 192.030 179.900 C 191.497 179.295,190.882 178.800,190.664 178.800 C 190.445 178.800,190.342 178.845,190.433 178.900 M248.000 179.246 C 248.550 179.464,249.727 180.307,250.616 181.121 C 251.707 182.120,251.619 181.983,250.346 180.700 C 249.308 179.655,248.131 178.811,247.730 178.825 C 247.185 178.844,247.254 178.951,248.000 179.246 M91.746 183.400 C 91.747 185.600,91.814 186.449,91.895 185.287 C 91.976 184.124,91.976 182.324,91.893 181.287 C 91.811 180.249,91.745 181.200,91.746 183.400 M143.962 180.329 C 144.205 180.784,144.601 181.277,144.842 181.426 C 145.156 181.620,145.154 181.462,144.838 180.871 C 144.595 180.416,144.199 179.923,143.958 179.774 C 143.644 179.580,143.646 179.738,143.962 180.329 M135.785 181.500 C 136.402 182.435,136.983 183.200,137.076 183.200 C 137.364 183.200,135.833 180.766,135.232 180.269 C 134.920 180.011,135.168 180.565,135.785 181.500 M222.600 181.014 C 221.595 181.498,221.563 181.553,222.400 181.351 C 222.950 181.219,223.571 180.950,223.780 180.755 C 224.298 180.271,224.014 180.333,222.600 181.014 M192.864 182.468 C 192.811 183.676,192.339 184.440,190.200 186.770 C 188.770 188.328,187.600 189.699,187.600 189.816 C 187.600 190.095,192.503 184.872,192.925 184.143 C 193.103 183.835,193.177 183.002,193.089 182.291 C 192.929 181.004,192.928 181.004,192.864 182.468 M182.189 184.500 L 179.400 187.400 182.300 184.611 C 184.994 182.020,185.383 181.600,185.089 181.600 C 185.028 181.600,183.723 182.905,182.189 184.500 M218.000 182.000 L 215.800 182.270 217.800 182.307 C 218.900 182.327,220.160 182.189,220.600 182.000 C 221.502 181.612,221.162 181.612,218.000 182.000 M146.362 183.929 C 146.605 184.384,147.001 184.877,147.242 185.026 C 147.556 185.220,147.554 185.062,147.238 184.471 C 146.995 184.016,146.599 183.523,146.358 183.374 C 146.044 183.180,146.046 183.338,146.362 183.929 M257.865 189.158 C 260.909 192.436,263.551 195.136,263.735 195.158 C 263.919 195.181,261.579 192.519,258.535 189.242 C 255.491 185.964,252.849 183.264,252.665 183.242 C 252.481 183.219,254.821 185.881,257.865 189.158 M137.992 184.800 C 138.437 185.570,139.175 186.650,139.633 187.200 L 140.467 188.200 139.743 186.894 C 139.346 186.175,138.607 185.095,138.102 184.494 L 137.184 183.400 137.992 184.800 M243.200 183.919 C 243.200 184.192,244.505 185.726,246.100 187.327 C 248.143 189.378,248.337 189.524,246.758 187.819 C 245.524 186.489,244.219 184.955,243.858 184.411 C 243.496 183.867,243.200 183.646,243.200 183.919 M148.278 186.995 C 148.644 187.762,149.014 188.319,149.101 188.232 C 149.284 188.049,148.070 185.600,147.796 185.600 C 147.695 185.600,147.912 186.228,148.278 186.995 M92.101 189.000 C 92.105 189.880,92.187 190.193,92.283 189.695 C 92.379 189.198,92.375 188.478,92.275 188.095 C 92.175 187.713,92.096 188.120,92.101 189.000 M176.788 190.300 C 171.387 195.930,169.015 198.503,169.444 198.266 C 169.948 197.989,179.776 187.600,179.535 187.600 C 179.449 187.600,178.213 188.815,176.788 190.300 M141.427 190.053 C 141.786 190.746,142.006 191.895,141.921 192.625 C 141.836 193.350,141.910 193.856,142.084 193.748 C 142.853 193.273,141.855 188.800,140.979 188.800 C 140.869 188.800,141.071 189.364,141.427 190.053 M149.714 192.200 C 149.717 193.300,149.795 193.703,149.887 193.095 C 149.979 192.486,149.977 191.586,149.882 191.095 C 149.787 190.603,149.711 191.100,149.714 192.200 M182.000 195.600 C 179.310 198.460,177.295 200.800,177.521 200.800 C 177.748 200.800,177.993 200.631,178.067 200.425 C 178.140 200.219,179.286 198.914,180.613 197.525 C 185.169 192.756,187.316 190.400,187.103 190.400 C 186.987 190.400,184.690 192.740,182.000 195.600 M249.600 191.117 C 249.600 191.241,250.950 192.730,252.600 194.425 C 254.250 196.121,255.600 197.407,255.600 197.283 C 255.600 197.159,254.250 195.670,252.600 193.975 C 250.950 192.279,249.600 190.993,249.600 191.117 M92.468 192.400 C 92.488 193.439,93.118 195.146,93.132 194.200 C 93.138 193.760,92.989 193.040,92.800 192.600 C 92.589 192.110,92.461 192.032,92.468 192.400 M140.087 195.500 C 139.130 196.435,139.114 196.481,139.981 195.806 C 141.688 194.476,141.769 194.400,141.486 194.400 C 141.336 194.400,140.706 194.895,140.087 195.500 M268.447 200.362 C 270.951 203.092,274.596 206.962,276.546 208.962 C 278.599 211.068,278.009 210.331,275.146 207.212 C 272.426 204.249,268.781 200.379,267.047 198.612 C 265.312 196.846,265.942 197.633,268.447 200.362 M93.850 198.400 C 93.990 199.170,94.261 200.160,94.454 200.600 C 94.694 201.149,94.724 200.961,94.550 200.000 C 94.410 199.230,94.139 198.240,93.946 197.800 C 93.706 197.251,93.676 197.439,93.850 198.400 M146.200 199.743 C 145.100 200.880,143.480 202.407,142.600 203.135 L 141.000 204.458 142.800 203.160 C 145.033 201.549,147.539 199.228,148.046 198.300 C 148.586 197.310,148.444 197.422,146.200 199.743 M135.000 199.444 L 133.400 200.876 135.100 199.604 C 136.563 198.510,137.091 197.983,136.700 198.006 C 136.645 198.009,135.880 198.656,135.000 199.444 M259.915 202.300 C 262.117 204.665,264.427 207.050,265.048 207.600 C 265.670 208.150,263.958 206.215,261.244 203.300 C 258.530 200.385,256.219 198.000,256.110 198.000 C 256.000 198.000,257.713 199.935,259.915 202.300 M166.014 201.790 L 163.428 204.600 166.196 201.915 C 167.718 200.438,168.881 199.173,168.781 199.105 C 168.682 199.036,167.436 200.244,166.014 201.790 M129.555 203.584 C 127.661 205.097,125.996 206.664,125.856 207.067 C 125.678 207.578,125.874 207.487,126.500 206.767 C 126.995 206.199,128.705 204.694,130.300 203.422 C 132.798 201.430,133.537 200.743,133.100 200.817 C 133.045 200.826,131.450 202.071,129.555 203.584 M171.200 207.200 C 168.069 210.500,165.598 213.200,165.708 213.200 C 165.818 213.200,168.469 210.500,171.600 207.200 C 174.731 203.900,177.202 201.200,177.092 201.200 C 176.982 201.200,174.331 203.900,171.200 207.200 M95.299 203.300 C 95.400 203.575,95.798 204.757,96.182 205.926 C 96.567 207.095,96.952 207.981,97.038 207.895 C 97.241 207.693,95.592 202.800,95.320 202.800 C 95.207 202.800,95.197 203.025,95.299 203.300 M162.211 205.712 C 161.801 206.200,159.583 208.625,157.283 211.100 C 154.983 213.575,153.185 215.600,153.286 215.600 C 153.623 215.600,163.303 205.170,163.128 204.995 C 163.034 204.901,162.621 205.224,162.211 205.712 M136.967 207.436 L 135.400 208.873 137.100 207.603 C 138.617 206.469,139.076 206.000,138.667 206.000 C 138.593 206.000,137.828 206.646,136.967 207.436 M97.773 209.796 C 98.445 211.405,99.170 212.714,99.188 212.351 C 99.207 211.948,97.580 208.400,97.376 208.400 C 97.273 208.400,97.452 209.028,97.773 209.796 M133.200 210.361 C 132.210 211.218,131.490 211.982,131.600 212.059 C 131.710 212.137,132.610 211.435,133.600 210.500 C 135.854 208.371,135.600 208.283,133.200 210.361 M268.831 211.952 C 270.244 213.465,271.566 214.725,271.769 214.752 C 271.971 214.778,270.981 213.562,269.569 212.048 C 268.156 210.535,266.834 209.275,266.631 209.248 C 266.429 209.222,267.419 210.438,268.831 211.952 M123.853 211.636 C 123.714 212.331,123.622 213.463,123.649 214.150 C 123.678 214.894,123.838 214.440,124.043 213.028 C 124.411 210.504,124.276 209.518,123.853 211.636 M283.145 216.191 C 284.936 218.056,286.760 220.171,287.199 220.891 C 287.638 221.611,287.998 222.010,287.999 221.778 C 288.002 220.916,280.894 212.800,280.136 212.800 C 280.001 212.800,281.355 214.326,283.145 216.191 M162.600 216.400 C 161.072 217.940,159.952 219.200,160.111 219.200 C 160.270 219.200,160.715 218.866,161.100 218.458 C 161.485 218.050,162.693 216.790,163.785 215.658 C 164.877 214.526,165.682 213.600,165.574 213.600 C 165.467 213.600,164.128 214.860,162.600 216.400 M277.039 220.536 C 281.928 225.936,282.529 226.413,284.354 226.350 C 285.774 226.301,285.768 226.295,284.027 226.013 C 282.419 225.753,281.832 225.286,277.684 220.963 L 273.113 216.200 277.039 220.536 M150.018 218.934 L 148.637 220.600 150.318 219.019 C 151.243 218.149,152.000 217.384,152.000 217.319 C 152.000 216.859,151.194 217.516,150.018 218.934 M102.600 219.600 C 103.157 220.700,103.703 221.600,103.813 221.600 C 103.923 221.600,103.557 220.700,103.000 219.600 C 102.443 218.500,101.897 217.600,101.787 217.600 C 101.677 217.600,102.043 218.500,102.600 219.600 M124.800 218.149 C 124.800 218.581,126.389 221.600,126.616 221.600 C 126.726 221.600,126.430 220.835,125.959 219.900 C 125.032 218.061,124.800 217.711,124.800 218.149 M157.387 222.100 L 155.000 224.600 157.500 222.213 C 159.822 219.995,160.183 219.600,159.887 219.600 C 159.826 219.600,158.701 220.725,157.387 222.100 M135.594 222.300 C 136.059 223.125,136.812 224.250,137.267 224.800 L 138.095 225.800 137.395 224.635 C 137.011 223.994,136.341 222.869,135.908 222.135 C 134.825 220.298,134.548 220.444,135.594 222.300 M148.267 221.067 C 147.902 221.432,147.929 223.909,148.300 224.138 C 148.465 224.240,148.600 223.531,148.600 222.562 C 148.600 221.593,148.585 220.800,148.567 220.800 C 148.548 220.800,148.413 220.920,148.267 221.067 M286.889 224.717 L 285.979 226.200 286.989 225.078 C 287.545 224.460,288.000 223.785,288.000 223.578 C 288.000 222.990,287.865 223.128,286.889 224.717 M128.000 224.172 C 128.000 224.572,132.322 231.200,132.582 231.200 C 132.692 231.200,131.766 229.625,130.524 227.700 C 127.915 223.654,128.000 223.773,128.000 224.172 M149.725 225.700 C 150.191 226.127,151.057 226.380,151.944 226.350 L 153.400 226.300 151.735 226.028 C 150.819 225.878,149.820 225.585,149.516 225.378 C 149.211 225.170,149.306 225.315,149.725 225.700 M107.412 227.600 C 108.142 228.929,111.638 234.000,111.824 234.000 C 112.047 234.000,108.124 228.031,107.487 227.400 C 107.215 227.131,107.191 227.197,107.412 227.600 M140.975 230.132 C 141.591 230.939,142.176 231.600,142.275 231.600 C 142.553 231.600,140.821 229.260,140.309 228.944 C 140.059 228.789,140.359 229.324,140.975 230.132 M113.999 237.100 C 114.522 237.815,115.013 238.400,115.089 238.400 C 115.393 238.400,114.401 236.900,113.745 236.367 C 113.313 236.016,113.410 236.296,113.999 237.100 M137.826 238.200 C 139.996 240.898,143.600 244.860,143.600 244.548 C 143.600 244.435,142.449 243.051,141.042 241.472 C 136.715 236.615,135.813 235.697,137.826 238.200 M118.000 242.400 C 118.921 243.500,119.761 244.400,119.866 244.400 C 120.204 244.400,117.014 240.435,116.663 240.417 C 116.477 240.408,117.079 241.300,118.000 242.400 M120.800 245.800 C 121.317 246.350,121.806 246.800,121.888 246.800 C 122.221 246.800,120.572 244.824,120.230 244.813 C 120.027 244.806,120.283 245.250,120.800 245.800 M146.000 247.350 C 150.450 252.104,163.200 264.347,163.200 263.866 C 163.200 263.729,162.345 262.854,161.300 261.923 C 160.255 260.991,155.890 256.803,151.600 252.615 C 147.310 248.427,144.790 246.057,146.000 247.350 M123.201 248.600 C 125.238 251.075,127.659 253.675,127.793 253.530 C 127.859 253.459,126.557 251.960,124.898 250.200 C 123.240 248.440,122.476 247.720,123.201 248.600 M129.234 255.445 C 132.596 259.491,153.334 279.600,154.144 279.600 C 154.276 279.600,151.432 276.900,147.826 273.600 C 144.219 270.299,138.253 264.494,134.568 260.700 C 130.882 256.905,128.482 254.540,129.234 255.445 M210.705 261.483 C 211.202 261.579,211.922 261.575,212.305 261.475 C 212.687 261.375,212.280 261.296,211.400 261.301 C 210.520 261.305,210.207 261.387,210.705 261.483 M207.634 263.500 C 206.738 264.545,206.004 265.559,206.003 265.754 C 206.001 265.949,206.391 265.589,206.868 264.954 C 207.345 264.319,208.189 263.305,208.743 262.700 C 209.297 262.095,209.640 261.600,209.506 261.600 C 209.372 261.600,208.529 262.455,207.634 263.500 M214.000 262.385 C 214.550 262.846,215.360 263.410,215.800 263.638 C 216.346 263.922,216.282 263.787,215.600 263.215 C 215.050 262.754,214.240 262.190,213.800 261.962 C 213.254 261.678,213.318 261.813,214.000 262.385 M218.269 265.235 C 218.527 265.546,219.337 266.130,220.069 266.533 L 221.400 267.267 220.400 266.422 C 218.980 265.222,217.639 264.475,218.269 265.235 M167.200 267.197 C 168.807 268.645,170.800 270.134,170.800 269.886 C 170.800 269.794,169.675 268.867,168.300 267.827 C 166.925 266.786,166.430 266.503,167.200 267.197 M204.175 267.868 C 203.559 268.676,203.259 269.211,203.509 269.056 C 204.021 268.740,205.753 266.400,205.475 266.400 C 205.376 266.400,204.791 267.061,204.175 267.868 M221.869 267.632 C 222.366 268.233,224.800 269.764,224.800 269.476 C 224.800 269.383,224.035 268.802,223.100 268.185 C 222.165 267.568,221.611 267.320,221.869 267.632 M200.927 272.100 C 199.871 273.475,198.381 275.320,197.615 276.200 C 196.608 277.357,196.528 277.528,197.326 276.817 C 198.496 275.774,203.392 269.600,203.049 269.600 C 202.938 269.600,201.983 270.725,200.927 272.100 M226.000 270.385 C 226.550 270.846,227.360 271.410,227.800 271.638 C 228.346 271.922,228.282 271.787,227.600 271.215 C 227.050 270.754,226.240 270.190,225.800 269.962 C 225.254 269.678,225.318 269.813,226.000 270.385 M171.200 270.146 C 171.200 270.256,171.740 270.730,172.400 271.200 C 173.060 271.670,173.600 271.964,173.600 271.854 C 173.600 271.744,173.060 271.270,172.400 270.800 C 171.740 270.330,171.200 270.036,171.200 270.146 M174.600 272.607 C 175.040 272.966,175.760 273.435,176.200 273.651 L 177.000 274.044 176.200 273.393 C 175.760 273.034,175.040 272.565,174.600 272.349 L 173.800 271.956 174.600 272.607 M230.269 273.235 C 230.527 273.546,231.337 274.130,232.069 274.533 L 233.400 275.267 232.400 274.422 C 230.980 273.222,229.639 272.475,230.269 273.235 M179.200 275.379 C 179.200 275.489,179.740 275.859,180.400 276.200 C 181.060 276.541,181.600 276.731,181.600 276.621 C 181.600 276.511,181.060 276.141,180.400 275.800 C 179.740 275.459,179.200 275.269,179.200 275.379 M233.869 275.632 C 234.366 276.233,236.800 277.764,236.800 277.476 C 236.800 277.383,236.035 276.802,235.100 276.185 C 234.165 275.568,233.611 275.320,233.869 275.632 M237.469 278.032 C 237.966 278.633,240.400 280.164,240.400 279.876 C 240.400 279.783,239.635 279.202,238.700 278.585 C 237.765 277.968,237.211 277.720,237.469 278.032 M186.400 279.182 C 186.730 279.405,187.345 279.591,187.767 279.594 C 188.790 279.602,188.471 279.373,187.000 279.044 C 186.124 278.848,185.962 278.885,186.400 279.182 M192.200 279.200 C 191.093 279.482,191.077 279.509,192.000 279.547 C 192.550 279.569,193.270 279.413,193.600 279.200 C 194.281 278.760,193.929 278.760,192.200 279.200 M154.800 280.139 C 154.800 280.243,156.285 281.543,158.100 283.027 C 159.915 284.511,161.715 285.995,162.100 286.325 C 162.485 286.654,162.800 286.826,162.800 286.707 C 162.800 286.588,161.000 285.018,158.800 283.220 C 156.600 281.421,154.800 280.034,154.800 280.139 M242.000 280.964 C 242.000 281.080,243.338 282.078,244.973 283.182 C 246.608 284.285,248.228 285.591,248.573 286.083 C 248.918 286.575,249.200 286.792,249.200 286.564 C 249.200 286.028,247.519 284.502,245.000 282.750 C 242.432 280.963,242.000 280.706,242.000 280.964 M246.992 292.100 C 244.644 296.131,244.713 296.000,244.931 296.000 C 245.099 296.000,247.747 291.643,248.759 289.700 C 249.883 287.543,248.749 289.083,246.992 292.100 M166.739 289.695 C 167.329 290.440,175.600 296.168,175.600 295.832 C 175.600 295.718,174.205 294.690,172.500 293.549 C 170.795 292.407,168.680 290.920,167.800 290.244 C 166.920 289.568,166.442 289.321,166.739 289.695 M176.000 296.150 C 176.000 296.364,181.811 299.904,183.900 300.962 C 186.331 302.194,185.212 301.279,182.300 299.655 C 180.705 298.765,178.635 297.568,177.700 296.996 C 176.765 296.423,176.000 296.043,176.000 296.150 M242.708 299.300 C 241.833 300.649,241.048 302.256,241.487 301.800 C 242.048 301.217,243.698 298.400,243.479 298.400 C 243.376 298.400,243.029 298.805,242.708 299.300 M186.400 302.184 C 186.400 302.294,187.120 302.751,188.000 303.200 C 188.880 303.649,189.600 303.926,189.600 303.816 C 189.600 303.706,188.880 303.249,188.000 302.800 C 187.120 302.351,186.400 302.074,186.400 302.184 M238.181 306.037 C 237.312 306.938,235.700 308.196,234.600 308.834 C 233.500 309.471,232.790 309.994,233.022 309.996 C 234.001 310.005,237.675 307.282,239.362 305.297 C 240.620 303.817,239.874 304.284,238.181 306.037 M195.600 306.520 C 195.600 306.792,200.493 308.441,200.695 308.238 C 200.781 308.152,199.895 307.767,198.726 307.382 C 197.557 306.998,196.375 306.600,196.100 306.499 C 195.825 306.397,195.600 306.407,195.600 306.520 M203.000 309.146 C 203.440 309.339,204.430 309.610,205.200 309.750 C 206.161 309.924,206.349 309.894,205.800 309.654 C 205.360 309.461,204.370 309.190,203.600 309.050 C 202.639 308.876,202.451 308.906,203.000 309.146 M207.600 310.400 C 208.150 310.576,208.960 310.720,209.400 310.720 C 210.033 310.720,209.992 310.654,209.200 310.400 C 208.650 310.224,207.840 310.080,207.400 310.080 C 206.767 310.080,206.808 310.146,207.600 310.400 M230.400 310.400 C 229.596 310.657,229.557 310.723,230.200 310.732 C 230.640 310.738,231.360 310.589,231.800 310.400 C 232.819 309.962,231.768 309.962,230.400 310.400 M214.800 311.670 C 215.790 311.819,218.130 311.941,220.000 311.941 C 221.870 311.941,224.210 311.819,225.200 311.670 C 226.213 311.518,223.938 311.400,220.000 311.400 C 216.062 311.400,213.787 311.518,214.800 311.670 " stroke="none" fill="#fc8c84" fill-rule="evenodd"></path></g></svg>