<svg id="svg" version="1.1" xmlns="http://www.w3.org/2000/svg" xmlns:xlink="http://www.w3.org/1999/xlink" width="400" height="403.9408866995074" viewBox="0, 0, 400,403.9408866995074"><g id="svgg"><path id="path0" d="M135.990 100.352 C 134.643 101.476,134.607 101.583,134.490 104.852 C 134.288 110.465,135.227 109.880,126.104 110.080 C 112.008 110.388,103.209 116.248,100.399 127.200 C 100.145 128.190,99.763 129.630,99.551 130.400 C 99.324 131.225,99.214 138.372,99.283 147.800 L 99.400 163.800 199.000 163.800 L 298.600 163.800 298.582 147.200 C 298.563 129.375,298.509 128.804,296.410 124.200 C 293.462 117.735,287.955 112.971,280.881 110.765 C 280.066 110.511,275.890 110.190,271.600 110.052 L 263.800 109.800 263.587 106.000 C 263.231 99.633,260.149 97.217,256.385 100.355 L 255.000 101.509 254.800 105.655 L 254.600 109.800 239.000 109.800 L 223.400 109.800 223.200 105.666 C 222.907 99.599,220.004 97.337,216.385 100.355 L 215.000 101.509 214.800 105.655 L 214.600 109.800 199.000 109.800 L 183.400 109.800 183.286 105.899 C 183.125 100.422,180.559 97.842,177.074 99.654 C 174.997 100.734,174.654 101.525,174.421 105.768 L 174.200 109.800 158.700 109.905 L 143.200 110.009 143.200 106.158 L 143.200 102.306 141.647 100.753 C 139.674 98.780,138.014 98.662,135.990 100.352 M99.201 227.500 C 99.201 290.939,99.058 287.851,102.308 294.400 C 103.881 297.569,109.101 302.665,112.400 304.253 C 118.153 307.021,111.926 306.847,200.200 306.717 L 279.800 306.600 283.000 305.299 C 290.672 302.179,295.927 296.107,297.916 288.063 C 298.508 285.666,298.586 279.710,298.695 228.500 L 298.816 171.600 199.008 171.600 L 99.200 171.600 99.201 227.500 M190.920 202.659 C 195.911 205.230,196.507 216.029,191.863 219.764 L 190.326 221.000 184.832 221.000 C 176.439 221.000,175.016 219.603,175.011 211.364 C 175.007 205.995,175.595 204.567,178.546 202.767 C 180.269 201.717,188.943 201.641,190.920 202.659 M223.392 202.915 C 228.073 205.566,228.358 216.119,223.847 219.768 L 222.324 221.000 216.830 221.000 C 208.905 221.000,207.206 219.566,206.882 212.600 C 206.630 207.195,207.619 204.553,210.565 202.756 C 212.534 201.555,221.180 201.662,223.392 202.915 M255.200 203.000 C 257.732 204.598,258.400 206.378,258.400 211.523 C 258.400 219.592,256.251 221.448,247.265 221.140 C 240.218 220.899,238.800 219.300,238.800 211.600 C 238.800 205.863,239.500 204.182,242.600 202.467 C 244.346 201.501,253.435 201.886,255.200 203.000 M159.114 231.490 C 162.143 233.414,162.602 234.644,162.593 240.808 C 162.581 248.387,161.043 249.800,152.800 249.800 C 144.467 249.800,143.200 248.535,143.200 240.215 C 143.200 234.504,143.448 233.749,145.931 231.915 C 147.820 230.519,157.114 230.220,159.114 231.490 M191.560 231.775 C 195.762 234.428,196.234 244.365,192.334 248.077 C 189.911 250.384,180.915 250.875,178.079 248.856 C 173.333 245.477,173.628 234.567,178.546 231.567 C 180.624 230.301,189.448 230.441,191.560 231.775 M222.964 231.632 C 227.546 234.335,227.787 245.282,223.339 248.673 C 221.253 250.264,211.862 250.415,209.728 248.893 C 205.270 245.713,205.423 234.773,209.969 231.710 C 211.923 230.393,220.774 230.340,222.964 231.632 M254.505 231.300 C 259.677 234.191,260.250 244.681,255.448 248.568 L 253.926 249.800 248.663 249.800 C 240.231 249.800,238.800 248.412,238.800 240.236 C 238.800 234.729,239.238 233.550,241.969 231.710 C 243.566 230.633,252.774 230.332,254.505 231.300 M158.030 259.011 C 163.820 261.053,164.841 273.176,159.520 276.702 C 155.532 279.343,146.493 278.260,144.185 274.864 C 141.959 271.587,142.861 262.223,145.609 260.089 C 147.856 258.344,154.505 257.767,158.030 259.011 M189.638 259.014 C 191.494 259.668,193.200 261.020,193.200 261.836 C 193.200 262.110,193.415 262.405,193.678 262.493 C 194.250 262.683,194.632 269.460,194.224 272.180 C 193.155 279.309,178.437 280.597,175.260 273.838 C 173.489 270.071,174.227 263.064,176.643 260.702 C 178.988 258.409,185.520 257.561,189.638 259.014 M221.985 259.128 C 224.942 260.261,226.064 262.283,226.306 266.919 C 226.759 275.577,224.564 278.000,216.267 278.000 C 208.526 278.000,206.800 276.206,206.800 268.163 L 206.800 262.913 208.377 261.121 C 210.783 258.388,217.491 257.405,221.985 259.128 " stroke="none" fill="#fbfcfb" fill-rule="evenodd"></path><path id="path1" d="M55.400 0.427 C 54.520 0.609,52.742 0.954,51.448 1.193 C 50.155 1.432,48.771 1.801,48.374 2.014 C 47.977 2.226,47.201 2.400,46.650 2.400 C 46.098 2.400,45.549 2.560,45.428 2.755 C 45.307 2.950,44.580 3.227,43.810 3.372 C 43.041 3.516,41.734 3.970,40.906 4.381 C 40.078 4.792,37.783 5.893,35.807 6.829 C 33.831 7.764,31.992 8.725,31.721 8.965 C 30.751 9.821,30.185 10.213,29.200 10.711 C 25.222 12.723,12.400 24.935,12.400 26.711 C 12.400 26.943,12.259 27.193,12.087 27.267 C 11.217 27.638,8.223 32.812,5.646 38.400 C 5.291 39.170,4.865 39.860,4.700 39.933 C 4.535 40.007,4.399 40.367,4.398 40.733 C 4.396 41.100,4.126 41.916,3.798 42.546 C 3.469 43.176,3.200 44.121,3.200 44.646 C 3.200 45.171,3.065 45.600,2.900 45.600 C 2.645 45.601,2.065 47.626,0.951 52.400 C 0.823 52.950,0.570 54.300,0.388 55.400 C -0.065 58.150,-0.048 345.322,0.406 347.600 C 0.604 348.590,0.962 350.390,1.204 351.600 C 1.650 353.841,1.724 354.143,2.083 355.200 C 2.195 355.530,2.503 356.520,2.768 357.400 C 3.918 361.227,7.439 369.240,8.100 369.533 C 8.265 369.607,8.400 369.806,8.400 369.976 C 8.400 370.289,12.424 376.382,14.096 378.600 C 15.338 380.248,23.120 387.929,25.037 389.398 C 29.118 392.526,36.987 397.200,38.172 397.200 C 38.481 397.200,38.793 397.339,38.867 397.509 C 39.068 397.975,45.519 400.400,46.559 400.400 C 47.058 400.400,47.595 400.529,47.753 400.686 C 48.192 401.126,51.530 401.925,54.200 402.230 C 55.520 402.381,56.798 402.661,57.040 402.852 C 57.964 403.580,341.812 403.036,345.400 402.299 C 347.160 401.937,349.230 401.519,350.000 401.370 C 350.770 401.221,351.580 400.967,351.800 400.805 C 352.132 400.560,352.854 400.321,354.800 399.813 C 356.628 399.335,357.542 398.951,363.000 396.370 C 366.106 394.902,370.571 392.307,371.200 391.605 C 371.310 391.482,371.940 391.043,372.600 390.628 C 376.394 388.247,384.564 380.086,386.992 376.251 C 387.427 375.563,388.102 374.651,388.492 374.225 C 388.881 373.798,389.200 373.237,389.200 372.979 C 389.200 372.720,389.737 371.899,390.394 371.154 C 391.050 370.409,391.590 369.485,391.594 369.100 C 391.597 368.715,391.780 368.400,392.000 368.400 C 392.220 368.400,392.400 368.233,392.400 368.028 C 392.400 367.823,392.960 366.446,393.644 364.968 C 394.329 363.489,394.920 362.082,394.958 361.840 C 394.997 361.598,395.322 360.817,395.682 360.104 C 396.041 359.391,396.456 358.221,396.604 357.504 C 396.752 356.787,397.146 355.390,397.481 354.400 C 399.457 348.549,399.352 356.558,399.480 201.640 C 399.564 99.540,399.474 57.330,399.170 56.964 C 398.935 56.680,398.784 56.122,398.836 55.724 C 398.946 54.884,398.550 52.717,397.718 49.600 C 397.395 48.390,396.975 46.768,396.785 45.995 C 396.594 45.223,396.139 43.873,395.772 42.995 C 394.876 40.853,394.328 39.400,394.416 39.400 C 395.083 39.400,387.375 26.781,385.009 24.000 C 380.771 19.019,371.019 10.400,369.621 10.400 C 369.390 10.400,369.200 10.263,369.200 10.095 C 369.200 9.789,368.015 9.067,366.700 8.571 C 366.315 8.426,366.000 8.148,366.000 7.953 C 366.000 7.759,365.831 7.600,365.624 7.600 C 365.417 7.600,363.662 6.866,361.724 5.970 C 355.919 3.284,355.711 3.200,354.863 3.200 C 354.414 3.200,353.936 3.020,353.800 2.800 C 353.664 2.580,353.023 2.400,352.376 2.400 C 351.729 2.400,351.200 2.233,351.200 2.029 C 351.200 1.825,350.165 1.532,348.900 1.379 C 347.635 1.226,346.347 0.898,346.039 0.651 C 345.365 0.110,57.999 -0.112,55.400 0.427 M140.926 99.263 C 143.111 100.420,143.550 101.504,143.699 106.111 L 143.800 109.223 158.500 109.217 C 166.585 109.213,173.380 109.208,173.600 109.205 C 173.839 109.202,174.000 107.646,174.000 105.347 L 174.000 101.494 175.428 100.147 C 179.425 96.378,184.000 99.492,184.000 105.980 L 184.000 109.200 199.000 109.200 L 214.000 109.200 214.000 105.553 L 214.000 101.906 215.553 100.353 C 219.485 96.421,223.695 99.001,223.938 105.491 L 224.077 109.181 239.038 109.291 L 254.000 109.400 254.000 106.080 C 254.000 101.106,255.647 98.800,259.200 98.800 C 262.666 98.800,264.400 101.283,264.400 106.249 L 264.400 109.200 270.580 109.200 C 276.310 109.200,279.835 109.569,281.800 110.376 C 282.240 110.556,283.410 111.030,284.400 111.427 C 289.240 113.371,294.649 118.640,296.896 123.600 C 299.004 128.254,299.000 128.211,299.000 146.800 L 299.000 164.200 300.744 164.056 C 304.551 163.742,306.944 167.211,304.700 169.789 L 303.800 170.823 198.400 170.829 L 93.000 170.835 92.100 169.795 C 89.693 167.014,92.095 163.862,96.462 164.070 L 99.202 164.200 99.201 146.290 C 99.200 129.465,99.248 128.244,99.992 126.127 C 102.315 119.517,107.523 113.893,113.600 111.433 C 114.590 111.032,115.760 110.556,116.200 110.376 C 118.165 109.569,121.690 109.200,127.420 109.200 L 133.600 109.200 133.600 105.980 C 133.600 100.246,136.962 97.163,140.926 99.263 M299.102 228.400 C 299.201 283.234,299.176 285.514,298.446 288.400 C 296.170 297.398,289.924 303.972,281.186 306.567 C 277.928 307.535,119.685 307.533,116.373 306.566 C 109.823 304.653,104.355 299.877,101.072 293.200 L 99.400 289.800 99.294 230.499 L 99.187 171.198 199.094 171.299 L 299.000 171.400 299.102 228.400 M179.401 203.030 C 174.409 205.633,173.758 216.295,178.390 219.593 C 179.972 220.719,189.396 220.804,191.114 219.707 C 196.113 216.517,195.569 205.192,190.313 203.016 C 188.242 202.158,181.055 202.168,179.401 203.030 M211.401 203.030 C 206.538 205.566,205.751 216.033,210.169 219.403 C 212.716 221.346,222.424 220.809,224.600 218.605 C 226.446 216.735,226.958 208.312,225.391 205.600 C 223.677 202.635,215.159 201.071,211.401 203.030 M243.800 202.687 C 240.572 203.471,239.200 206.093,239.200 211.477 C 239.200 219.093,240.558 220.400,248.473 220.400 C 256.464 220.400,258.017 218.938,257.984 211.451 C 257.952 204.417,255.815 202.363,248.615 202.446 C 246.407 202.472,244.240 202.580,243.800 202.687 M146.562 232.251 C 142.030 235.327,141.926 245.264,146.394 248.300 C 148.281 249.582,157.053 249.653,159.104 248.402 C 162.496 246.334,163.424 236.624,160.542 233.359 C 158.318 230.839,149.655 230.153,146.562 232.251 M179.013 231.874 C 174.281 234.435,173.981 245.545,178.567 248.380 C 180.371 249.494,188.754 249.590,190.994 248.522 C 195.698 246.279,195.681 234.787,190.970 232.107 C 188.938 230.950,181.006 230.796,179.013 231.874 M210.600 231.948 C 206.003 234.803,205.586 245.259,209.950 248.224 C 211.566 249.322,220.281 249.699,222.126 248.751 C 227.219 246.135,227.514 234.933,222.565 232.107 C 220.404 230.873,212.500 230.768,210.600 231.948 M243.000 231.667 C 237.984 234.441,237.455 245.547,242.206 248.350 C 244.175 249.512,252.970 249.621,254.714 248.506 C 259.421 245.495,259.347 234.764,254.600 232.108 C 252.794 231.098,244.593 230.786,243.000 231.667 M147.200 259.710 C 143.016 261.617,141.719 270.734,145.017 275.058 C 147.887 278.821,158.447 278.416,161.095 274.441 C 162.842 271.817,162.349 263.235,160.330 261.141 C 158.505 259.248,150.200 258.342,147.200 259.710 M178.400 260.039 C 174.553 262.294,173.669 272.139,177.021 275.394 C 179.449 277.752,186.516 278.382,190.216 276.571 C 195.208 274.126,195.150 261.894,190.136 259.799 C 187.813 258.829,180.199 258.984,178.400 260.039 M210.130 260.247 C 207.644 261.874,207.400 262.598,207.400 268.361 C 207.400 275.542,208.770 277.137,215.261 277.519 C 223.189 277.984,225.776 275.744,225.791 268.400 C 225.807 260.872,224.427 259.460,216.872 259.277 C 211.924 259.157,211.759 259.181,210.130 260.247 " stroke="none" fill="#1becac" fill-rule="evenodd"></path><path id="path2" d="M135.846 99.635 C 134.114 100.998,133.600 102.447,133.600 105.970 L 133.600 109.181 126.900 109.301 L 120.200 109.421 127.100 109.510 L 134.000 109.600 134.000 106.180 C 134.000 101.128,134.993 99.597,138.554 99.162 L 140.600 98.913 138.754 98.856 C 137.426 98.816,136.610 99.034,135.846 99.635 M176.661 99.100 C 176.558 99.265,177.416 99.340,178.567 99.267 C 180.349 99.154,180.864 99.294,182.030 100.212 L 183.400 101.291 182.094 100.045 C 180.812 98.823,177.221 98.198,176.661 99.100 M215.553 100.353 L 214.000 101.906 214.000 105.553 L 214.000 109.200 199.000 109.200 L 184.000 109.200 183.994 105.900 C 183.991 104.085,183.794 102.330,183.556 102.000 C 183.197 101.501,183.165 101.523,183.362 102.133 C 183.493 102.536,183.600 104.381,183.600 106.233 L 183.600 109.600 199.000 109.600 L 214.400 109.600 214.400 105.760 C 214.400 100.955,215.618 99.200,218.954 99.200 C 222.282 99.200,223.348 100.638,223.597 105.464 L 223.800 109.400 238.700 109.407 L 253.600 109.415 238.839 109.303 L 224.077 109.190 223.938 105.495 C 223.695 99.000,219.486 96.420,215.553 100.353 M257.062 99.100 C 256.960 99.265,257.922 99.400,259.200 99.400 C 260.478 99.400,261.440 99.265,261.338 99.100 C 261.236 98.935,260.274 98.800,259.200 98.800 C 258.126 98.800,257.164 98.935,257.062 99.100 M174.829 100.654 C 174.373 101.234,174.015 101.999,174.032 102.354 C 174.053 102.756,174.242 102.606,174.532 101.958 C 174.790 101.385,175.247 100.620,175.549 100.258 C 175.851 99.896,175.999 99.600,175.878 99.600 C 175.757 99.600,175.285 100.074,174.829 100.654 M262.606 100.512 C 262.992 101.124,263.409 101.524,263.532 101.401 C 263.655 101.278,263.339 100.778,262.830 100.289 L 261.904 99.400 262.606 100.512 M254.249 102.215 C 254.112 102.573,254.032 104.426,254.071 106.333 L 254.143 109.800 254.378 105.800 C 254.632 101.467,254.624 101.239,254.249 102.215 M143.264 105.700 C 143.229 107.845,143.335 109.600,143.500 109.601 C 143.665 109.601,143.750 108.386,143.690 106.901 C 143.496 102.155,143.330 101.687,143.264 105.700 M263.762 102.533 C 263.893 102.936,264.000 104.691,264.000 106.433 L 264.000 109.600 270.500 109.614 C 274.418 109.623,278.008 109.844,279.538 110.172 C 280.935 110.472,281.925 110.581,281.738 110.415 C 280.948 109.709,276.251 109.200,270.533 109.200 L 264.400 109.200 264.394 106.100 C 264.391 104.395,264.194 102.730,263.956 102.400 C 263.597 101.901,263.565 101.923,263.762 102.533 M151.526 109.500 C 155.555 109.565,162.035 109.565,165.926 109.499 C 169.817 109.434,166.520 109.380,158.600 109.381 C 150.680 109.381,147.497 109.434,151.526 109.500 M112.200 112.046 C 108.393 113.972,104.780 117.167,103.094 120.100 C 102.541 121.061,102.528 121.139,103.042 120.400 C 104.880 117.760,109.541 113.741,112.411 112.322 C 114.055 111.509,115.220 110.841,115.000 110.838 C 114.780 110.835,113.520 111.378,112.200 112.046 M284.800 111.774 C 284.800 111.856,285.801 112.489,287.025 113.179 C 288.249 113.870,290.443 115.628,291.901 117.086 C 293.359 118.545,294.166 119.194,293.693 118.530 C 291.900 116.013,284.800 110.619,284.800 111.774 M295.237 121.200 C 296.396 122.996,296.400 123.001,296.398 122.567 C 296.397 122.365,295.932 121.660,295.365 121.000 L 294.334 119.800 295.237 121.200 M101.180 123.239 C 100.720 124.140,100.413 124.946,100.497 125.030 C 100.581 125.114,101.041 124.376,101.519 123.391 C 102.609 121.147,102.315 121.015,101.180 123.239 M296.867 124.420 C 297.101 125.092,297.367 125.567,297.457 125.476 C 297.656 125.278,296.901 123.200,296.631 123.200 C 296.527 123.200,296.633 123.749,296.867 124.420 M99.631 127.062 C 99.397 127.908,99.219 128.960,99.236 129.400 C 99.254 129.840,99.507 129.210,99.800 128.000 C 100.408 125.484,100.275 124.744,99.631 127.062 M297.859 127.000 C 298.385 129.334,298.809 130.301,298.561 128.600 C 298.432 127.720,298.161 126.730,297.958 126.400 C 297.711 125.998,297.678 126.197,297.859 127.000 M298.895 147.099 L 298.800 163.998 198.900 164.100 L 99.000 164.202 198.913 164.301 C 278.574 164.380,298.864 164.299,299.017 163.900 C 299.123 163.625,299.160 155.930,299.100 146.800 L 298.991 130.200 298.895 147.099 M298.703 228.264 C 298.793 278.190,298.730 285.578,298.195 287.885 C 297.859 289.333,297.660 290.594,297.754 290.687 C 297.847 290.780,298.210 289.593,298.562 288.049 C 299.248 285.032,299.576 171.880,298.900 171.462 C 298.735 171.360,298.646 196.921,298.703 228.264 M182.700 202.295 C 183.855 202.376,185.745 202.376,186.900 202.295 C 188.055 202.214,187.110 202.148,184.800 202.148 C 182.490 202.148,181.545 202.214,182.700 202.295 M215.113 202.295 C 216.276 202.376,218.076 202.376,219.113 202.293 C 220.151 202.211,219.200 202.145,217.000 202.146 C 214.800 202.147,213.951 202.214,215.113 202.295 M246.713 202.295 C 247.876 202.376,249.676 202.376,250.713 202.293 C 251.751 202.211,250.800 202.145,248.600 202.146 C 246.400 202.147,245.551 202.214,246.713 202.295 M177.047 204.401 C 176.251 205.282,175.601 206.227,175.601 206.501 C 175.602 206.776,175.941 206.445,176.355 205.768 C 176.768 205.090,177.622 204.150,178.253 203.680 C 178.884 203.210,179.196 202.820,178.947 202.813 C 178.697 202.806,177.842 203.521,177.047 204.401 M209.687 203.900 C 208.730 204.835,208.714 204.881,209.581 204.206 C 211.288 202.876,211.369 202.800,211.086 202.800 C 210.936 202.800,210.306 203.295,209.687 203.900 M241.287 203.900 C 240.330 204.835,240.314 204.881,241.181 204.206 C 242.888 202.876,242.969 202.800,242.686 202.800 C 242.536 202.800,241.906 203.295,241.287 203.900 M254.600 203.268 C 255.040 203.512,255.679 203.912,256.020 204.156 C 256.360 204.400,256.215 204.195,255.697 203.700 C 255.179 203.205,254.540 202.805,254.278 202.812 C 254.015 202.819,254.160 203.024,254.600 203.268 M192.362 204.329 C 192.605 204.784,193.001 205.277,193.242 205.426 C 193.556 205.620,193.554 205.462,193.238 204.871 C 192.995 204.416,192.599 203.923,192.358 203.774 C 192.044 203.580,192.046 203.738,192.362 204.329 M257.267 206.420 C 257.501 207.092,257.767 207.567,257.857 207.476 C 258.056 207.278,257.301 205.200,257.031 205.200 C 256.927 205.200,257.033 205.749,257.267 206.420 M175.350 211.400 C 175.351 213.820,175.416 214.758,175.496 213.485 C 175.576 212.212,175.575 210.232,175.494 209.085 C 175.414 207.938,175.349 208.980,175.350 211.400 M207.344 211.600 C 207.344 213.690,207.412 214.545,207.494 213.500 C 207.576 212.455,207.576 210.745,207.494 209.700 C 207.412 208.655,207.344 209.510,207.344 211.600 M238.942 211.400 C 238.941 213.380,239.008 214.240,239.092 213.312 C 239.176 212.384,239.177 210.764,239.095 209.712 C 239.012 208.660,238.943 209.420,238.942 211.400 M257.267 216.780 C 257.033 217.451,256.927 218.000,257.031 218.000 C 257.301 218.000,258.056 215.922,257.857 215.724 C 257.767 215.633,257.501 216.108,257.267 216.780 M176.009 217.459 C 176.000 217.937,178.615 220.407,179.114 220.391 C 179.271 220.386,178.970 220.051,178.444 219.647 C 177.918 219.243,177.157 218.482,176.753 217.956 C 176.349 217.430,176.014 217.206,176.009 217.459 M208.998 218.737 C 209.434 219.252,210.153 219.859,210.596 220.086 C 211.445 220.521,211.321 220.387,209.403 218.794 C 208.248 217.835,208.234 217.833,208.998 218.737 M240.767 218.945 C 241.300 219.601,242.800 220.593,242.800 220.289 C 242.800 220.213,242.215 219.722,241.500 219.199 C 240.696 218.610,240.416 218.513,240.767 218.945 M182.300 220.696 C 183.675 220.774,185.925 220.774,187.300 220.696 C 188.675 220.618,187.550 220.554,184.800 220.554 C 182.050 220.554,180.925 220.618,182.300 220.696 M214.517 220.697 C 216.011 220.774,218.351 220.774,219.717 220.696 C 221.082 220.618,219.860 220.555,217.000 220.555 C 214.140 220.556,213.022 220.620,214.517 220.697 M246.117 220.697 C 247.611 220.774,249.951 220.774,251.317 220.696 C 252.682 220.618,251.460 220.555,248.600 220.555 C 245.740 220.556,244.622 220.620,246.117 220.697 M150.900 231.094 C 151.945 231.176,153.655 231.176,154.700 231.094 C 155.745 231.012,154.890 230.944,152.800 230.944 C 150.710 230.944,149.855 231.012,150.900 231.094 M182.900 231.094 C 183.945 231.176,185.655 231.176,186.700 231.094 C 187.745 231.012,186.890 230.944,184.800 230.944 C 182.710 230.944,181.855 231.012,182.900 231.094 M214.500 231.094 C 215.545 231.176,217.255 231.176,218.300 231.094 C 219.345 231.012,218.490 230.944,216.400 230.944 C 214.310 230.944,213.455 231.012,214.500 231.094 M246.912 231.095 C 247.964 231.177,249.584 231.176,250.512 231.092 C 251.440 231.008,250.580 230.941,248.600 230.942 C 246.620 230.943,245.860 231.012,246.912 231.095 M146.300 231.903 C 145.695 232.278,145.200 232.752,145.200 232.955 C 145.200 233.158,145.515 233.051,145.900 232.718 C 146.285 232.385,146.960 231.912,147.400 231.668 C 147.840 231.424,148.020 231.224,147.800 231.223 C 147.580 231.222,146.905 231.528,146.300 231.903 M254.200 231.866 C 254.860 232.215,255.757 232.793,256.193 233.150 C 256.942 233.764,256.955 233.760,256.422 233.074 C 255.857 232.346,253.920 231.186,253.320 231.216 C 253.144 231.225,253.540 231.517,254.200 231.866 M208.778 233.100 L 207.400 234.600 208.996 233.200 C 209.873 232.430,210.668 231.755,210.762 231.700 C 210.856 231.645,210.759 231.600,210.545 231.600 C 210.332 231.600,209.537 232.275,208.778 233.100 M240.975 232.900 L 239.800 234.200 241.198 233.000 C 241.967 232.340,242.672 231.755,242.765 231.700 C 242.857 231.645,242.757 231.600,242.542 231.600 C 242.326 231.600,241.621 232.185,240.975 232.900 M192.663 233.400 C 193.121 234.060,193.625 235.019,193.784 235.530 C 193.943 236.042,194.162 236.371,194.271 236.263 C 194.565 235.968,193.224 233.315,192.479 232.718 C 192.048 232.373,192.110 232.601,192.663 233.400 M143.473 235.353 C 143.323 235.745,143.211 236.366,143.225 236.733 C 143.242 237.175,143.381 237.074,143.637 236.434 C 143.849 235.903,143.961 235.282,143.885 235.054 C 143.809 234.827,143.624 234.961,143.473 235.353 M161.912 238.737 C 162.086 244.739,162.266 245.455,162.330 240.400 C 162.362 237.870,162.256 235.592,162.094 235.337 C 161.932 235.082,161.850 236.612,161.912 238.737 M225.444 235.800 C 225.773 237.271,226.002 237.590,225.994 236.567 C 225.991 236.145,225.805 235.530,225.582 235.200 C 225.285 234.762,225.248 234.924,225.444 235.800 M207.049 235.815 C 206.912 236.173,206.833 238.296,206.874 240.533 L 206.948 244.600 207.175 240.000 C 207.422 234.995,207.418 234.856,207.049 235.815 M175.350 240.200 C 175.351 242.620,175.416 243.558,175.496 242.285 C 175.576 241.012,175.575 239.032,175.494 237.885 C 175.414 236.738,175.349 237.780,175.350 240.200 M238.942 240.200 C 238.941 242.180,239.008 243.040,239.092 242.112 C 239.176 241.184,239.177 239.564,239.095 238.512 C 239.012 237.460,238.943 238.220,238.942 240.200 M143.206 243.833 C 143.209 244.255,143.395 244.870,143.618 245.200 C 143.915 245.638,143.952 245.476,143.756 244.600 C 143.427 243.129,143.198 242.810,143.206 243.833 M225.654 243.867 C 225.625 244.344,225.496 245.064,225.370 245.467 C 225.152 246.161,225.164 246.162,225.596 245.488 C 225.847 245.097,225.975 244.377,225.881 243.888 C 225.709 243.001,225.709 243.001,225.654 243.867 M193.378 245.777 C 192.925 246.753,192.702 247.461,192.880 247.350 C 193.375 247.045,194.465 244.796,194.324 244.374 C 194.256 244.170,193.830 244.801,193.378 245.777 M144.299 246.604 C 144.763 247.479,146.345 249.030,146.502 248.764 C 146.556 248.674,145.986 247.970,145.236 247.200 C 144.486 246.430,144.065 246.162,144.299 246.604 M160.873 246.831 C 160.601 247.268,159.797 247.979,159.089 248.411 C 158.380 248.843,158.028 249.198,158.306 249.199 C 158.929 249.200,161.880 246.546,161.584 246.250 C 161.466 246.133,161.146 246.394,160.873 246.831 M224.349 247.065 C 224.047 247.430,223.260 248.060,222.600 248.463 C 221.940 248.867,221.628 249.198,221.906 249.199 C 222.408 249.200,225.629 246.432,225.149 246.411 C 225.011 246.405,224.651 246.699,224.349 247.065 M150.300 249.496 C 151.675 249.574,153.925 249.574,155.300 249.496 C 156.675 249.418,155.550 249.354,152.800 249.354 C 150.050 249.354,148.925 249.418,150.300 249.496 M182.300 249.496 C 183.675 249.574,185.925 249.574,187.300 249.496 C 188.675 249.418,187.550 249.354,184.800 249.354 C 182.050 249.354,180.925 249.418,182.300 249.496 M213.900 249.496 C 215.275 249.574,217.525 249.574,218.900 249.496 C 220.275 249.418,219.150 249.354,216.400 249.354 C 213.650 249.354,212.525 249.418,213.900 249.496 M246.117 249.497 C 247.611 249.574,249.951 249.574,251.317 249.496 C 252.682 249.418,251.460 249.355,248.600 249.355 C 245.740 249.356,244.622 249.420,246.117 249.497 M150.700 259.095 C 151.855 259.176,153.745 259.176,154.900 259.095 C 156.055 259.014,155.110 258.948,152.800 258.948 C 150.490 258.948,149.545 259.014,150.700 259.095 M182.300 259.095 C 183.455 259.176,185.345 259.176,186.500 259.095 C 187.655 259.014,186.710 258.948,184.400 258.948 C 182.090 258.948,181.145 259.014,182.300 259.095 M214.300 259.095 C 215.455 259.176,217.345 259.176,218.500 259.095 C 219.655 259.014,218.710 258.948,216.400 258.948 C 214.090 258.948,213.145 259.014,214.300 259.095 M177.800 260.000 C 176.236 261.036,176.792 261.037,178.490 260.001 C 179.211 259.562,179.620 259.204,179.400 259.204 C 179.180 259.205,178.460 259.563,177.800 260.000 M209.903 260.100 C 209.385 260.595,209.240 260.800,209.580 260.556 C 209.921 260.312,210.560 259.912,211.000 259.668 C 211.440 259.424,211.585 259.219,211.322 259.212 C 211.060 259.205,210.421 259.605,209.903 260.100 M191.999 261.100 C 192.522 261.815,193.013 262.400,193.089 262.400 C 193.393 262.400,192.401 260.900,191.745 260.367 C 191.313 260.016,191.410 260.296,191.999 261.100 M224.092 261.200 C 224.664 261.970,225.311 263.230,225.530 264.000 C 225.749 264.770,225.944 265.067,225.964 264.660 C 226.014 263.627,224.906 261.414,223.898 260.536 C 223.233 259.958,223.275 260.100,224.092 261.200 M144.911 260.900 C 144.230 261.781,143.917 262.630,144.570 261.824 C 144.917 261.397,145.425 260.904,145.700 260.730 C 146.027 260.522,146.044 260.410,145.749 260.406 C 145.501 260.403,145.124 260.625,144.911 260.900 M160.000 260.854 C 160.330 261.154,160.859 261.670,161.175 262.000 C 161.621 262.465,161.614 262.380,161.141 261.622 C 160.806 261.084,160.277 260.568,159.966 260.476 C 159.510 260.341,159.517 260.415,160.000 260.854 M143.449 263.415 C 143.312 263.773,143.216 264.456,143.236 264.933 C 143.262 265.547,143.385 265.408,143.659 264.456 C 144.057 263.072,143.894 262.258,143.449 263.415 M161.912 266.737 C 162.086 272.739,162.266 273.455,162.330 268.400 C 162.362 265.870,162.256 263.592,162.094 263.337 C 161.932 263.082,161.850 264.612,161.912 266.737 M175.052 263.700 C 174.710 264.977,174.753 272.507,175.106 273.062 C 175.268 273.316,175.400 271.111,175.400 268.162 C 175.400 262.334,175.404 262.387,175.052 263.700 M207.056 263.684 C 206.921 264.188,206.840 266.400,206.876 268.600 L 206.940 272.600 207.187 267.800 C 207.450 262.664,207.438 262.261,207.056 263.684 M193.753 268.200 C 193.753 270.840,193.818 271.868,193.897 270.484 C 193.975 269.101,193.974 266.941,193.895 265.684 C 193.816 264.428,193.752 265.560,193.753 268.200 M143.206 271.633 C 143.209 272.165,143.389 272.870,143.606 273.200 C 143.882 273.622,143.923 273.385,143.742 272.400 C 143.425 270.675,143.198 270.349,143.206 271.633 M225.632 271.920 C 225.555 274.160,223.763 276.185,221.132 277.006 C 220.180 277.303,219.721 277.559,220.113 277.573 C 222.855 277.676,226.713 273.618,225.871 271.517 C 225.757 271.233,225.649 271.414,225.632 271.920 M193.200 273.503 C 193.200 274.496,191.028 276.430,189.266 277.005 C 187.717 277.511,187.638 277.579,188.800 277.403 C 190.865 277.090,194.266 274.133,193.473 273.340 C 193.323 273.190,193.200 273.263,193.200 273.503 M144.364 274.733 C 144.580 275.136,145.071 275.721,145.455 276.033 C 145.887 276.384,145.790 276.104,145.201 275.300 C 144.151 273.865,143.757 273.598,144.364 274.733 M160.434 275.353 L 159.469 276.600 160.613 275.512 C 161.243 274.914,161.677 274.353,161.579 274.265 C 161.480 274.177,160.965 274.667,160.434 275.353 M176.418 275.422 C 176.702 275.764,177.309 276.239,177.767 276.478 C 178.364 276.788,178.282 276.612,177.479 275.856 C 176.253 274.701,175.597 274.432,176.418 275.422 M156.800 277.200 C 155.976 277.464,155.941 277.526,156.600 277.554 C 157.040 277.573,157.670 277.413,158.000 277.200 C 158.701 276.747,158.214 276.747,156.800 277.200 M179.200 277.182 C 179.530 277.405,180.145 277.591,180.567 277.594 C 181.590 277.602,181.271 277.373,179.800 277.044 C 178.924 276.848,178.762 276.885,179.200 277.182 M211.200 277.182 C 211.530 277.405,212.145 277.591,212.567 277.594 C 213.590 277.602,213.271 277.373,211.800 277.044 C 210.924 276.848,210.762 276.885,211.200 277.182 M99.634 289.400 C 99.622 289.840,99.787 290.470,100.000 290.800 C 100.514 291.595,100.514 290.596,100.000 289.400 L 99.656 288.600 99.634 289.400 M296.865 292.217 C 296.195 293.688,296.323 294.002,297.047 292.665 C 297.386 292.040,297.588 291.454,297.496 291.363 C 297.405 291.271,297.121 291.656,296.865 292.217 M100.400 291.749 C 100.400 292.181,101.989 295.200,102.216 295.200 C 102.326 295.200,102.030 294.435,101.559 293.500 C 100.632 291.661,100.400 291.311,100.400 291.749 M295.263 295.383 C 294.803 296.162,294.499 296.800,294.586 296.800 C 294.899 296.800,296.483 294.350,296.293 294.160 C 296.186 294.053,295.723 294.604,295.263 295.383 M102.421 295.760 C 102.359 296.817,108.116 302.672,110.158 303.629 C 110.736 303.899,110.686 303.806,110.000 303.332 C 108.655 302.401,103.923 297.647,103.101 296.400 C 102.738 295.850,102.433 295.562,102.421 295.760 M292.000 299.548 C 290.790 300.821,288.812 302.524,287.605 303.332 C 286.398 304.139,285.556 304.800,285.733 304.800 C 286.742 304.800,292.241 300.308,293.644 298.338 C 294.817 296.691,294.477 296.941,292.000 299.548 M111.776 304.582 C 112.798 305.395,116.264 306.679,118.233 306.973 C 119.171 307.113,118.704 306.882,117.072 306.397 C 115.571 305.952,113.591 305.222,112.672 304.776 C 111.649 304.279,111.301 304.204,111.776 304.582 M279.000 306.800 C 277.981 307.238,279.032 307.238,280.400 306.800 C 281.204 306.543,281.243 306.477,280.600 306.468 C 280.160 306.462,279.440 306.611,279.000 306.800 " stroke="none" fill="#73f3cb" fill-rule="evenodd"></path><path id="path3" d="M135.722 100.229 L 134.600 101.258 135.900 100.354 C 136.615 99.857,137.200 99.393,137.200 99.325 C 137.200 99.009,136.758 99.280,135.722 100.229 M140.941 100.025 C 141.518 100.479,142.262 101.239,142.595 101.714 C 142.928 102.189,143.200 102.379,143.200 102.136 C 143.200 101.603,140.803 99.200,140.270 99.200 C 140.062 99.200,140.364 99.571,140.941 100.025 M175.722 100.187 C 175.105 100.730,174.825 101.180,175.100 101.187 C 175.375 101.194,175.600 101.026,175.600 100.813 C 175.600 100.600,176.095 100.157,176.700 99.829 C 177.305 99.501,177.585 99.225,177.322 99.216 C 177.060 99.207,176.340 99.644,175.722 100.187 M181.646 100.499 C 182.391 101.261,183.074 101.821,183.164 101.744 C 183.404 101.540,181.934 99.993,181.050 99.520 C 180.633 99.297,180.901 99.737,181.646 100.499 M215.760 100.560 C 214.402 101.918,214.400 101.926,214.400 105.760 L 214.400 109.600 199.015 109.600 L 183.630 109.600 183.490 105.900 L 183.350 102.200 183.375 106.000 L 183.400 109.800 199.000 109.800 L 214.600 109.800 214.800 105.655 L 215.000 101.509 216.385 100.355 C 217.147 99.720,217.624 99.200,217.445 99.200 C 217.266 99.200,216.508 99.812,215.760 100.560 M255.907 100.367 C 255.188 101.009,254.690 101.594,254.800 101.667 C 254.910 101.740,255.602 101.215,256.337 100.500 C 258.000 98.884,257.678 98.784,255.907 100.367 M222.034 100.647 C 222.565 101.333,223.080 101.823,223.179 101.735 C 223.277 101.647,222.843 101.086,222.213 100.488 L 221.069 99.400 222.034 100.647 M263.175 102.126 C 263.409 102.745,263.600 104.686,263.600 106.439 C 263.600 110.281,262.759 109.924,272.200 110.082 C 276.380 110.152,279.260 110.093,278.600 109.952 C 277.940 109.810,274.402 109.673,270.739 109.647 L 264.077 109.600 263.939 105.819 C 263.850 103.394,263.612 101.853,263.275 101.519 C 262.842 101.091,262.824 101.197,263.175 102.126 M134.249 102.215 C 134.112 102.573,134.032 104.336,134.070 106.133 L 134.140 109.400 134.379 105.600 C 134.636 101.490,134.626 101.233,134.249 102.215 M174.249 102.615 C 174.112 102.973,174.000 104.689,174.000 106.428 L 174.000 109.591 158.700 109.702 L 143.400 109.814 158.800 109.807 L 174.200 109.800 174.408 106.000 C 174.635 101.877,174.623 101.641,174.249 102.615 M223.367 106.000 L 223.400 109.800 239.000 109.800 L 254.600 109.800 254.625 106.000 L 254.650 102.200 254.510 105.905 L 254.370 109.609 239.085 109.505 L 223.800 109.400 223.567 105.800 L 223.335 102.200 223.367 106.000 M119.000 109.961 C 117.848 110.216,131.759 110.095,133.400 109.836 C 133.840 109.766,131.050 109.706,127.200 109.702 C 123.350 109.698,119.660 109.814,119.000 109.961 M114.600 111.374 C 111.982 112.635,112.380 112.652,115.400 111.408 C 116.720 110.864,117.530 110.417,117.200 110.415 C 116.870 110.412,115.700 110.844,114.600 111.374 M281.800 111.152 C 282.900 111.551,284.160 112.022,284.600 112.198 C 285.132 112.411,285.266 112.384,285.000 112.119 C 284.453 111.574,281.343 110.397,280.492 110.413 C 280.111 110.420,280.700 110.753,281.800 111.152 M109.800 113.795 C 108.700 114.545,106.900 116.112,105.800 117.279 L 103.800 119.400 106.000 117.350 C 107.210 116.223,109.188 114.648,110.395 113.850 C 111.602 113.053,112.412 112.407,112.195 112.416 C 111.978 112.425,110.900 113.046,109.800 113.795 M286.600 113.065 C 287.622 114.033,290.133 115.671,289.527 114.974 C 289.157 114.548,288.257 113.859,287.527 113.443 C 286.797 113.027,286.380 112.857,286.600 113.065 M292.029 117.496 C 293.003 118.649,294.475 120.707,295.300 122.069 C 296.125 123.431,296.800 124.347,296.800 124.106 C 296.800 123.385,292.968 117.893,291.562 116.600 C 290.602 115.716,290.725 115.953,292.029 117.496 M100.446 125.639 C 100.201 126.343,100.013 127.118,100.028 127.360 C 100.044 127.602,100.314 127.096,100.630 126.235 C 100.945 125.374,101.133 124.600,101.048 124.515 C 100.962 124.429,100.692 124.935,100.446 125.639 M99.654 128.667 C 99.625 129.144,99.496 129.864,99.370 130.267 C 99.152 130.961,99.164 130.962,99.596 130.288 C 99.847 129.897,99.975 129.177,99.881 128.688 C 99.709 127.801,99.709 127.801,99.654 128.667 M298.006 129.033 C 298.009 129.455,298.195 130.070,298.418 130.400 C 298.715 130.838,298.752 130.676,298.556 129.800 C 298.227 128.329,297.998 128.010,298.006 129.033 M149.332 171.500 C 176.795 171.557,221.615 171.557,248.932 171.500 C 276.249 171.443,253.780 171.397,199.000 171.397 C 144.220 171.397,121.869 171.443,149.332 171.500 M211.000 202.467 C 209.828 203.115,208.386 204.484,207.912 205.400 C 207.684 205.840,208.106 205.516,208.849 204.679 C 209.592 203.843,210.920 202.906,211.800 202.597 C 212.680 202.288,213.040 202.033,212.600 202.030 C 212.160 202.027,211.440 202.223,211.000 202.467 M242.600 202.466 C 241.529 203.056,239.600 204.867,239.600 205.281 C 239.600 205.463,240.095 205.062,240.700 204.390 C 241.305 203.717,242.520 202.912,243.400 202.601 C 244.280 202.290,244.640 202.033,244.200 202.030 C 243.760 202.027,243.040 202.223,242.600 202.466 M253.000 202.400 C 254.101 202.873,254.492 202.873,254.200 202.400 C 254.064 202.180,253.558 202.013,253.076 202.028 C 252.231 202.055,252.229 202.069,253.000 202.400 M176.975 204.100 L 175.800 205.400 177.100 204.225 C 178.312 203.130,178.584 202.800,178.275 202.800 C 178.206 202.800,177.621 203.385,176.975 204.100 M223.800 203.368 C 224.240 203.729,224.937 204.423,225.349 204.912 L 226.098 205.800 225.520 204.829 C 225.202 204.295,224.505 203.601,223.971 203.286 C 223.045 202.739,223.037 202.743,223.800 203.368 M256.399 204.300 C 256.922 205.015,257.413 205.600,257.489 205.600 C 257.793 205.600,256.801 204.100,256.145 203.567 C 255.713 203.216,255.810 203.496,256.399 204.300 M226.200 211.398 C 226.200 214.327,226.335 216.639,226.500 216.538 C 226.887 216.299,226.882 207.148,226.494 206.537 C 226.332 206.283,226.200 208.470,226.200 211.398 M257.800 211.398 C 257.800 214.327,257.935 216.639,258.100 216.538 C 258.487 216.299,258.482 207.148,258.094 206.537 C 257.932 206.283,257.800 208.470,257.800 211.398 M207.050 207.650 C 206.735 209.225,206.794 214.697,207.140 215.924 C 207.283 216.432,207.400 214.497,207.400 211.624 C 207.400 205.848,207.403 205.884,207.050 207.650 M194.550 211.400 C 194.551 213.820,194.616 214.758,194.696 213.485 C 194.776 212.212,194.775 210.232,194.694 209.085 C 194.614 207.938,194.549 208.980,194.550 211.400 M174.934 211.600 C 174.934 213.250,175.005 213.925,175.091 213.100 C 175.178 212.275,175.178 210.925,175.091 210.100 C 175.005 209.275,174.934 209.950,174.934 211.600 M238.800 215.776 C 238.800 216.313,238.947 216.844,239.128 216.955 C 239.308 217.067,239.377 216.627,239.282 215.979 C 239.072 214.549,238.800 214.435,238.800 215.776 M192.629 218.762 L 191.458 220.200 192.809 218.913 C 193.551 218.205,194.078 217.558,193.979 217.475 C 193.881 217.392,193.273 217.971,192.629 218.762 M207.914 217.804 C 208.141 218.247,208.748 218.966,209.263 219.402 C 210.167 220.166,210.165 220.152,209.206 218.997 C 207.613 217.079,207.479 216.955,207.914 217.804 M224.575 218.900 L 223.400 220.200 224.700 219.025 C 225.415 218.379,226.000 217.794,226.000 217.725 C 226.000 217.416,225.670 217.688,224.575 218.900 M239.600 217.930 C 239.600 218.112,240.079 218.697,240.663 219.230 L 241.727 220.200 240.788 218.900 C 239.812 217.548,239.600 217.375,239.600 217.930 M256.562 218.457 C 256.143 218.929,255.260 219.648,254.600 220.056 C 253.940 220.463,253.632 220.798,253.915 220.799 C 254.415 220.800,258.040 217.630,257.562 217.610 C 257.431 217.605,256.981 217.986,256.562 218.457 M178.720 220.475 C 179.100 220.858,180.741 221.000,184.800 221.000 C 188.859 221.000,190.500 220.858,190.880 220.475 C 191.309 220.042,191.203 220.024,190.274 220.375 C 189.655 220.609,187.191 220.800,184.800 220.800 C 182.409 220.800,179.945 220.609,179.326 220.375 C 178.397 220.024,178.291 220.042,178.720 220.475 M214.716 221.097 C 216.099 221.175,218.259 221.174,219.516 221.095 C 220.772 221.016,219.640 220.952,217.000 220.953 C 214.360 220.953,213.332 221.018,214.716 221.097 M246.316 221.097 C 247.699 221.175,249.859 221.174,251.116 221.095 C 252.372 221.016,251.240 220.952,248.600 220.953 C 245.960 220.953,244.932 221.018,246.316 221.097 M147.045 231.128 C 146.933 231.308,147.373 231.377,148.021 231.282 C 148.670 231.187,149.200 231.040,149.200 230.955 C 149.200 230.650,147.243 230.807,147.045 231.128 M156.400 230.955 C 156.400 231.040,156.930 231.187,157.579 231.282 C 158.227 231.377,158.667 231.308,158.555 231.128 C 158.357 230.807,156.400 230.650,156.400 230.955 M179.200 231.218 C 178.762 231.515,178.924 231.552,179.800 231.356 C 181.271 231.027,181.590 230.798,180.567 230.806 C 180.145 230.809,179.530 230.995,179.200 231.218 M188.400 230.955 C 188.400 231.040,188.930 231.187,189.579 231.282 C 190.227 231.377,190.667 231.308,190.555 231.128 C 190.357 230.807,188.400 230.650,188.400 230.955 M210.800 231.218 C 210.362 231.515,210.524 231.552,211.400 231.356 C 212.871 231.027,213.190 230.798,212.167 230.806 C 211.745 230.809,211.130 230.995,210.800 231.218 M220.000 230.955 C 220.000 231.040,220.530 231.187,221.179 231.282 C 221.827 231.377,222.267 231.308,222.155 231.128 C 221.957 230.807,220.000 230.650,220.000 230.955 M242.800 231.206 C 242.378 231.482,242.615 231.523,243.600 231.342 C 245.325 231.025,245.651 230.798,244.367 230.806 C 243.835 230.809,243.130 230.989,242.800 231.206 M252.000 230.955 C 252.000 231.040,252.530 231.187,253.179 231.282 C 253.827 231.377,254.267 231.308,254.155 231.128 C 253.957 230.807,252.000 230.650,252.000 230.955 M176.975 232.900 L 175.800 234.200 177.100 233.025 C 177.815 232.379,178.400 231.794,178.400 231.725 C 178.400 231.416,178.070 231.688,176.975 232.900 M208.575 232.900 L 207.400 234.200 208.700 233.025 C 209.415 232.379,210.000 231.794,210.000 231.725 C 210.000 231.416,209.670 231.688,208.575 232.900 M240.724 232.700 C 239.469 234.046,238.794 235.310,238.818 236.274 C 238.827 236.673,239.083 236.305,239.386 235.455 C 239.689 234.605,240.435 233.390,241.043 232.755 C 241.652 232.120,242.060 231.600,241.950 231.600 C 241.840 231.600,241.288 232.095,240.724 232.700 M256.157 232.949 C 256.840 233.692,257.477 234.230,257.571 234.145 C 257.777 233.960,255.563 231.600,255.182 231.600 C 255.034 231.600,255.473 232.207,256.157 232.949 M143.847 234.028 C 142.849 235.717,143.196 235.817,144.282 234.152 C 144.766 233.408,145.030 232.800,144.868 232.800 C 144.705 232.800,144.246 233.352,143.847 234.028 M160.803 232.890 C 160.801 233.050,161.159 233.770,161.599 234.490 C 162.038 235.211,162.396 235.620,162.396 235.400 C 162.395 235.180,162.037 234.460,161.600 233.800 C 161.163 233.140,160.804 232.731,160.803 232.890 M257.800 240.199 C 257.800 243.127,257.935 245.439,258.100 245.338 C 258.265 245.236,258.400 242.924,258.400 240.200 C 258.400 237.476,258.265 235.164,258.100 235.061 C 257.935 234.959,257.800 237.271,257.800 240.199 M194.550 240.200 C 194.551 242.620,194.616 243.558,194.696 242.285 C 194.776 241.012,194.775 239.032,194.694 237.885 C 194.614 236.738,194.549 237.780,194.550 240.200 M226.146 240.200 C 226.147 242.400,226.214 243.249,226.295 242.087 C 226.376 240.924,226.376 239.124,226.293 238.087 C 226.211 237.049,226.145 238.000,226.146 240.200 M162.542 240.200 C 162.541 242.180,162.608 243.040,162.692 242.112 C 162.776 241.184,162.777 239.564,162.695 238.512 C 162.612 237.460,162.543 238.220,162.542 240.200 M174.937 240.200 C 174.939 241.960,175.009 242.630,175.093 241.689 C 175.178 240.749,175.177 239.309,175.091 238.489 C 175.005 237.670,174.936 238.440,174.937 240.200 M238.800 244.576 C 238.800 245.113,238.947 245.644,239.128 245.755 C 239.308 245.867,239.377 245.427,239.282 244.779 C 239.072 243.349,238.800 243.235,238.800 244.576 M175.200 244.790 C 175.200 246.265,178.307 249.610,179.662 249.593 C 179.958 249.590,179.494 249.185,178.630 248.693 C 177.651 248.136,176.710 247.136,176.130 246.037 C 175.619 245.067,175.200 244.506,175.200 244.790 M206.800 244.753 C 206.799 246.259,209.883 249.606,211.262 249.596 C 211.558 249.594,211.055 249.146,210.143 248.599 C 209.091 247.969,208.179 246.985,207.644 245.903 C 207.180 244.966,206.800 244.449,206.800 244.753 M225.600 245.519 C 225.600 245.768,225.022 246.653,224.315 247.486 C 223.163 248.843,223.146 248.896,224.151 248.000 C 225.417 246.872,226.180 245.646,225.832 245.299 C 225.705 245.171,225.600 245.270,225.600 245.519 M256.229 247.562 L 255.058 249.000 256.409 247.713 C 257.151 247.005,257.678 246.358,257.579 246.275 C 257.481 246.192,256.873 246.771,256.229 247.562 M239.987 247.091 C 240.224 247.581,240.819 248.176,241.309 248.413 C 242.138 248.814,242.149 248.803,241.468 248.254 C 241.065 247.930,240.470 247.335,240.146 246.932 C 239.597 246.251,239.586 246.262,239.987 247.091 M150.915 249.896 C 152.188 249.976,154.168 249.975,155.315 249.894 C 156.462 249.814,155.420 249.749,153.000 249.750 C 150.580 249.751,149.642 249.816,150.915 249.896 M182.915 249.896 C 184.188 249.976,186.168 249.975,187.315 249.894 C 188.462 249.814,187.420 249.749,185.000 249.750 C 182.580 249.751,181.642 249.816,182.915 249.896 M214.515 249.896 C 215.788 249.976,217.768 249.975,218.915 249.894 C 220.062 249.814,219.020 249.749,216.600 249.750 C 214.180 249.751,213.242 249.816,214.515 249.896 M246.515 249.896 C 247.788 249.976,249.768 249.975,250.915 249.894 C 252.062 249.814,251.020 249.749,248.600 249.750 C 246.180 249.751,245.242 249.816,246.515 249.896 M148.315 258.728 C 147.938 258.878,149.956 259.000,152.800 259.000 C 155.644 259.000,157.662 258.878,157.285 258.728 C 156.908 258.579,154.890 258.456,152.800 258.456 C 150.710 258.456,148.692 258.579,148.315 258.728 M179.915 258.728 C 179.538 258.878,181.556 259.000,184.400 259.000 C 187.244 259.000,189.262 258.878,188.885 258.728 C 188.508 258.579,186.490 258.456,184.400 258.456 C 182.310 258.456,180.292 258.579,179.915 258.728 M211.915 258.728 C 211.538 258.878,213.556 259.000,216.400 259.000 C 219.244 259.000,221.262 258.878,220.885 258.728 C 220.508 258.579,218.490 258.456,216.400 258.456 C 214.310 258.456,212.292 258.579,211.915 258.728 M159.670 260.189 C 160.471 260.734,161.219 261.409,161.332 261.689 C 161.466 262.024,161.548 262.040,161.568 261.736 C 161.606 261.185,159.342 259.200,158.676 259.200 C 158.422 259.200,158.869 259.645,159.670 260.189 M191.065 259.974 C 191.761 260.398,192.520 261.073,192.753 261.473 C 192.985 261.873,193.181 261.991,193.188 261.736 C 193.203 261.174,190.928 259.199,190.269 259.201 C 190.011 259.202,190.369 259.550,191.065 259.974 M208.778 260.700 L 207.400 262.200 208.996 260.800 C 209.873 260.030,210.668 259.355,210.762 259.300 C 210.856 259.245,210.759 259.200,210.545 259.200 C 210.332 259.200,209.537 259.875,208.778 260.700 M222.400 259.311 C 222.400 259.387,222.985 259.878,223.700 260.401 C 224.504 260.990,224.784 261.087,224.433 260.655 C 223.900 259.999,222.400 259.007,222.400 259.311 M194.150 268.200 C 194.151 270.620,194.216 271.558,194.296 270.285 C 194.376 269.012,194.375 267.032,194.294 265.885 C 194.214 264.738,194.149 265.780,194.150 268.200 M174.548 268.400 C 174.548 270.710,174.614 271.655,174.695 270.500 C 174.776 269.345,174.776 267.455,174.695 266.300 C 174.614 265.145,174.548 266.090,174.548 268.400 M226.144 268.400 C 226.144 270.490,226.212 271.345,226.294 270.300 C 226.376 269.255,226.376 267.545,226.294 266.500 C 226.212 265.455,226.144 266.310,226.144 268.400 M162.540 268.400 C 162.540 270.270,162.609 271.035,162.693 270.100 C 162.777 269.165,162.777 267.635,162.693 266.700 C 162.609 265.765,162.540 266.530,162.540 268.400 M206.825 272.807 C 206.800 273.415,208.641 276.400,209.042 276.400 C 209.159 276.400,208.883 275.879,208.430 275.242 C 207.976 274.605,207.435 273.660,207.228 273.142 C 207.018 272.618,206.839 272.470,206.825 272.807 M223.941 275.696 C 223.139 276.523,222.609 277.200,222.763 277.200 C 223.128 277.200,225.799 274.446,225.573 274.302 C 225.478 274.242,224.744 274.869,223.941 275.696 M150.500 277.896 C 151.765 277.975,153.835 277.975,155.100 277.896 C 156.365 277.816,155.330 277.751,152.800 277.751 C 150.270 277.751,149.235 277.816,150.500 277.896 M182.515 277.896 C 183.788 277.976,185.768 277.975,186.915 277.894 C 188.062 277.814,187.020 277.749,184.600 277.750 C 182.180 277.751,181.242 277.816,182.515 277.896 M214.100 277.896 C 215.365 277.975,217.435 277.975,218.700 277.896 C 219.965 277.816,218.930 277.751,216.400 277.751 C 213.870 277.751,212.835 277.816,214.100 277.896 M298.233 285.633 C 298.083 286.766,298.041 287.774,298.139 287.872 C 298.237 287.971,298.445 287.128,298.600 286.000 C 298.755 284.872,298.798 283.864,298.694 283.761 C 298.591 283.658,298.384 284.500,298.233 285.633 M99.293 285.400 C 99.294 286.060,99.432 287.140,99.600 287.800 C 100.023 289.463,100.042 287.826,99.623 285.800 C 99.345 284.455,99.292 284.391,99.293 285.400 M294.023 296.700 C 293.291 297.745,293.031 298.297,293.446 297.927 C 294.171 297.280,295.799 294.800,295.500 294.800 C 295.420 294.800,294.755 295.655,294.023 296.700 M106.177 299.890 C 107.485 301.259,108.640 302.294,108.744 302.190 C 108.848 302.085,108.854 301.955,108.757 301.900 C 108.661 301.845,107.506 300.810,106.191 299.600 L 103.800 297.400 106.177 299.890 M291.375 300.100 L 290.200 301.400 291.500 300.225 C 292.712 299.130,292.984 298.800,292.675 298.800 C 292.606 298.800,292.021 299.385,291.375 300.100 M288.000 302.621 C 287.010 303.374,284.850 304.541,283.200 305.215 C 281.550 305.888,280.740 306.327,281.400 306.190 C 283.245 305.805,287.241 303.779,288.800 302.437 C 290.674 300.824,290.231 300.926,288.000 302.621 M113.200 305.000 C 113.750 305.314,114.380 305.572,114.600 305.572 C 114.820 305.572,114.550 305.314,114.000 305.000 C 113.450 304.686,112.820 304.428,112.600 304.428 C 112.380 304.428,112.650 304.686,113.200 305.000 M115.800 306.000 C 116.240 306.189,116.870 306.344,117.200 306.344 C 117.578 306.344,117.504 306.217,117.000 306.000 C 116.560 305.811,115.930 305.656,115.600 305.656 C 115.222 305.656,115.296 305.783,115.800 306.000 M118.876 306.860 C 120.111 307.208,278.009 307.220,278.885 306.872 C 279.262 306.722,243.206 306.600,198.761 306.600 C 154.317 306.600,118.368 306.717,118.876 306.860 " stroke="none" fill="#a7f7de" fill-rule="evenodd"></path><path id="path4" d="M51.096 0.784 C 48.831 1.223,48.783 1.640,51.032 1.348 C 53.104 1.078,54.927 0.394,53.400 0.458 C 52.960 0.477,51.923 0.623,51.096 0.784 M346.200 0.728 C 346.420 0.930,347.500 1.206,348.600 1.339 C 351.035 1.635,350.170 1.024,347.600 0.633 C 346.495 0.465,345.954 0.501,346.200 0.728 M46.800 2.000 C 46.800 2.506,47.617 2.506,48.400 2.000 C 48.868 1.698,48.757 1.611,47.900 1.606 C 47.295 1.603,46.800 1.780,46.800 2.000 M351.200 2.000 C 351.200 2.220,351.470 2.400,351.800 2.400 C 352.130 2.400,352.400 2.220,352.400 2.000 C 352.400 1.780,352.130 1.600,351.800 1.600 C 351.470 1.600,351.200 1.780,351.200 2.000 M43.700 2.812 C 43.205 3.011,42.800 3.273,42.800 3.395 C 42.800 3.703,44.918 3.172,45.380 2.748 C 45.872 2.297,44.888 2.335,43.700 2.812 M353.800 2.705 C 354.020 2.919,354.824 3.211,355.588 3.355 C 356.431 3.513,356.823 3.472,356.588 3.250 C 356.374 3.049,355.570 2.756,354.800 2.600 C 353.890 2.415,353.540 2.452,353.800 2.705 M38.700 4.676 C 38.315 4.776,38.000 5.038,38.000 5.256 C 38.000 5.691,39.562 5.332,40.180 4.755 C 40.580 4.382,39.954 4.348,38.700 4.676 M360.600 5.409 C 362.871 6.526,362.800 6.504,362.800 6.094 C 362.800 5.740,359.835 4.394,359.097 4.413 C 358.824 4.419,359.500 4.868,360.600 5.409 M34.700 6.676 C 34.315 6.776,34.000 7.032,34.000 7.243 C 34.000 7.465,34.382 7.430,34.900 7.160 C 36.400 6.379,36.345 6.246,34.700 6.676 M364.135 7.030 C 364.760 7.378,365.375 7.559,365.502 7.431 C 365.829 7.104,365.569 6.949,364.200 6.655 L 363.000 6.397 364.135 7.030 M367.626 9.031 C 368.154 9.668,368.800 9.786,368.800 9.247 C 368.800 9.052,368.430 8.796,367.977 8.678 C 367.302 8.502,367.239 8.565,367.626 9.031 M30.333 9.100 C 30.260 9.265,29.255 10.030,28.101 10.800 C 26.946 11.570,26.001 12.335,26.001 12.500 C 26.000 12.974,26.194 12.876,27.800 11.600 C 28.631 10.940,29.555 10.400,29.855 10.400 C 30.155 10.400,30.400 10.248,30.400 10.061 C 30.400 9.875,30.805 9.527,31.300 9.288 L 32.200 8.854 31.333 8.827 C 30.857 8.812,30.407 8.935,30.333 9.100 M369.200 10.000 C 369.200 10.220,369.392 10.400,369.627 10.400 C 369.861 10.400,370.643 10.850,371.364 11.400 C 372.930 12.594,373.707 12.732,372.492 11.600 C 372.020 11.160,371.523 10.800,371.388 10.800 C 371.253 10.800,370.873 10.530,370.543 10.200 C 369.855 9.512,369.200 9.414,369.200 10.000 M24.519 13.315 C 24.255 13.582,23.748 14.043,23.393 14.340 C 23.038 14.638,22.855 14.988,22.987 15.120 C 23.118 15.251,23.801 14.783,24.505 14.079 C 25.209 13.376,25.608 12.807,25.392 12.815 C 25.177 12.824,24.784 13.049,24.519 13.315 M375.033 14.160 C 375.895 14.908,376.672 15.451,376.761 15.366 C 376.978 15.158,374.297 12.814,373.833 12.806 C 373.632 12.803,374.172 13.412,375.033 14.160 M21.662 15.877 C 20.841 16.205,17.043 20.048,16.205 21.401 C 15.683 22.241,16.043 22.001,17.405 20.600 C 18.474 19.500,20.073 17.925,20.957 17.100 C 22.580 15.585,22.636 15.490,21.662 15.877 M377.200 15.729 C 377.200 15.800,378.692 17.375,380.515 19.229 C 382.338 21.083,384.326 23.208,384.931 23.950 C 385.537 24.693,386.118 25.216,386.221 25.112 C 386.452 24.881,384.350 22.461,380.518 18.545 C 377.959 15.931,377.200 15.286,377.200 15.729 M14.316 23.414 C 14.032 23.752,13.575 24.279,13.300 24.585 C 13.025 24.892,12.800 25.256,12.800 25.395 C 12.800 25.851,13.548 25.197,14.409 23.988 C 15.287 22.755,15.219 22.338,14.316 23.414 M10.900 27.829 C 10.185 28.785,9.600 29.739,9.600 29.950 C 9.600 30.161,9.393 30.402,9.140 30.487 C 8.887 30.571,8.762 30.887,8.863 31.189 C 8.972 31.515,9.588 30.854,10.375 29.569 C 11.107 28.376,11.883 27.286,12.101 27.146 C 12.319 27.007,12.431 26.712,12.349 26.492 C 12.267 26.272,11.615 26.874,10.900 27.829 M386.813 26.096 C 386.806 26.259,387.610 27.575,388.600 29.021 C 389.590 30.467,390.400 31.453,390.400 31.211 C 390.400 30.822,389.558 29.327,388.703 28.200 C 387.408 26.492,386.825 25.843,386.813 26.096 M6.800 34.367 C 6.800 34.569,6.679 35.049,6.532 35.433 C 6.364 35.872,6.420 36.035,6.684 35.872 C 7.237 35.530,7.628 34.000,7.163 34.000 C 6.963 34.000,6.800 34.165,6.800 34.367 M392.413 35.500 C 392.420 35.665,392.714 36.160,393.067 36.600 C 393.630 37.303,393.677 37.311,393.454 36.667 C 393.314 36.264,393.200 35.769,393.200 35.567 C 393.200 35.365,393.020 35.200,392.800 35.200 C 392.580 35.200,392.406 35.335,392.413 35.500 M5.075 38.047 C 4.522 39.323,4.385 40.824,4.900 39.967 C 5.520 38.933,6.400 37.057,6.400 36.768 C 6.400 35.885,5.732 36.530,5.075 38.047 M394.718 40.568 C 395.069 41.343,395.405 41.928,395.465 41.868 C 395.721 41.613,394.917 39.439,394.518 39.306 C 394.259 39.220,394.341 39.738,394.718 40.568 M3.600 41.920 C 3.600 42.316,3.443 42.811,3.252 43.020 C 2.689 43.634,2.339 45.600,2.792 45.600 C 3.017 45.600,3.200 45.071,3.200 44.424 C 3.200 43.777,3.358 43.149,3.552 43.030 C 4.055 42.719,4.396 41.200,3.963 41.200 C 3.763 41.200,3.600 41.524,3.600 41.920 M396.662 45.600 C 396.798 46.370,397.073 47.270,397.272 47.600 C 397.744 48.381,397.242 45.631,396.761 44.800 C 396.545 44.427,396.507 44.729,396.662 45.600 M1.628 47.900 C 1.653 48.875,1.695 48.909,2.000 48.200 C 2.469 47.107,2.469 46.800,2.000 46.800 C 1.780 46.800,1.613 47.295,1.628 47.900 M1.049 49.815 C 0.912 50.173,0.816 50.856,0.836 51.333 C 0.862 51.947,0.985 51.808,1.259 50.856 C 1.657 49.472,1.494 48.658,1.049 49.815 M397.628 49.500 C 397.738 50.673,398.346 51.326,398.372 50.300 C 398.387 49.695,398.220 49.200,398.000 49.200 C 397.780 49.200,397.613 49.335,397.628 49.500 M398.434 52.600 C 398.472 53.966,399.138 55.242,399.166 54.000 C 399.178 53.450,399.013 52.730,398.800 52.400 C 398.480 51.905,398.416 51.940,398.434 52.600 M398.806 55.876 C 398.803 56.358,398.980 56.864,399.200 57.000 C 399.709 57.315,399.709 56.388,399.200 55.600 C 398.885 55.112,398.811 55.164,398.806 55.876 M92.331 165.331 C 90.942 166.719,90.857 168.360,92.100 169.795 L 93.000 170.835 198.400 170.829 L 303.800 170.823 304.700 169.789 C 306.045 168.244,305.513 165.313,303.766 164.642 C 303.401 164.502,255.933 164.345,198.282 164.294 L 93.462 164.200 92.331 165.331 M399.037 346.500 C 398.927 347.215,398.725 348.520,398.588 349.400 C 398.429 350.415,398.476 350.854,398.717 350.600 C 398.926 350.380,399.207 349.075,399.342 347.700 C 399.598 345.092,399.383 344.245,399.037 346.500 M0.566 350.350 C 0.695 351.093,0.800 352.003,0.800 352.374 C 0.800 352.744,1.071 353.396,1.402 353.824 C 1.964 354.548,1.978 354.524,1.602 353.474 C 1.381 352.855,1.197 351.865,1.194 351.274 C 1.191 350.683,0.995 349.930,0.760 349.600 C 0.436 349.146,0.389 349.328,0.566 350.350 M398.046 352.267 C 398.021 352.524,397.884 353.064,397.741 353.467 C 397.540 354.036,397.594 354.097,397.979 353.742 C 398.252 353.491,398.389 352.951,398.284 352.542 C 398.179 352.134,398.072 352.010,398.046 352.267 M397.064 355.500 C 396.493 357.606,396.371 358.571,396.723 358.200 C 397.132 357.770,397.762 354.800,397.445 354.800 C 397.340 354.800,397.169 355.115,397.064 355.500 M2.535 358.000 C 2.675 358.550,2.792 359.225,2.795 359.500 C 2.798 359.775,2.967 360.000,3.172 360.000 C 3.399 360.000,3.404 359.510,3.184 358.746 C 2.752 357.239,2.174 356.574,2.535 358.000 M3.606 361.100 C 3.603 361.595,3.780 362.000,4.000 362.000 C 4.501 362.000,4.501 361.576,4.000 360.800 C 3.686 360.315,3.611 360.372,3.606 361.100 M395.169 360.900 C 395.153 360.955,395.080 361.270,395.008 361.600 C 394.936 361.930,394.743 362.560,394.580 363.000 C 394.371 363.562,394.410 363.681,394.713 363.400 C 395.208 362.940,395.809 360.800,395.443 360.800 C 395.310 360.800,395.186 360.845,395.169 360.900 M4.600 363.600 C 4.759 364.150,5.070 364.780,5.290 365.000 C 5.557 365.267,5.593 365.067,5.400 364.400 C 5.241 363.850,4.930 363.220,4.710 363.000 C 4.443 362.733,4.407 362.933,4.600 363.600 M392.850 366.650 C 392.586 367.229,392.462 367.795,392.574 367.907 C 392.686 368.019,392.968 367.611,393.200 367.000 C 393.432 366.389,393.557 365.823,393.476 365.743 C 393.396 365.662,393.114 366.071,392.850 366.650 M6.612 367.799 C 6.894 369.135,7.089 369.445,7.431 369.102 C 7.559 368.975,7.369 368.360,7.011 367.735 L 6.358 366.600 6.612 367.799 M8.684 371.600 C 8.799 372.040,9.052 372.400,9.247 372.400 C 9.441 372.400,9.600 372.590,9.600 372.821 C 9.600 373.053,10.616 374.628,11.858 376.321 C 14.607 380.069,14.354 379.779,14.625 379.509 C 14.748 379.385,14.323 378.680,13.679 377.942 C 13.036 377.204,11.676 375.295,10.657 373.700 C 8.727 370.677,8.333 370.258,8.684 371.600 M389.132 373.000 C 388.364 374.694,388.759 374.855,389.714 373.238 C 390.475 371.950,390.554 371.600,390.083 371.600 C 389.909 371.600,389.481 372.230,389.132 373.000 M387.119 376.003 C 386.744 376.661,386.543 377.200,386.672 377.200 C 387.009 377.200,388.400 375.541,388.400 375.139 C 388.400 374.429,387.773 374.852,387.119 376.003 M385.199 378.602 C 384.683 379.151,384.389 379.600,384.547 379.600 C 384.998 379.600,386.565 378.031,386.339 377.806 C 386.228 377.694,385.714 378.052,385.199 378.602 M383.296 380.859 C 382.913 381.332,381.160 383.165,379.400 384.933 C 377.195 387.147,376.755 387.719,377.986 386.773 C 380.659 384.719,385.009 380.000,384.230 380.000 C 384.099 380.000,383.679 380.387,383.296 380.859 M15.955 381.500 C 16.456 382.413,21.948 387.600,22.414 387.600 C 22.612 387.600,21.219 386.070,19.319 384.200 C 15.725 380.662,15.316 380.334,15.955 381.500 M23.200 388.226 C 23.200 388.597,24.830 390.000,25.261 390.000 C 25.861 390.000,25.627 389.674,24.400 388.800 C 23.740 388.330,23.200 388.072,23.200 388.226 M374.799 389.002 C 374.283 389.551,374.032 390.000,374.241 390.000 C 374.688 390.000,376.132 388.399,375.897 388.164 C 375.809 388.075,375.314 388.452,374.799 389.002 M372.100 390.888 C 371.197 391.324,370.876 392.000,371.571 392.000 C 371.942 392.000,373.200 390.896,373.200 390.571 C 373.200 390.358,373.196 390.360,372.100 390.888 M26.800 391.154 C 26.800 391.399,26.967 391.600,27.171 391.600 C 27.376 391.600,27.781 391.827,28.071 392.105 C 28.946 392.941,30.738 394.000,31.279 394.000 C 31.742 394.000,30.890 393.349,27.900 391.418 C 27.249 390.998,26.800 390.890,26.800 391.154 M369.200 393.000 C 368.455 393.550,367.987 394.000,368.161 394.000 C 368.687 394.000,370.800 392.650,370.800 392.314 C 370.800 391.854,370.688 391.902,369.200 393.000 M363.502 396.104 C 362.679 396.563,362.072 397.006,362.155 397.088 C 362.390 397.323,365.600 395.848,365.600 395.506 C 365.600 395.054,365.167 395.178,363.502 396.104 M35.200 396.400 C 35.200 396.620,35.365 396.800,35.567 396.800 C 35.769 396.800,36.264 396.914,36.667 397.054 C 37.311 397.277,37.303 397.230,36.600 396.667 C 35.673 395.924,35.200 395.833,35.200 396.400 M39.400 398.303 C 39.620 398.520,40.340 398.812,41.000 398.954 C 42.377 399.249,41.615 398.677,40.000 398.203 C 39.343 398.011,39.137 398.045,39.400 398.303 M358.176 398.621 C 357.430 399.217,357.439 399.231,358.400 398.976 C 359.634 398.648,360.402 398.000,359.556 398.000 C 359.225 398.000,358.604 398.279,358.176 398.621 M353.319 400.190 C 352.615 400.431,351.908 400.758,351.749 400.918 C 351.342 401.325,354.116 400.771,354.573 400.354 C 355.189 399.793,354.679 399.726,353.319 400.190 M44.800 400.371 C 45.759 400.910,48.263 401.346,47.800 400.894 C 47.580 400.680,46.680 400.399,45.800 400.269 C 44.848 400.130,44.443 400.171,44.800 400.371 M49.200 401.600 C 49.200 401.820,49.695 401.987,50.300 401.972 C 51.275 401.947,51.309 401.905,50.600 401.600 C 49.507 401.131,49.200 401.131,49.200 401.600 M348.800 401.600 C 348.312 401.915,348.364 401.989,349.076 401.994 C 349.558 401.997,350.064 401.820,350.200 401.600 C 350.515 401.091,349.588 401.091,348.800 401.600 M52.631 402.364 C 52.834 402.552,53.956 402.792,55.124 402.897 C 57.885 403.144,57.266 402.577,54.431 402.262 C 53.220 402.128,52.425 402.173,52.631 402.364 M344.074 402.409 C 342.904 402.580,341.839 402.828,341.706 402.960 C 341.323 403.343,346.557 402.736,346.980 402.348 C 347.409 401.955,347.160 401.960,344.074 402.409 " stroke="none" fill="#0cecac" fill-rule="evenodd"></path></g></svg>