<svg id="svg" version="1.1" xmlns="http://www.w3.org/2000/svg" xmlns:xlink="http://www.w3.org/1999/xlink" width="400" height="400" viewBox="0, 0, 400,400"><g id="svgg"><path id="path0" d="M128.000 110.676 C 121.740 111.752,116.535 116.642,114.732 123.142 C 113.651 127.040,113.587 279.967,114.664 284.318 C 115.803 288.914,119.346 293.410,123.362 295.353 C 125.993 296.626,176.258 313.365,179.343 313.996 C 190.264 316.228,198.800 307.451,198.800 293.988 C 198.800 287.694,196.655 288.429,215.400 288.301 C 233.668 288.176,234.424 287.987,242.120 281.600 C 244.311 279.782,247.472 274.638,248.634 271.000 C 249.349 268.759,249.400 267.188,249.400 247.337 L 249.400 226.074 248.177 224.537 C 244.340 219.715,236.964 220.280,234.301 225.600 C 233.412 227.376,233.397 227.664,233.200 247.032 L 233.000 266.664 231.888 268.120 C 231.277 268.921,230.121 270.077,229.320 270.688 L 227.863 271.800 213.332 271.914 L 198.800 272.028 198.797 207.114 C 198.794 135.036,198.979 140.178,196.217 135.465 C 194.360 132.296,188.609 128.000,186.225 128.000 C 185.881 128.000,185.600 127.722,185.600 127.383 C 185.600 126.385,226.463 126.687,228.200 127.699 C 229.962 128.725,230.954 129.630,232.036 131.200 L 233.000 132.600 233.205 148.000 C 233.317 156.470,233.574 163.760,233.775 164.200 C 236.534 170.231,244.800 171.210,248.300 165.921 L 249.400 164.258 249.400 147.429 C 249.400 131.945,249.339 130.408,248.633 128.200 C 246.048 120.107,240.192 114.369,231.400 111.314 C 229.506 110.656,131.633 110.052,128.000 110.676 M272.265 153.767 C 267.743 155.766,267.436 156.944,267.200 173.200 L 267.000 187.000 249.000 187.104 C 232.307 187.200,230.884 187.262,229.400 187.963 C 223.075 190.951,223.399 200.003,229.933 202.846 C 231.545 203.547,232.907 203.600,249.433 203.600 L 267.200 203.600 267.200 217.025 L 267.200 230.450 268.230 232.628 C 270.141 236.666,273.855 238.352,278.154 237.133 C 280.749 236.397,316.333 200.858,317.375 197.961 C 318.172 195.744,318.027 193.597,316.935 191.458 C 315.874 189.381,280.816 154.585,279.034 153.840 C 277.238 153.089,273.879 153.053,272.265 153.767 " stroke="none" fill="#fcfbfb" fill-rule="evenodd"></path><path id="path1" d="M50.000 0.450 C 48.350 0.644,46.711 0.967,46.359 1.168 C 46.006 1.369,44.881 1.659,43.859 1.812 C 42.836 1.965,42.000 2.250,42.000 2.445 C 42.000 2.640,41.595 2.801,41.100 2.802 C 40.605 2.804,39.684 3.074,39.054 3.402 C 38.424 3.731,37.659 4.000,37.354 4.000 C 37.049 4.000,36.800 4.180,36.800 4.400 C 36.800 4.620,36.575 4.806,36.300 4.814 C 36.025 4.821,35.080 5.175,34.200 5.600 C 33.320 6.025,32.375 6.379,32.100 6.386 C 31.825 6.394,31.600 6.580,31.600 6.800 C 31.600 7.020,31.324 7.200,30.987 7.200 C 30.651 7.200,30.271 7.470,30.145 7.800 C 30.018 8.130,29.724 8.400,29.492 8.400 C 28.905 8.400,25.071 10.859,24.680 11.486 C 24.504 11.769,24.168 12.000,23.933 12.000 C 23.699 12.000,22.808 12.720,21.954 13.600 C 21.100 14.480,20.232 15.200,20.027 15.200 C 19.538 15.200,15.200 19.538,15.200 20.027 C 15.200 20.232,14.480 21.100,13.600 21.954 C 12.720 22.808,12.000 23.713,12.000 23.966 C 12.000 24.218,11.730 24.529,11.400 24.655 C 11.070 24.782,10.800 25.048,10.800 25.246 C 10.800 25.445,10.260 26.352,9.600 27.263 C 8.940 28.175,8.400 29.144,8.400 29.417 C 8.400 29.691,8.130 30.018,7.800 30.145 C 7.470 30.271,7.200 30.651,7.200 30.987 C 7.200 31.324,7.034 31.600,6.832 31.600 C 6.629 31.600,6.345 32.140,6.200 32.800 C 6.055 33.460,5.791 34.000,5.613 34.000 C 5.435 34.000,5.171 34.630,5.026 35.400 C 4.882 36.170,4.592 36.800,4.382 36.800 C 4.172 36.800,4.000 37.072,4.000 37.405 C 4.000 37.738,3.830 38.323,3.621 38.705 C 3.027 39.795,1.600 44.325,1.600 45.122 C 1.600 45.517,1.430 46.011,1.222 46.220 C -0.091 47.540,-0.610 346.781,0.693 351.400 C 0.941 352.280,1.352 353.810,1.606 354.800 C 1.860 355.790,2.211 356.960,2.386 357.400 C 2.561 357.840,3.020 359.010,3.406 360.000 C 3.793 360.990,4.354 362.367,4.654 363.060 C 4.954 363.754,5.200 364.519,5.200 364.760 C 5.200 365.002,5.366 365.200,5.568 365.200 C 5.771 365.200,6.055 365.740,6.200 366.400 C 6.345 367.060,6.629 367.600,6.832 367.600 C 7.034 367.600,7.200 367.857,7.200 368.171 C 7.200 368.486,7.425 368.984,7.700 369.279 C 7.975 369.573,8.546 370.441,8.969 371.207 C 9.925 372.940,13.084 377.114,14.295 378.246 C 14.793 378.711,15.200 379.205,15.200 379.343 C 15.200 379.700,19.870 384.400,20.225 384.400 C 20.387 384.400,21.131 385.030,21.879 385.800 C 22.627 386.570,23.429 387.200,23.662 387.200 C 23.894 387.200,24.439 387.650,24.871 388.200 C 25.304 388.750,25.915 389.200,26.229 389.200 C 26.543 389.200,26.800 389.368,26.800 389.573 C 26.800 389.778,27.205 390.072,27.700 390.227 C 28.195 390.381,28.690 390.619,28.800 390.754 C 29.125 391.154,30.519 391.994,31.700 392.502 C 32.305 392.762,32.800 393.096,32.800 393.243 C 32.800 393.390,33.430 393.629,34.200 393.774 C 34.970 393.918,35.600 394.200,35.600 394.400 C 35.600 394.600,36.230 394.882,37.000 395.026 C 37.770 395.171,38.400 395.449,38.400 395.645 C 38.400 395.840,38.749 396.000,39.176 396.000 C 39.603 396.000,40.058 396.170,40.186 396.377 C 40.314 396.584,41.224 396.875,42.209 397.022 C 43.194 397.170,44.000 397.437,44.000 397.617 C 44.000 397.796,45.035 398.068,46.300 398.221 C 47.565 398.374,48.853 398.702,49.161 398.949 C 49.962 399.592,349.903 399.596,350.315 398.954 C 350.472 398.709,351.635 398.381,352.900 398.225 C 354.165 398.070,355.200 397.775,355.200 397.571 C 355.200 397.367,355.646 397.200,356.192 397.200 C 357.211 397.200,360.443 396.067,360.800 395.585 C 360.910 395.437,361.675 395.191,362.500 395.040 C 363.325 394.888,364.000 394.606,364.000 394.414 C 364.000 394.221,364.540 393.945,365.200 393.800 C 365.860 393.655,366.400 393.385,366.400 393.200 C 366.400 393.015,366.940 392.745,367.600 392.600 C 368.260 392.455,368.800 392.174,368.800 391.976 C 368.800 391.778,369.250 391.502,369.800 391.364 C 370.350 391.226,370.800 390.953,370.800 390.757 C 370.800 390.560,370.999 390.400,371.242 390.400 C 371.486 390.400,372.431 389.817,373.342 389.104 C 374.254 388.390,375.232 387.625,375.515 387.404 C 375.798 387.182,376.679 386.415,377.471 385.700 C 378.264 384.985,379.052 384.400,379.224 384.400 C 379.653 384.400,384.400 379.620,384.400 379.187 C 384.400 378.995,385.030 378.227,385.800 377.479 C 386.570 376.731,387.200 375.927,387.200 375.693 C 387.200 375.458,387.336 375.207,387.503 375.133 C 388.020 374.906,390.400 371.710,390.400 371.242 C 390.400 370.999,390.560 370.800,390.757 370.800 C 390.953 370.800,391.226 370.350,391.364 369.800 C 391.502 369.250,391.778 368.800,391.976 368.800 C 392.174 368.800,392.455 368.260,392.600 367.600 C 392.745 366.940,393.015 366.400,393.200 366.400 C 393.385 366.400,393.655 365.860,393.800 365.200 C 393.945 364.540,394.221 364.000,394.414 364.000 C 394.606 364.000,394.888 363.325,395.040 362.500 C 395.191 361.675,395.437 360.910,395.585 360.800 C 396.067 360.443,397.200 357.211,397.200 356.192 C 397.200 355.646,397.367 355.200,397.571 355.200 C 397.775 355.200,398.070 354.165,398.225 352.900 C 398.381 351.635,398.709 350.472,398.954 350.315 C 399.596 349.903,399.592 49.962,398.949 49.161 C 398.702 48.853,398.374 47.565,398.221 46.300 C 398.068 45.035,397.796 44.000,397.617 44.000 C 397.437 44.000,397.169 43.190,397.021 42.200 C 396.872 41.210,396.582 40.400,396.375 40.400 C 396.169 40.400,396.000 39.950,396.000 39.400 C 396.000 38.850,395.840 38.400,395.645 38.400 C 395.449 38.400,395.171 37.770,395.026 37.000 C 394.882 36.230,394.600 35.600,394.400 35.600 C 394.200 35.600,393.918 34.970,393.774 34.200 C 393.629 33.430,393.390 32.800,393.243 32.800 C 393.096 32.800,392.749 32.305,392.472 31.700 C 391.544 29.672,391.012 28.800,390.705 28.800 C 390.537 28.800,390.400 28.567,390.400 28.281 C 390.400 27.720,389.530 26.450,388.100 24.924 C 387.605 24.396,387.200 23.800,387.200 23.601 C 387.200 23.402,386.570 22.627,385.800 21.879 C 385.030 21.131,384.400 20.390,384.400 20.233 C 384.400 19.877,379.707 15.200,379.351 15.200 C 379.208 15.200,378.711 14.793,378.246 14.295 C 377.114 13.084,372.940 9.925,371.207 8.969 C 370.441 8.546,369.573 7.975,369.279 7.700 C 368.984 7.425,368.486 7.200,368.171 7.200 C 367.857 7.200,367.600 7.034,367.600 6.832 C 367.600 6.629,367.060 6.345,366.400 6.200 C 365.740 6.055,365.200 5.785,365.200 5.600 C 365.200 5.415,364.667 5.147,364.016 5.004 C 363.366 4.861,361.926 4.306,360.818 3.772 C 359.710 3.237,358.563 2.800,358.269 2.800 C 357.974 2.800,357.598 2.665,357.434 2.500 C 357.269 2.335,356.204 1.967,355.067 1.681 C 353.930 1.396,352.280 0.955,351.400 0.702 C 349.437 0.137,54.768 -0.109,50.000 0.450 M231.448 110.765 C 241.473 114.024,248.664 121.906,249.993 131.092 C 250.483 134.486,250.508 161.654,250.022 163.748 C 248.504 170.290,239.218 172.233,234.842 166.924 C 232.571 164.170,232.400 162.785,232.400 147.186 C 232.400 126.099,234.390 127.606,206.600 127.645 C 192.890 127.664,187.421 127.792,188.400 128.070 C 190.602 128.696,196.400 133.465,196.400 134.652 C 196.400 134.917,196.553 135.193,196.740 135.267 C 196.926 135.340,197.601 136.660,198.240 138.200 L 199.400 141.000 199.507 206.328 L 199.614 271.656 213.307 271.528 C 228.709 271.384,228.579 271.409,231.109 268.094 L 232.200 266.663 232.418 247.432 C 232.660 226.197,232.700 225.836,235.143 223.386 C 239.114 219.401,244.639 219.578,248.355 223.810 C 250.420 226.162,250.470 226.804,250.309 248.750 L 250.160 269.000 249.096 271.754 C 246.588 278.247,241.828 283.687,236.200 286.492 C 230.980 289.095,226.977 289.600,211.588 289.600 L 199.703 289.600 199.498 295.100 C 199.301 300.399,199.047 301.766,197.699 304.800 C 194.505 311.987,184.788 316.680,177.828 314.397 C 127.088 297.750,121.810 295.834,119.073 293.070 C 116.263 290.232,115.543 289.074,114.210 285.250 C 113.282 282.586,113.295 125.131,114.224 122.400 C 115.495 118.662,116.032 117.749,118.415 115.271 C 120.575 113.026,121.564 112.342,124.395 111.133 L 127.000 110.022 178.048 110.011 C 227.237 110.000,229.181 110.028,231.448 110.765 M279.461 153.412 C 282.142 154.838,316.850 189.586,317.753 191.749 C 320.058 197.267,319.695 197.783,298.941 218.558 C 277.930 239.589,277.674 239.775,272.730 237.656 C 267.045 235.219,266.800 234.406,266.800 217.947 L 266.800 204.445 248.700 204.322 L 230.600 204.200 228.750 203.033 C 222.619 199.166,222.741 191.535,229.000 187.394 C 230.146 186.636,231.021 186.595,248.500 186.485 L 266.800 186.369 266.800 172.834 C 266.800 161.884,266.911 159.040,267.381 157.949 C 269.452 153.141,275.019 151.050,279.461 153.412 " stroke="none" fill="#fc9404" fill-rule="evenodd"></path><path id="path2" d="M155.869 110.300 C 168.667 110.358,189.727 110.359,202.669 110.300 C 215.611 110.241,205.140 110.193,179.400 110.193 C 153.660 110.193,143.071 110.241,155.869 110.300 M124.600 111.414 C 123.600 111.896,123.566 111.951,124.400 111.748 C 125.533 111.471,126.807 110.821,126.200 110.830 C 125.980 110.833,125.260 111.096,124.600 111.414 M230.600 111.200 C 231.040 111.389,231.670 111.544,232.000 111.544 C 232.378 111.544,232.304 111.417,231.800 111.200 C 231.360 111.011,230.730 110.856,230.400 110.856 C 230.022 110.856,230.096 110.983,230.600 111.200 M121.300 113.174 C 120.409 113.819,119.553 114.552,119.398 114.803 C 119.182 115.153,122.312 112.954,123.167 112.156 C 123.787 111.576,122.647 112.198,121.300 113.174 M238.000 114.125 C 238.000 114.224,238.661 114.809,239.468 115.425 C 240.276 116.041,240.811 116.341,240.656 116.091 C 240.340 115.579,238.000 113.847,238.000 114.125 M117.729 116.500 C 117.284 116.995,116.776 117.670,116.601 118.000 C 116.263 118.637,116.355 118.550,117.976 116.700 C 118.506 116.095,118.849 115.600,118.739 115.600 C 118.629 115.600,118.175 116.005,117.729 116.500 M243.435 119.000 C 246.182 122.370,246.219 122.410,245.686 121.400 C 245.454 120.960,244.339 119.610,243.208 118.400 L 241.152 116.200 243.435 119.000 M114.649 121.815 C 114.512 122.173,114.415 122.766,114.434 123.133 C 114.453 123.500,114.627 123.269,114.821 122.620 C 115.198 121.358,115.065 120.733,114.649 121.815 M185.600 127.400 C 185.600 127.730,185.780 128.000,186.000 128.000 C 186.220 128.000,186.400 127.822,186.400 127.604 C 186.400 127.349,193.431 127.169,206.100 127.100 L 225.800 126.992 205.700 126.896 C 188.057 126.812,185.600 126.873,185.600 127.400 M191.400 130.273 C 192.958 131.843,195.654 134.015,194.600 132.852 C 193.940 132.123,192.860 131.154,192.200 130.699 C 191.540 130.243,191.180 130.052,191.400 130.273 M249.400 147.136 C 249.400 156.589,249.532 164.115,249.694 163.861 C 250.055 163.295,250.023 132.165,249.660 130.875 C 249.517 130.366,249.400 137.683,249.400 147.136 M198.056 139.600 C 198.056 139.930,198.211 140.560,198.400 141.000 C 198.617 141.504,198.744 141.578,198.744 141.200 C 198.744 140.870,198.589 140.240,198.400 139.800 C 198.183 139.296,198.056 139.222,198.056 139.600 M274.500 153.087 C 275.105 153.178,276.095 153.178,276.700 153.087 C 277.305 152.995,276.810 152.920,275.600 152.920 C 274.390 152.920,273.895 152.995,274.500 153.087 M284.000 157.730 C 284.000 158.118,285.635 159.699,285.832 159.502 C 285.923 159.411,285.548 158.914,284.998 158.399 C 284.449 157.883,284.000 157.582,284.000 157.730 M291.410 165.173 C 292.682 166.738,293.655 167.679,293.826 167.507 C 293.914 167.420,293.228 166.640,292.303 165.774 C 291.377 164.908,290.976 164.638,291.410 165.173 M234.791 166.388 C 235.257 167.041,235.842 167.702,236.091 167.856 C 236.341 168.011,236.041 167.476,235.425 166.668 C 234.088 164.915,233.584 164.692,234.791 166.388 M299.410 173.173 C 300.682 174.738,301.655 175.679,301.826 175.507 C 301.914 175.420,301.228 174.640,300.303 173.774 C 299.377 172.908,298.976 172.638,299.410 173.173 M305.600 179.259 C 305.600 179.602,309.663 183.670,309.834 183.499 C 309.915 183.419,308.995 182.380,307.790 181.190 C 306.586 180.001,305.600 179.132,305.600 179.259 M249.000 186.800 L 231.000 187.012 248.876 187.106 C 260.465 187.167,266.840 187.059,267.000 186.800 C 267.136 186.580,267.192 186.442,267.124 186.494 C 267.056 186.545,258.900 186.683,249.000 186.800 M316.244 190.380 C 316.488 190.721,316.888 191.360,317.132 191.800 C 317.376 192.240,317.581 192.385,317.588 192.122 C 317.595 191.860,317.195 191.221,316.700 190.703 C 316.205 190.185,316.000 190.040,316.244 190.380 M226.000 200.125 C 226.000 200.194,226.585 200.779,227.300 201.425 L 228.600 202.600 227.425 201.300 C 226.330 200.088,226.000 199.816,226.000 200.125 M298.000 218.572 C 287.990 228.563,280.070 236.583,280.400 236.394 C 281.093 235.996,316.697 200.399,316.398 200.403 C 316.289 200.404,308.010 208.580,298.000 218.572 M228.800 202.631 C 228.800 202.901,230.878 203.656,231.076 203.457 C 231.167 203.367,230.692 203.101,230.020 202.867 C 229.349 202.633,228.800 202.527,228.800 202.631 M241.127 203.900 C 246.037 203.963,253.957 203.963,258.727 203.900 C 263.497 203.836,259.480 203.784,249.800 203.784 C 240.120 203.784,236.217 203.836,241.127 203.900 M239.115 221.128 C 238.738 221.278,239.755 221.400,241.374 221.400 C 242.994 221.400,244.113 221.268,243.860 221.106 C 243.292 220.743,240.047 220.758,239.115 221.128 M236.522 222.629 L 235.400 223.658 236.700 222.754 C 237.415 222.257,238.000 221.793,238.000 221.725 C 238.000 221.409,237.558 221.680,236.522 222.629 M247.397 223.601 C 249.293 225.818,249.320 225.842,248.886 225.000 C 248.659 224.560,247.962 223.751,247.337 223.201 L 246.200 222.203 247.397 223.601 M249.786 247.200 C 249.786 258.310,249.837 262.855,249.900 257.300 C 249.962 251.745,249.962 242.655,249.900 237.100 C 249.837 231.545,249.786 236.090,249.786 247.200 M267.414 231.600 C 267.768 233.020,269.621 235.608,270.800 236.326 C 271.495 236.750,271.398 236.580,270.484 235.768 C 269.760 235.126,268.717 233.700,268.166 232.600 C 267.615 231.500,267.277 231.050,267.414 231.600 M230.378 269.500 L 229.000 271.000 230.500 269.622 C 231.896 268.338,232.184 268.000,231.878 268.000 C 231.812 268.000,231.137 268.675,230.378 269.500 M227.200 271.434 C 225.890 271.970,225.877 271.992,227.000 271.775 C 227.660 271.648,228.371 271.376,228.580 271.172 C 229.059 270.703,228.921 270.729,227.200 271.434 M244.575 278.668 C 243.959 279.476,243.659 280.011,243.909 279.856 C 244.421 279.540,246.153 277.200,245.875 277.200 C 245.776 277.200,245.191 277.861,244.575 278.668 M239.600 283.649 C 238.206 284.871,238.205 284.872,239.488 284.019 C 240.196 283.548,240.882 282.991,241.012 282.781 C 241.397 282.157,241.077 282.354,239.600 283.649 M114.406 284.633 C 114.409 285.055,114.595 285.670,114.818 286.000 C 115.115 286.438,115.152 286.276,114.956 285.400 C 114.627 283.929,114.398 283.610,114.406 284.633 M116.043 288.791 C 117.064 290.607,120.474 294.220,121.746 294.833 C 122.587 295.238,122.588 295.235,121.800 294.617 C 119.891 293.120,117.446 290.472,116.523 288.900 C 115.259 286.749,114.842 286.655,116.043 288.791 M231.600 287.600 C 231.067 287.945,231.067 287.988,231.600 287.988 C 231.930 287.988,232.470 287.813,232.800 287.600 C 233.333 287.255,233.333 287.212,232.800 287.212 C 232.470 287.212,231.930 287.387,231.600 287.600 M199.337 288.706 C 198.916 288.973,215.209 288.958,225.000 288.682 C 227.200 288.619,222.430 288.534,214.400 288.490 C 206.370 288.447,199.592 288.544,199.337 288.706 M124.800 296.333 C 125.130 296.536,125.850 296.824,126.400 296.971 C 127.095 297.157,127.217 297.125,126.800 296.867 C 126.470 296.664,125.750 296.376,125.200 296.229 C 124.505 296.043,124.383 296.075,124.800 296.333 M198.229 301.029 C 198.081 301.615,198.038 302.172,198.132 302.266 C 198.227 302.360,198.424 301.958,198.571 301.371 C 198.719 300.785,198.762 300.228,198.668 300.134 C 198.573 300.040,198.376 300.442,198.229 301.029 M148.800 304.333 C 149.130 304.536,149.850 304.824,150.400 304.971 C 151.095 305.157,151.217 305.125,150.800 304.867 C 150.470 304.664,149.750 304.376,149.200 304.229 C 148.505 304.043,148.383 304.075,148.800 304.333 M196.482 305.627 C 195.984 306.492,195.657 307.200,195.755 307.200 C 196.031 307.200,197.712 304.379,197.539 304.206 C 197.455 304.122,196.980 304.762,196.482 305.627 M193.600 309.400 C 192.628 310.390,191.923 311.200,192.033 311.200 C 192.143 311.200,193.028 310.390,194.000 309.400 C 194.972 308.410,195.677 307.600,195.567 307.600 C 195.457 307.600,194.572 308.410,193.600 309.400 M172.800 312.333 C 173.130 312.536,173.850 312.824,174.400 312.971 C 175.095 313.157,175.217 313.125,174.800 312.867 C 174.470 312.664,173.750 312.376,173.200 312.229 C 172.505 312.043,172.383 312.075,172.800 312.333 M176.400 313.582 C 176.730 313.805,177.345 313.991,177.767 313.994 C 178.790 314.002,178.471 313.773,177.000 313.444 C 176.124 313.248,175.962 313.285,176.400 313.582 " stroke="none" fill="#fcd294" fill-rule="evenodd"></path><path id="path3" d="M118.778 115.100 L 117.400 116.600 118.900 115.222 C 119.725 114.463,120.400 113.788,120.400 113.722 C 120.400 113.416,120.062 113.704,118.778 115.100 M113.796 203.800 C 113.796 246.920,113.843 264.501,113.900 242.868 C 113.957 221.236,113.957 185.956,113.900 164.468 C 113.843 142.981,113.796 160.680,113.796 203.800 M186.400 127.500 C 186.400 127.773,201.681 127.768,219.600 127.489 C 223.450 127.429,217.555 127.340,206.500 127.290 C 195.445 127.241,186.400 127.335,186.400 127.500 M232.980 148.600 C 232.980 156.300,233.034 159.393,233.099 155.474 C 233.165 151.555,233.165 145.255,233.099 141.474 C 233.034 137.693,232.980 140.900,232.980 148.600 M250.180 148.200 C 250.180 155.680,250.234 158.683,250.299 154.874 C 250.365 151.065,250.365 144.945,250.299 141.274 C 250.233 137.603,250.179 140.720,250.180 148.200 M198.995 206.600 C 198.995 242.240,199.042 256.761,199.100 238.868 C 199.158 220.976,199.158 191.816,199.100 174.068 C 199.042 156.321,198.995 170.960,198.995 206.600 M274.900 152.676 C 275.285 152.776,275.915 152.776,276.300 152.676 C 276.685 152.575,276.370 152.493,275.600 152.493 C 274.830 152.493,274.515 152.575,274.900 152.676 M266.894 173.296 L 266.800 186.392 249.300 186.500 L 231.800 186.609 249.313 186.704 C 263.089 186.780,266.866 186.693,267.018 186.297 C 267.125 186.020,267.161 180.035,267.100 172.997 L 266.988 160.200 266.894 173.296 M318.109 195.200 C 318.109 196.190,318.187 196.595,318.282 196.100 C 318.378 195.605,318.378 194.795,318.282 194.300 C 318.187 193.805,318.109 194.210,318.109 195.200 M298.598 218.500 L 281.000 236.200 298.700 218.602 C 315.152 202.245,316.580 200.800,316.298 200.800 C 316.242 200.800,308.277 208.765,298.598 218.500 M266.979 217.000 C 266.979 224.260,267.033 227.286,267.099 223.725 C 267.165 220.164,267.166 214.224,267.099 210.525 C 267.033 206.826,266.979 209.740,266.979 217.000 M232.984 246.400 C 232.984 256.410,233.036 260.505,233.100 255.500 C 233.163 250.495,233.163 242.305,233.100 237.300 C 233.036 232.295,232.984 236.390,232.984 246.400 M250.184 246.400 C 250.184 256.190,250.236 260.195,250.300 255.300 C 250.363 250.405,250.363 242.395,250.300 237.500 C 250.236 232.605,250.184 236.610,250.184 246.400 M205.674 271.899 C 209.345 271.965,215.465 271.965,219.274 271.899 C 223.083 271.834,220.080 271.780,212.600 271.780 C 205.120 271.779,202.003 271.833,205.674 271.899 M206.274 289.099 C 210.055 289.165,216.355 289.165,220.274 289.099 C 224.193 289.034,221.100 288.980,213.400 288.980 C 205.700 288.980,202.493 289.034,206.274 289.099 M198.957 294.400 C 198.957 297.370,199.020 298.585,199.097 297.100 C 199.174 295.615,199.174 293.185,199.097 291.700 C 199.020 290.215,198.957 291.430,198.957 294.400 M193.775 309.700 L 192.600 311.000 193.900 309.825 C 194.615 309.179,195.200 308.594,195.200 308.525 C 195.200 308.216,194.870 308.488,193.775 309.700 " stroke="none" fill="#fcba62" fill-rule="evenodd"></path><path id="path4" d="M126.200 110.400 C 125.696 110.617,125.622 110.744,126.000 110.744 C 126.330 110.744,126.960 110.589,127.400 110.400 C 127.904 110.183,127.978 110.056,127.600 110.056 C 127.270 110.056,126.640 110.211,126.200 110.400 M242.600 117.600 C 243.683 118.700,244.660 119.600,244.770 119.600 C 244.880 119.600,244.083 118.700,243.000 117.600 C 241.917 116.500,240.940 115.600,240.830 115.600 C 240.720 115.600,241.517 116.500,242.600 117.600 M232.580 148.000 C 232.580 155.810,232.634 159.005,232.699 155.100 C 232.765 151.195,232.765 144.805,232.699 140.900 C 232.634 136.995,232.580 140.190,232.580 148.000 M199.395 207.200 C 199.395 242.730,199.442 257.265,199.500 239.500 C 199.558 221.735,199.558 192.665,199.500 174.900 C 199.442 157.135,199.395 171.670,199.395 207.200 M267.049 158.615 C 266.912 158.973,266.815 159.566,266.834 159.933 C 266.853 160.300,267.027 160.069,267.221 159.420 C 267.598 158.158,267.465 157.533,267.049 158.615 M287.200 160.600 C 288.617 162.030,289.867 163.200,289.977 163.200 C 290.087 163.200,289.017 162.030,287.600 160.600 C 286.183 159.170,284.933 158.000,284.823 158.000 C 284.713 158.000,285.783 159.170,287.200 160.600 M295.200 168.600 C 296.617 170.030,297.867 171.200,297.977 171.200 C 298.087 171.200,297.017 170.030,295.600 168.600 C 294.183 167.170,292.933 166.000,292.823 166.000 C 292.713 166.000,293.783 167.170,295.200 168.600 M234.400 166.525 C 234.400 166.594,234.985 167.179,235.700 167.825 L 237.000 169.000 235.825 167.700 C 234.730 166.488,234.400 166.216,234.400 166.525 M247.375 167.700 L 246.200 169.000 247.500 167.825 C 248.215 167.179,248.800 166.594,248.800 166.525 C 248.800 166.216,248.470 166.488,247.375 167.700 M302.600 176.000 C 303.683 177.100,304.660 178.000,304.770 178.000 C 304.880 178.000,304.083 177.100,303.000 176.000 C 301.917 174.900,300.940 174.000,300.830 174.000 C 300.720 174.000,301.517 174.900,302.600 176.000 M310.600 184.000 C 311.683 185.100,312.660 186.000,312.770 186.000 C 312.880 186.000,312.083 185.100,311.000 184.000 C 309.917 182.900,308.940 182.000,308.830 182.000 C 308.720 182.000,309.517 182.900,310.600 184.000 M240.900 204.300 C 245.685 204.363,253.515 204.363,258.300 204.300 C 263.085 204.236,259.170 204.184,249.600 204.184 C 240.030 204.184,236.115 204.236,240.900 204.300 M232.649 228.215 C 232.512 228.573,232.441 237.086,232.492 247.133 L 232.584 265.400 232.792 246.600 C 233.015 226.460,233.021 227.247,232.649 228.215 M266.800 230.976 C 266.800 231.513,266.947 232.044,267.128 232.155 C 267.308 232.267,267.377 231.827,267.282 231.179 C 267.072 229.749,266.800 229.635,266.800 230.976 M268.000 234.125 C 268.000 234.194,268.585 234.779,269.300 235.425 L 270.600 236.600 269.425 235.300 C 268.330 234.088,268.000 233.816,268.000 234.125 M274.700 238.282 C 275.195 238.378,276.005 238.378,276.500 238.282 C 276.995 238.187,276.590 238.109,275.600 238.109 C 274.610 238.109,274.205 238.187,274.700 238.282 M249.429 269.429 C 249.281 270.015,249.238 270.572,249.332 270.666 C 249.427 270.760,249.624 270.358,249.771 269.771 C 249.919 269.185,249.962 268.628,249.868 268.534 C 249.773 268.440,249.576 268.842,249.429 269.429 M199.286 294.100 L 199.372 299.000 199.499 294.306 L 199.625 289.611 212.313 289.500 L 225.000 289.388 212.100 289.294 L 199.200 289.200 199.286 294.100 M182.000 314.400 L 178.200 314.647 181.800 314.717 C 183.780 314.756,185.670 314.613,186.000 314.400 C 186.330 314.187,186.420 314.044,186.200 314.083 C 185.980 314.121,184.090 314.264,182.000 314.400 " stroke="none" fill="#fcac34" fill-rule="evenodd"></path></g></svg>