<svg id="svg" version="1.1" xmlns="http://www.w3.org/2000/svg" xmlns:xlink="http://www.w3.org/1999/xlink" width="400" height="400" viewBox="0, 0, 400,400"><g id="svgg"><path id="path0" d="M118.854 101.187 C 116.678 101.928,114.576 103.239,113.741 104.375 C 113.489 104.719,112.929 105.404,112.497 105.897 C 110.260 108.451,110.381 102.294,110.495 208.000 L 110.600 305.000 111.765 307.115 C 113.065 309.476,114.790 311.150,117.311 312.498 L 119.000 313.400 175.662 313.600 L 232.324 313.800 234.008 315.312 C 239.365 320.121,243.945 322.916,252.400 326.535 C 256.136 328.133,258.954 327.620,266.061 324.043 C 286.109 313.957,293.587 299.238,293.597 269.846 C 293.601 257.222,292.969 255.152,288.446 252.984 L 286.809 252.200 286.805 182.282 C 286.799 104.705,286.958 109.337,284.175 105.505 C 282.559 103.279,280.544 101.911,277.589 101.034 C 274.056 99.985,121.954 100.131,118.854 101.187 M269.821 114.013 C 270.544 114.460,271.511 115.460,271.968 116.236 L 272.800 117.646 272.800 183.423 C 272.800 246.143,272.767 249.200,272.090 249.200 C 270.966 249.200,265.322 245.814,262.227 243.282 C 257.352 239.294,255.516 239.165,251.738 242.542 C 245.301 248.295,239.104 250.843,228.740 251.997 C 220.911 252.869,219.200 255.895,219.200 268.875 C 219.200 281.009,220.328 289.807,222.828 297.162 C 223.456 299.012,223.876 300.677,223.761 300.862 C 223.647 301.048,202.008 301.197,175.676 301.193 L 127.800 301.187 126.200 300.292 C 125.146 299.702,124.293 298.788,123.700 297.614 L 122.800 295.830 122.800 207.164 C 122.800 111.320,122.674 116.936,124.865 114.955 C 125.379 114.490,126.160 113.910,126.600 113.667 C 128.321 112.715,268.268 113.053,269.821 114.013 M197.000 135.880 C 191.969 137.112,191.735 144.993,196.668 147.054 C 199.108 148.074,249.171 147.835,251.210 146.795 C 255.239 144.740,255.627 139.385,251.937 136.754 L 250.600 135.800 224.200 135.742 C 209.680 135.710,197.440 135.773,197.000 135.880 M140.642 164.107 C 136.325 166.581,136.589 173.028,141.096 175.188 C 143.327 176.257,249.933 176.492,252.451 175.433 C 257.657 173.243,257.696 165.968,252.513 163.751 C 251.441 163.292,242.122 163.201,196.713 163.207 L 142.200 163.213 140.642 164.107 M140.942 191.039 C 137.237 192.866,136.376 198.162,139.307 201.093 L 140.813 202.600 195.907 202.719 C 234.486 202.802,251.446 202.708,252.489 202.406 C 257.258 201.024,257.641 193.229,253.047 191.049 C 251.003 190.079,142.907 190.069,140.942 191.039 M140.600 218.913 C 135.977 221.511,136.852 228.810,141.971 230.344 C 144.141 230.994,249.859 230.994,252.029 230.344 C 257.553 228.689,257.874 220.845,252.513 218.551 C 251.441 218.092,242.122 218.001,196.713 218.007 L 142.200 218.013 140.600 218.913 M142.600 246.198 C 137.744 248.353,137.551 255.034,142.287 257.052 C 144.386 257.946,195.147 257.852,197.047 256.951 C 201.820 254.686,201.158 247.593,196.029 246.056 C 193.672 245.350,144.216 245.481,142.600 246.198 M261.301 266.396 C 268.906 269.970,270.688 279.251,264.983 285.567 L 263.600 287.097 263.600 291.768 C 263.600 299.436,262.253 301.200,256.400 301.200 C 252.703 301.200,252.511 301.156,251.575 300.100 C 249.562 297.829,249.405 297.254,249.307 291.824 L 249.213 286.648 247.829 285.224 C 239.085 276.235,249.945 261.058,261.301 266.396 M254.487 271.288 C 249.846 272.826,248.866 279.586,252.880 282.373 C 254.944 283.804,255.242 284.933,254.942 290.176 C 254.671 294.923,255.001 296.400,256.334 296.400 C 257.799 296.400,258.000 295.610,258.000 289.856 L 258.000 284.273 259.827 282.596 C 265.495 277.392,261.513 268.959,254.487 271.288 " stroke="none" fill="#fbfbfc" fill-rule="evenodd"></path><path id="path1" d="M50.000 0.450 C 48.350 0.644,46.711 0.967,46.359 1.168 C 46.006 1.369,44.879 1.659,43.854 1.813 C 42.829 1.967,41.892 2.252,41.771 2.446 C 41.651 2.641,41.248 2.801,40.876 2.802 C 40.504 2.804,39.684 3.074,39.054 3.402 C 38.424 3.731,37.659 4.000,37.354 4.000 C 37.049 4.000,36.800 4.180,36.800 4.400 C 36.800 4.620,36.575 4.806,36.300 4.814 C 36.025 4.821,35.080 5.175,34.200 5.600 C 33.320 6.025,32.375 6.379,32.100 6.386 C 31.825 6.394,31.600 6.580,31.600 6.800 C 31.600 7.020,31.339 7.200,31.020 7.200 C 30.701 7.200,30.296 7.425,30.120 7.700 C 29.944 7.975,28.926 8.650,27.858 9.200 C 26.789 9.750,25.529 10.602,25.058 11.093 C 24.586 11.584,24.058 11.989,23.885 11.993 C 23.711 11.997,22.820 12.720,21.904 13.600 C 20.988 14.480,20.107 15.200,19.946 15.200 C 19.563 15.200,15.200 19.563,15.200 19.946 C 15.200 20.107,14.480 20.988,13.600 21.904 C 12.720 22.820,11.997 23.711,11.993 23.885 C 11.989 24.058,11.584 24.586,11.093 25.058 C 10.602 25.529,9.750 26.789,9.200 27.858 C 8.650 28.926,7.975 29.944,7.700 30.120 C 7.425 30.296,7.200 30.701,7.200 31.020 C 7.200 31.339,7.034 31.600,6.832 31.600 C 6.629 31.600,6.345 32.140,6.200 32.800 C 6.055 33.460,5.791 34.000,5.613 34.000 C 5.435 34.000,5.171 34.630,5.026 35.400 C 4.882 36.170,4.592 36.800,4.382 36.800 C 4.172 36.800,4.000 37.072,4.000 37.405 C 4.000 37.738,3.830 38.323,3.621 38.705 C 3.027 39.795,1.600 44.325,1.600 45.122 C 1.600 45.517,1.430 46.011,1.222 46.220 C -0.091 47.540,-0.610 346.781,0.693 351.400 C 0.941 352.280,1.352 353.810,1.606 354.800 C 1.860 355.790,2.211 356.960,2.386 357.400 C 2.561 357.840,3.020 359.010,3.406 360.000 C 3.793 360.990,4.354 362.367,4.654 363.060 C 4.954 363.754,5.200 364.519,5.200 364.760 C 5.200 365.002,5.366 365.200,5.568 365.200 C 5.771 365.200,6.055 365.740,6.200 366.400 C 6.345 367.060,6.629 367.600,6.832 367.600 C 7.034 367.600,7.200 367.857,7.200 368.171 C 7.200 368.486,7.425 368.984,7.700 369.279 C 7.975 369.573,8.546 370.441,8.969 371.207 C 9.707 372.544,12.144 375.872,14.080 378.187 C 16.497 381.077,23.034 387.200,23.703 387.200 C 23.913 387.200,24.439 387.650,24.871 388.200 C 25.304 388.750,25.915 389.200,26.229 389.200 C 26.543 389.200,26.800 389.368,26.800 389.573 C 26.800 389.778,27.205 390.072,27.700 390.227 C 28.195 390.381,28.690 390.619,28.800 390.754 C 29.125 391.154,30.519 391.994,31.700 392.502 C 32.305 392.762,32.800 393.108,32.800 393.270 C 32.800 393.431,33.430 393.682,34.200 393.826 C 34.970 393.971,35.600 394.241,35.600 394.426 C 35.600 394.612,36.230 394.882,37.000 395.026 C 37.770 395.171,38.400 395.449,38.400 395.645 C 38.400 395.840,38.749 396.000,39.176 396.000 C 39.603 396.000,40.058 396.170,40.186 396.377 C 40.314 396.584,41.224 396.875,42.209 397.022 C 43.194 397.170,44.000 397.437,44.000 397.617 C 44.000 397.796,45.035 398.068,46.300 398.221 C 47.565 398.374,48.853 398.702,49.161 398.949 C 49.962 399.592,349.903 399.596,350.315 398.954 C 350.472 398.709,351.635 398.381,352.900 398.225 C 354.165 398.070,355.200 397.775,355.200 397.571 C 355.200 397.367,355.646 397.200,356.192 397.200 C 357.211 397.200,360.443 396.067,360.800 395.585 C 360.910 395.437,361.675 395.191,362.500 395.040 C 363.325 394.888,364.000 394.606,364.000 394.414 C 364.000 394.221,364.540 393.945,365.200 393.800 C 365.860 393.655,366.400 393.385,366.400 393.200 C 366.400 393.015,366.940 392.745,367.600 392.600 C 368.260 392.455,368.800 392.174,368.800 391.976 C 368.800 391.778,369.250 391.502,369.800 391.364 C 370.350 391.226,370.800 390.953,370.800 390.757 C 370.800 390.560,370.999 390.400,371.242 390.400 C 371.710 390.400,374.906 388.020,375.133 387.503 C 375.207 387.336,375.458 387.200,375.693 387.200 C 375.927 387.200,376.731 386.570,377.479 385.800 C 378.227 385.030,378.995 384.400,379.187 384.400 C 379.379 384.400,380.630 383.306,381.968 381.968 C 383.306 380.630,384.400 379.379,384.400 379.187 C 384.400 378.995,385.030 378.227,385.800 377.479 C 386.570 376.731,387.200 375.927,387.200 375.693 C 387.200 375.458,387.336 375.207,387.503 375.133 C 388.020 374.906,390.400 371.710,390.400 371.242 C 390.400 370.999,390.560 370.800,390.757 370.800 C 390.953 370.800,391.226 370.350,391.364 369.800 C 391.502 369.250,391.778 368.800,391.976 368.800 C 392.174 368.800,392.455 368.260,392.600 367.600 C 392.745 366.940,393.015 366.400,393.200 366.400 C 393.385 366.400,393.655 365.860,393.800 365.200 C 393.945 364.540,394.221 364.000,394.414 364.000 C 394.606 364.000,394.888 363.325,395.040 362.500 C 395.191 361.675,395.437 360.910,395.585 360.800 C 396.067 360.443,397.200 357.211,397.200 356.192 C 397.200 355.646,397.367 355.200,397.571 355.200 C 397.775 355.200,398.070 354.165,398.225 352.900 C 398.381 351.635,398.709 350.472,398.954 350.315 C 399.596 349.903,399.592 49.962,398.949 49.161 C 398.702 48.853,398.374 47.565,398.221 46.300 C 398.068 45.035,397.796 44.000,397.617 44.000 C 397.437 44.000,397.170 43.194,397.022 42.209 C 396.875 41.224,396.584 40.314,396.377 40.186 C 396.170 40.058,396.000 39.603,396.000 39.176 C 396.000 38.749,395.840 38.400,395.645 38.400 C 395.449 38.400,395.171 37.770,395.026 37.000 C 394.882 36.230,394.600 35.600,394.400 35.600 C 394.200 35.600,393.918 34.970,393.774 34.200 C 393.629 33.430,393.390 32.800,393.243 32.800 C 393.096 32.800,392.749 32.305,392.472 31.700 C 391.544 29.672,391.012 28.800,390.705 28.800 C 390.537 28.800,390.400 28.567,390.400 28.281 C 390.400 27.720,389.530 26.450,388.100 24.924 C 387.605 24.396,387.200 23.819,387.200 23.642 C 387.200 23.009,380.975 16.402,378.190 14.080 C 375.843 12.122,372.539 9.704,371.207 8.969 C 370.441 8.546,369.573 7.975,369.279 7.700 C 368.984 7.425,368.486 7.200,368.171 7.200 C 367.857 7.200,367.600 7.034,367.600 6.832 C 367.600 6.629,367.060 6.345,366.400 6.200 C 365.740 6.055,365.200 5.771,365.200 5.568 C 365.200 5.366,365.002 5.200,364.760 5.200 C 364.519 5.200,363.754 4.954,363.060 4.654 C 362.367 4.354,360.990 3.793,360.000 3.406 C 359.010 3.020,357.840 2.561,357.400 2.386 C 356.960 2.211,355.790 1.860,354.800 1.606 C 353.810 1.352,352.280 0.941,351.400 0.693 C 349.427 0.136,54.700 -0.101,50.000 0.450 M278.305 100.341 C 278.687 100.529,279.690 101.015,280.534 101.423 C 281.378 101.830,282.928 103.104,283.979 104.253 C 287.488 108.092,287.200 101.245,287.200 180.956 L 287.200 251.562 288.553 252.204 C 290.494 253.126,292.817 255.609,293.644 257.645 C 294.456 259.647,294.704 277.235,293.995 282.600 C 293.182 288.763,292.010 294.881,291.583 295.200 C 291.436 295.310,291.187 296.097,291.030 296.949 C 290.874 297.801,290.589 298.791,290.397 299.149 C 290.206 299.507,289.383 301.240,288.569 303.000 C 285.269 310.139,277.023 319.293,271.713 321.712 C 271.211 321.941,270.800 322.260,270.800 322.421 C 270.800 322.582,270.307 322.837,269.704 322.988 C 269.101 323.140,268.516 323.389,268.404 323.542 C 268.018 324.069,261.364 327.187,260.074 327.445 C 259.364 327.587,258.686 327.860,258.568 328.052 C 258.286 328.509,255.489 328.499,254.319 328.037 C 250.181 326.404,248.578 325.708,245.700 324.292 C 243.885 323.400,242.400 322.538,242.400 322.378 C 242.400 322.218,241.950 321.974,241.400 321.836 C 240.850 321.698,240.400 321.408,240.400 321.192 C 240.400 320.977,240.201 320.800,239.958 320.800 C 239.387 320.800,236.801 318.762,234.004 316.108 L 231.800 314.017 175.400 314.005 L 119.000 313.992 117.000 313.058 C 114.552 311.914,112.299 309.652,110.987 307.021 L 110.000 305.043 110.000 207.100 C 110.000 111.395,110.018 109.118,110.767 107.478 C 111.616 105.623,114.756 102.000,115.516 102.000 C 115.782 102.000,116.000 101.828,116.000 101.618 C 116.000 101.408,116.630 101.118,117.400 100.974 C 118.170 100.829,118.800 100.551,118.800 100.355 C 118.800 99.896,277.371 99.882,278.305 100.341 M127.707 113.879 C 126.495 114.116,124.000 116.600,124.000 117.569 C 124.000 118.000,123.820 118.464,123.600 118.600 C 123.046 118.942,123.046 295.058,123.600 295.400 C 123.820 295.536,124.000 295.940,124.000 296.299 C 124.000 297.646,125.700 299.448,127.611 300.126 C 130.600 301.188,223.432 301.162,223.002 300.100 C 222.846 299.715,222.545 298.860,222.333 298.200 C 222.121 297.540,221.795 296.711,221.607 296.359 C 221.420 296.006,221.139 294.836,220.983 293.759 C 220.827 292.681,220.556 291.618,220.380 291.396 C 218.933 289.562,218.242 260.200,219.579 257.356 C 220.525 255.343,222.662 252.800,223.408 252.800 C 223.697 252.800,223.993 252.623,224.067 252.407 C 224.199 252.017,226.864 251.491,232.200 250.804 C 236.709 250.224,242.523 248.158,245.920 245.929 C 246.866 245.308,247.723 244.800,247.824 244.800 C 247.924 244.800,248.500 244.366,249.103 243.835 C 255.330 238.356,257.300 238.108,262.062 242.200 C 264.485 244.282,264.708 244.449,266.600 245.592 C 267.480 246.123,268.290 246.657,268.400 246.779 C 268.702 247.113,271.572 248.400,272.014 248.400 C 272.261 248.400,272.397 225.058,272.391 183.700 C 272.381 111.208,272.618 116.951,269.547 114.760 L 268.200 113.800 198.400 113.752 C 160.010 113.725,128.198 113.782,127.707 113.879 M251.987 135.876 C 256.201 138.827,256.273 145.937,252.100 147.047 C 251.605 147.179,251.200 147.447,251.200 147.643 C 251.200 148.252,197.085 148.100,195.906 147.489 C 191.877 145.399,191.021 140.158,194.189 136.989 L 195.979 135.200 223.500 135.200 C 248.687 135.200,251.104 135.257,251.987 135.876 M253.200 163.200 C 253.200 163.420,253.436 163.600,253.725 163.600 C 257.896 163.600,257.759 173.665,253.559 175.760 C 251.685 176.695,142.412 176.744,140.541 175.810 C 136.126 173.608,135.660 164.845,139.900 163.746 C 140.395 163.618,140.800 163.353,140.800 163.157 C 140.800 162.949,164.356 162.800,197.000 162.800 C 234.200 162.800,253.200 162.935,253.200 163.200 M253.957 190.638 C 257.936 192.989,257.907 200.455,253.909 202.550 C 252.687 203.191,248.866 203.229,196.369 203.119 L 140.138 203.000 138.887 201.749 C 135.773 198.635,136.306 193.155,139.961 190.703 C 141.495 189.673,252.217 189.610,253.957 190.638 M254.993 219.331 L 256.800 221.063 256.800 224.039 C 256.800 227.560,255.721 229.605,253.336 230.601 C 251.186 231.499,142.341 231.508,140.541 230.610 C 136.966 228.827,135.759 223.668,138.099 220.168 C 139.899 217.475,135.181 217.677,197.093 217.637 L 253.186 217.600 254.993 219.331 M197.547 245.833 C 201.697 247.904,202.051 254.665,198.143 257.241 C 196.383 258.402,142.837 258.415,141.078 257.255 C 136.983 254.555,137.298 248.193,141.643 245.804 C 143.218 244.939,195.808 244.966,197.547 245.833 M253.832 266.348 C 253.714 266.540,253.082 266.804,252.430 266.934 C 250.949 267.230,248.738 268.983,246.978 271.255 C 244.313 274.698,244.936 281.116,248.284 284.712 L 250.000 286.555 250.000 291.416 C 250.000 298.983,251.234 300.761,256.503 300.786 C 261.654 300.809,262.800 299.039,262.800 291.056 L 262.800 286.867 264.345 285.210 C 265.194 284.299,266.115 283.069,266.391 282.477 C 266.667 281.885,267.052 281.087,267.247 280.705 C 269.311 276.648,265.216 267.970,260.778 266.995 C 260.135 266.854,259.506 266.572,259.381 266.369 C 259.091 265.900,254.120 265.882,253.832 266.348 M259.770 271.185 C 261.672 272.242,263.267 274.526,263.491 276.513 C 263.785 279.118,263.004 280.575,259.700 283.581 C 258.848 284.357,258.800 284.700,258.800 290.053 C 258.800 296.816,258.264 297.889,255.426 296.810 L 254.400 296.420 254.400 290.567 L 254.400 284.713 252.666 283.057 C 246.040 276.728,251.956 266.842,259.770 271.185 " stroke="none" fill="#7c94fc" fill-rule="evenodd"></path><path id="path2" d="M159.500 100.300 C 180.895 100.357,215.905 100.357,237.300 100.300 C 258.695 100.243,241.190 100.196,198.400 100.196 C 155.610 100.196,138.105 100.243,159.500 100.300 M113.375 104.100 L 112.200 105.400 113.500 104.225 C 114.712 103.130,114.984 102.800,114.675 102.800 C 114.606 102.800,114.021 103.385,113.375 104.100 M110.249 109.415 C 110.112 109.773,110.015 110.366,110.034 110.733 C 110.053 111.100,110.227 110.869,110.421 110.220 C 110.798 108.958,110.665 108.333,110.249 109.415 M162.932 113.500 C 182.254 113.557,213.754 113.557,232.932 113.500 C 252.109 113.443,236.300 113.396,197.800 113.396 C 159.300 113.396,143.609 113.443,162.932 113.500 M272.595 183.800 C 272.595 219.440,272.642 233.961,272.700 216.068 C 272.758 198.176,272.758 169.016,272.700 151.268 C 272.642 133.521,272.595 148.160,272.595 183.800 M194.175 137.300 L 193.000 138.600 194.300 137.425 C 195.015 136.779,195.600 136.194,195.600 136.125 C 195.600 135.816,195.270 136.088,194.175 137.300 M192.509 141.600 C 192.509 142.590,192.587 142.995,192.682 142.500 C 192.778 142.005,192.778 141.195,192.682 140.700 C 192.587 140.205,192.509 140.610,192.509 141.600 M210.529 147.900 C 217.970 147.961,230.030 147.961,237.329 147.900 C 244.628 147.839,238.540 147.789,223.800 147.789 C 209.060 147.789,203.088 147.839,210.529 147.900 M169.531 163.100 C 184.783 163.158,209.623 163.158,224.731 163.100 C 239.839 163.042,227.360 162.994,197.000 162.994 C 166.640 162.994,154.279 163.042,169.531 163.100 M169.531 217.900 C 184.783 217.958,209.623 217.958,224.731 217.900 C 239.839 217.842,227.360 217.794,197.000 217.794 C 166.640 217.794,154.279 217.842,169.531 217.900 M253.600 218.525 C 253.600 218.594,254.185 219.179,254.900 219.825 L 256.200 221.000 255.025 219.700 C 253.930 218.488,253.600 218.216,253.600 218.525 M157.100 245.500 C 163.975 245.561,175.225 245.561,182.100 245.500 C 188.975 245.438,183.350 245.388,169.600 245.388 C 155.850 245.388,150.225 245.438,157.100 245.500 M140.175 247.300 L 139.000 248.600 140.300 247.425 C 141.512 246.330,141.784 246.000,141.475 246.000 C 141.406 246.000,140.821 246.585,140.175 247.300 M218.970 269.400 C 218.971 274.240,219.029 276.165,219.099 273.678 C 219.169 271.191,219.169 267.231,219.098 264.878 C 219.028 262.525,218.970 264.560,218.970 269.400 M255.705 265.887 C 256.314 265.979,257.214 265.977,257.705 265.882 C 258.197 265.787,257.700 265.711,256.600 265.714 C 255.500 265.717,255.097 265.795,255.705 265.887 M294.150 270.600 C 294.151 273.020,294.216 273.958,294.296 272.685 C 294.376 271.412,294.375 269.432,294.294 268.285 C 294.214 267.138,294.149 268.180,294.150 270.600 M244.914 277.400 C 244.917 278.500,244.995 278.903,245.087 278.295 C 245.179 277.686,245.177 276.786,245.082 276.295 C 244.987 275.803,244.911 276.300,244.914 277.400 M249.693 277.200 C 249.693 277.970,249.775 278.285,249.876 277.900 C 249.976 277.515,249.976 276.885,249.876 276.500 C 249.775 276.115,249.693 276.430,249.693 277.200 M293.701 279.400 C 293.705 280.280,293.787 280.593,293.883 280.095 C 293.979 279.598,293.975 278.878,293.875 278.495 C 293.775 278.113,293.696 278.520,293.701 279.400 M264.378 285.500 L 263.000 287.000 264.500 285.622 C 265.896 284.338,266.184 284.000,265.878 284.000 C 265.812 284.000,265.137 284.675,264.378 285.500 M249.753 291.400 C 249.753 294.040,249.818 295.068,249.897 293.684 C 249.975 292.301,249.974 290.141,249.895 288.884 C 249.816 287.628,249.752 288.760,249.753 291.400 M279.578 315.100 L 278.200 316.600 279.700 315.222 C 280.525 314.463,281.200 313.788,281.200 313.722 C 281.200 313.416,280.862 313.704,279.578 315.100 M233.600 315.325 C 233.600 315.394,234.185 315.979,234.900 316.625 L 236.200 317.800 235.025 316.500 C 233.930 315.288,233.600 315.016,233.600 315.325 " stroke="none" fill="#adbcfc" fill-rule="evenodd"></path><path id="path3" d="M118.800 100.345 C 118.800 100.534,119.250 100.603,119.800 100.498 C 120.350 100.393,120.800 100.238,120.800 100.153 C 120.800 100.069,120.350 100.000,119.800 100.000 C 119.250 100.000,118.800 100.155,118.800 100.345 M276.033 100.144 C 276.505 100.550,278.443 100.793,278.210 100.416 C 278.068 100.187,277.483 100.000,276.910 100.000 C 276.336 100.000,275.942 100.065,276.033 100.144 M285.468 106.706 C 285.594 107.205,285.855 107.710,286.048 107.830 C 286.596 108.168,286.462 107.436,285.820 106.576 C 285.260 105.827,285.248 105.832,285.468 106.706 M110.379 108.255 C 110.158 108.836,110.052 109.385,110.143 109.476 C 110.233 109.567,110.499 109.092,110.733 108.420 C 111.253 106.928,110.939 106.782,110.379 108.255 M286.703 180.117 C 286.760 219.304,286.940 251.500,287.103 251.663 C 287.266 251.827,287.310 219.854,287.200 180.613 C 287.090 141.373,286.910 109.177,286.800 109.067 C 286.690 108.957,286.646 140.929,286.703 180.117 M268.800 114.111 C 268.800 114.187,269.385 114.678,270.100 115.201 C 270.904 115.790,271.184 115.887,270.833 115.455 C 270.300 114.799,268.800 113.807,268.800 114.111 M254.600 141.600 C 254.600 143.098,254.735 144.240,254.900 144.138 C 255.065 144.036,255.200 142.894,255.200 141.600 C 255.200 140.306,255.065 139.164,254.900 139.062 C 254.735 138.960,254.600 140.102,254.600 141.600 M139.400 163.906 C 139.180 164.068,138.643 164.650,138.206 165.200 C 137.543 166.035,137.626 166.006,138.706 165.025 C 139.874 163.964,140.191 163.588,139.900 163.606 C 139.845 163.609,139.620 163.744,139.400 163.906 M254.769 164.636 C 255.446 165.205,256.000 165.914,256.000 166.212 C 256.000 166.509,256.178 166.863,256.395 166.997 C 256.630 167.142,256.688 166.949,256.537 166.521 C 256.225 165.637,254.383 163.600,253.894 163.600 C 253.699 163.600,254.092 164.066,254.769 164.636 M136.893 169.600 C 136.893 170.370,136.975 170.685,137.076 170.300 C 137.176 169.915,137.176 169.285,137.076 168.900 C 136.975 168.515,136.893 168.830,136.893 169.600 M137.600 173.058 C 137.600 173.274,138.185 173.979,138.900 174.625 L 140.200 175.800 139.000 174.402 C 138.340 173.633,137.755 172.928,137.700 172.835 C 137.645 172.743,137.600 172.843,137.600 173.058 M254.400 174.800 C 253.850 175.230,253.597 175.586,253.838 175.591 C 254.079 175.596,254.602 175.240,255.000 174.800 C 255.912 173.792,255.688 173.792,254.400 174.800 M141.062 176.100 C 141.304 176.492,252.696 176.492,252.938 176.100 C 253.040 175.935,227.868 175.800,197.000 175.800 C 166.132 175.800,140.960 175.935,141.062 176.100 M253.631 190.910 C 254.374 191.410,255.390 192.426,255.890 193.169 C 256.391 193.911,256.800 194.368,256.800 194.184 C 256.800 193.499,255.000 191.254,253.957 190.638 C 252.328 189.676,252.093 189.873,253.631 190.910 M136.901 196.600 C 136.905 197.480,136.987 197.793,137.083 197.295 C 137.179 196.798,137.175 196.078,137.075 195.695 C 136.975 195.313,136.896 195.720,136.901 196.600 M255.682 200.427 C 255.184 201.292,254.857 202.000,254.955 202.000 C 255.231 202.000,256.912 199.179,256.739 199.006 C 256.655 198.922,256.180 199.562,255.682 200.427 M139.400 218.706 C 139.180 218.868,138.643 219.450,138.206 220.000 C 137.543 220.835,137.626 220.806,138.706 219.825 C 139.874 218.764,140.191 218.388,139.900 218.406 C 139.845 218.409,139.620 218.544,139.400 218.706 M255.046 219.581 C 255.512 220.142,256.092 220.960,256.334 221.400 C 256.577 221.840,256.781 221.972,256.788 221.694 C 256.795 221.416,256.215 220.598,255.500 219.876 C 254.785 219.154,254.581 219.021,255.046 219.581 M136.893 224.400 C 136.893 225.170,136.975 225.485,137.076 225.100 C 137.176 224.715,137.176 224.085,137.076 223.700 C 136.975 223.315,136.893 223.630,136.893 224.400 M137.600 227.959 C 137.600 228.331,139.954 230.599,140.103 230.371 C 140.164 230.277,139.626 229.630,138.907 228.934 C 138.188 228.238,137.600 227.799,137.600 227.959 M254.400 229.600 C 253.850 230.030,253.597 230.386,253.838 230.391 C 254.079 230.396,254.602 230.040,255.000 229.600 C 255.912 228.592,255.688 228.592,254.400 229.600 M141.141 230.901 C 141.307 231.067,166.453 231.157,197.021 231.101 L 252.600 231.000 196.720 230.800 C 165.986 230.690,140.976 230.736,141.141 230.901 M253.862 239.900 C 253.760 240.065,254.514 240.147,255.538 240.083 C 258.712 239.884,259.109 239.711,256.524 239.654 C 255.162 239.625,253.964 239.735,253.862 239.900 M259.639 240.500 C 259.735 240.555,260.620 241.320,261.606 242.200 L 263.400 243.800 261.819 242.100 C 260.949 241.165,260.064 240.400,259.852 240.400 C 259.640 240.400,259.544 240.445,259.639 240.500 M249.478 243.413 C 248.860 243.956,248.514 244.400,248.708 244.400 C 248.902 244.400,249.483 243.950,250.000 243.400 C 251.195 242.128,250.931 242.134,249.478 243.413 M142.252 245.516 C 142.144 245.690,142.673 245.761,143.428 245.673 C 144.183 245.585,144.800 245.442,144.800 245.356 C 144.800 245.055,142.445 245.203,142.252 245.516 M194.400 245.356 C 194.400 245.442,195.017 245.585,195.772 245.673 C 196.527 245.761,197.056 245.690,196.948 245.516 C 196.755 245.203,194.400 245.055,194.400 245.356 M242.400 247.800 C 241.850 248.114,241.580 248.372,241.800 248.372 C 242.020 248.372,242.650 248.114,243.200 247.800 C 243.750 247.486,244.020 247.228,243.800 247.228 C 243.580 247.228,242.950 247.486,242.400 247.800 M229.200 251.212 C 228.781 251.491,229.142 251.533,230.400 251.350 C 232.641 251.025,232.960 250.798,231.167 250.806 C 230.415 250.809,229.530 250.992,229.200 251.212 M221.775 254.100 L 220.600 255.400 221.998 254.200 C 222.767 253.540,223.472 252.955,223.565 252.900 C 223.657 252.845,223.557 252.800,223.342 252.800 C 223.126 252.800,222.421 253.385,221.775 254.100 M199.684 255.099 C 199.181 255.871,198.845 256.579,198.939 256.672 C 199.032 256.766,199.510 256.193,200.000 255.400 C 201.157 253.528,200.881 253.265,199.684 255.099 M219.067 258.267 C 218.920 258.413,218.818 259.088,218.841 259.767 L 218.882 261.000 219.210 259.603 C 219.553 258.147,219.517 257.816,219.067 258.267 M293.896 261.641 C 294.097 266.733,294.303 267.385,294.325 263.000 C 294.336 261.020,294.210 259.058,294.046 258.641 C 293.882 258.223,293.815 259.573,293.896 261.641 M259.200 266.231 C 259.200 266.501,261.278 267.256,261.476 267.057 C 261.567 266.967,261.092 266.701,260.420 266.467 C 259.749 266.233,259.200 266.127,259.200 266.231 M249.656 268.034 C 249.136 268.455,248.866 268.794,249.056 268.787 C 249.544 268.769,250.976 267.643,250.771 267.439 C 250.677 267.345,250.175 267.613,249.656 268.034 M264.399 269.401 C 265.168 270.280,265.955 271.180,266.148 271.400 C 266.340 271.620,266.311 271.440,266.083 271.000 C 265.855 270.560,265.068 269.660,264.334 269.001 L 263.000 267.802 264.399 269.401 M255.200 270.288 C 254.650 270.387,254.043 270.619,253.851 270.803 C 253.659 270.987,254.168 270.988,254.983 270.804 C 255.797 270.620,256.569 270.364,256.698 270.235 C 256.943 269.990,256.843 269.994,255.200 270.288 M252.092 271.821 C 251.605 272.162,251.015 272.837,250.781 273.321 C 250.390 274.128,250.424 274.120,251.200 273.227 C 251.665 272.692,252.351 272.023,252.723 271.740 C 253.686 271.008,253.155 271.076,252.092 271.821 M260.000 271.325 C 260.000 271.394,260.585 271.979,261.300 272.625 L 262.600 273.800 261.425 272.500 C 260.330 271.288,260.000 271.016,260.000 271.325 M245.879 272.700 C 245.569 273.253,245.132 275.402,245.380 275.154 C 245.677 274.856,246.405 272.400,246.196 272.400 C 246.114 272.400,245.971 272.535,245.879 272.700 M262.929 275.567 C 263.244 276.745,263.244 277.655,262.929 278.833 C 262.604 280.050,262.609 280.351,262.947 280.013 C 263.196 279.764,263.400 278.498,263.400 277.200 C 263.400 275.902,263.196 274.636,262.947 274.387 C 262.609 274.049,262.604 274.350,262.929 275.567 M293.873 279.552 C 293.707 282.276,293.650 284.583,293.745 284.679 C 293.992 284.925,294.514 276.807,294.329 275.600 C 294.244 275.050,294.039 276.829,293.873 279.552 M267.709 277.200 C 267.709 278.190,267.787 278.595,267.882 278.100 C 267.978 277.605,267.978 276.795,267.882 276.300 C 267.787 275.805,267.709 276.210,267.709 277.200 M218.838 280.400 C 218.824 281.830,218.971 283.250,219.165 283.556 C 219.378 283.893,219.441 283.025,219.326 281.356 C 219.067 277.636,218.869 277.247,218.838 280.400 M253.800 283.940 C 254.020 284.258,254.301 286.697,254.424 289.359 L 254.649 294.200 254.724 289.544 C 254.788 285.599,254.693 284.772,254.100 284.125 C 253.715 283.706,253.580 283.622,253.800 283.940 M258.598 284.500 C 258.294 285.358,258.185 296.001,258.480 296.001 C 258.634 296.000,258.814 293.300,258.880 289.999 C 258.997 284.146,258.962 283.471,258.598 284.500 M262.885 291.003 C 262.838 293.424,262.623 296.022,262.407 296.776 C 262.191 297.530,262.089 298.222,262.181 298.314 C 262.691 298.824,263.210 294.635,263.099 290.907 L 262.970 286.600 262.885 291.003 M292.846 288.867 C 292.821 289.234,292.696 289.864,292.570 290.267 C 292.352 290.962,292.363 290.963,292.797 290.287 C 293.048 289.896,293.173 289.266,293.073 288.887 C 292.911 288.268,292.888 288.266,292.846 288.867 M220.000 290.110 C 220.000 290.683,220.187 291.268,220.416 291.410 C 220.689 291.579,220.738 291.277,220.560 290.534 C 220.192 289.001,220.000 288.856,220.000 290.110 M221.228 295.076 C 221.213 295.558,221.380 296.064,221.600 296.200 C 222.073 296.492,222.073 296.101,221.600 295.000 C 221.269 294.229,221.255 294.231,221.228 295.076 M254.428 295.476 C 254.413 295.958,254.580 296.464,254.800 296.600 C 255.273 296.892,255.273 296.501,254.800 295.400 C 254.469 294.629,254.455 294.631,254.428 295.476 M222.229 298.000 C 222.376 298.550,222.664 299.270,222.867 299.600 C 223.125 300.017,223.157 299.895,222.971 299.200 C 222.824 298.650,222.536 297.930,222.333 297.600 C 222.075 297.183,222.043 297.305,222.229 298.000 M126.400 299.933 C 126.730 300.136,127.450 300.424,128.000 300.571 C 128.695 300.757,128.817 300.725,128.400 300.467 C 128.070 300.264,127.350 299.976,126.800 299.829 C 126.105 299.643,125.983 299.675,126.400 299.933 M110.229 305.200 C 110.376 305.750,110.664 306.470,110.867 306.800 C 111.125 307.217,111.157 307.095,110.971 306.400 C 110.824 305.850,110.536 305.130,110.333 304.800 C 110.075 304.383,110.043 304.505,110.229 305.200 M113.600 310.586 C 113.600 310.765,113.915 311.160,114.300 311.463 C 115.136 312.121,116.773 313.051,116.200 312.543 C 114.118 310.696,113.600 310.306,113.600 310.586 M282.001 312.598 C 281.486 313.148,281.152 313.685,281.260 313.794 C 281.368 313.902,281.854 313.452,282.340 312.795 C 283.417 311.339,283.266 311.252,282.001 312.598 M233.400 315.600 C 234.259 316.480,235.052 317.200,235.162 317.200 C 235.272 317.200,234.659 316.480,233.800 315.600 C 232.941 314.720,232.148 314.000,232.038 314.000 C 231.928 314.000,232.541 314.720,233.400 315.600 M277.170 317.468 L 276.200 318.536 277.287 317.768 C 277.886 317.346,278.381 316.865,278.387 316.700 C 278.408 316.207,278.189 316.346,277.170 317.468 M236.013 317.881 C 236.019 318.057,236.469 318.523,237.013 318.919 C 237.556 319.314,237.994 319.494,237.987 319.319 C 237.981 319.143,237.531 318.677,236.987 318.281 C 236.444 317.886,236.006 317.706,236.013 317.881 M274.400 319.649 C 273.006 320.871,273.005 320.872,274.288 320.019 C 274.996 319.548,275.682 318.991,275.812 318.781 C 276.197 318.157,275.877 318.354,274.400 319.649 M263.700 325.612 C 263.205 325.811,262.800 326.070,262.800 326.187 C 262.800 326.575,263.437 326.408,264.224 325.813 C 265.108 325.143,264.985 325.096,263.700 325.612 M260.600 327.014 C 259.600 327.496,259.566 327.551,260.400 327.348 C 261.533 327.071,262.807 326.421,262.200 326.430 C 261.980 326.433,261.260 326.696,260.600 327.014 M254.537 328.094 C 255.146 328.480,258.301 328.485,258.537 328.100 C 258.638 327.935,257.675 327.800,256.398 327.800 C 255.120 327.800,254.283 327.932,254.537 328.094 " stroke="none" fill="#8da4fc" fill-rule="evenodd"></path><path id="path4" d="M119.000 100.685 C 118.560 100.791,118.035 101.034,117.834 101.225 C 117.633 101.416,118.173 101.379,119.034 101.144 C 121.355 100.510,121.327 100.126,119.000 100.685 M283.018 104.009 C 283.668 104.785,284.523 105.865,284.917 106.409 C 285.608 107.363,285.608 107.351,284.921 106.082 C 284.528 105.357,283.673 104.277,283.021 103.682 L 281.836 102.600 283.018 104.009 M112.800 105.000 C 112.283 105.550,112.027 105.994,112.230 105.987 C 112.572 105.976,114.221 104.000,113.888 104.000 C 113.806 104.000,113.317 104.450,112.800 105.000 M286.068 109.200 C 286.088 110.239,286.718 111.946,286.732 111.000 C 286.738 110.560,286.589 109.840,286.400 109.400 C 286.189 108.910,286.061 108.832,286.068 109.200 M110.197 207.200 C 110.197 260.110,110.243 281.755,110.300 255.300 C 110.357 228.845,110.357 185.555,110.300 159.100 C 110.243 132.645,110.197 154.290,110.197 207.200 M268.000 113.486 C 268.330 113.608,268.960 113.874,269.400 114.076 C 270.187 114.438,270.188 114.434,269.424 113.822 C 268.996 113.480,268.366 113.214,268.024 113.232 C 267.485 113.259,267.482 113.293,268.000 113.486 M124.604 115.196 C 123.974 115.854,123.535 116.456,123.629 116.534 C 123.723 116.612,124.313 116.074,124.939 115.338 C 126.354 113.677,126.145 113.588,124.604 115.196 M272.240 117.866 C 272.608 119.399,272.800 119.544,272.800 118.290 C 272.800 117.717,272.613 117.132,272.384 116.990 C 272.111 116.821,272.062 117.123,272.240 117.866 M122.996 207.000 C 122.996 256.060,123.043 276.189,123.100 251.732 C 123.157 227.275,123.157 187.135,123.100 162.532 C 123.043 137.929,122.996 157.940,122.996 207.000 M210.700 135.500 C 217.795 135.561,229.405 135.561,236.500 135.500 C 243.595 135.439,237.790 135.389,223.600 135.389 C 209.410 135.389,203.605 135.439,210.700 135.500 M194.406 137.394 C 193.663 138.161,193.132 138.850,193.227 138.925 C 193.322 139.000,194.006 138.373,194.746 137.531 C 196.429 135.618,196.212 135.531,194.406 137.394 M251.200 136.111 C 251.200 136.187,251.785 136.678,252.500 137.201 C 253.304 137.790,253.584 137.887,253.233 137.455 C 252.700 136.799,251.200 135.807,251.200 136.111 M254.045 139.500 C 254.497 140.857,254.800 141.168,254.800 140.276 C 254.800 139.989,254.532 139.404,254.205 138.976 C 253.662 138.266,253.648 138.311,254.045 139.500 M193.200 144.363 C 193.200 144.728,195.954 147.399,196.098 147.173 C 196.158 147.078,195.531 146.344,194.704 145.541 C 193.877 144.739,193.200 144.209,193.200 144.363 M252.838 163.700 C 252.932 163.755,253.727 164.430,254.604 165.200 L 256.200 166.600 254.822 165.100 C 254.063 164.275,253.268 163.600,253.055 163.600 C 252.841 163.600,252.744 163.645,252.838 163.700 M137.443 167.433 C 137.106 168.309,137.149 171.301,137.506 171.862 C 137.668 172.116,137.800 171.081,137.800 169.562 C 137.800 166.541,137.795 166.514,137.443 167.433 M256.501 169.400 C 256.505 170.280,256.587 170.593,256.683 170.095 C 256.779 169.598,256.775 168.878,256.675 168.495 C 256.575 168.113,256.496 168.520,256.501 169.400 M254.575 174.100 L 253.400 175.400 254.700 174.225 C 255.415 173.579,256.000 172.994,256.000 172.925 C 256.000 172.616,255.670 172.888,254.575 174.100 M169.469 190.300 C 184.467 190.358,209.127 190.358,224.269 190.300 C 239.411 190.242,227.140 190.194,197.000 190.194 C 166.860 190.194,154.471 190.242,169.469 190.300 M139.322 191.829 L 138.200 192.858 139.500 191.954 C 140.215 191.457,140.800 190.993,140.800 190.925 C 140.800 190.609,140.358 190.880,139.322 191.829 M137.443 194.633 C 137.106 195.511,137.150 198.501,137.508 199.064 C 137.670 199.320,137.802 198.285,137.802 196.765 C 137.800 193.741,137.795 193.714,137.443 194.633 M256.501 196.600 C 256.505 197.480,256.587 197.793,256.683 197.295 C 256.779 196.798,256.775 196.078,256.675 195.695 C 256.575 195.313,256.496 195.720,256.501 196.600 M254.799 200.900 C 254.210 201.704,254.113 201.984,254.545 201.633 C 255.201 201.100,256.193 199.600,255.889 199.600 C 255.813 199.600,255.322 200.185,254.799 200.900 M138.000 200.125 C 138.000 200.194,138.585 200.779,139.300 201.425 L 140.600 202.600 139.425 201.300 C 138.330 200.088,138.000 199.816,138.000 200.125 M141.738 202.894 C 141.992 203.056,166.860 203.188,197.000 203.188 C 227.140 203.188,252.008 203.056,252.262 202.894 C 252.516 202.732,227.648 202.600,197.000 202.600 C 166.352 202.600,141.484 202.732,141.738 202.894 M252.838 218.500 C 252.932 218.555,253.727 219.230,254.604 220.000 L 256.200 221.400 254.822 219.900 C 254.063 219.075,253.268 218.400,253.055 218.400 C 252.841 218.400,252.744 218.445,252.838 218.500 M137.443 222.233 C 137.106 223.109,137.149 226.101,137.506 226.662 C 137.668 226.916,137.800 225.881,137.800 224.362 C 137.800 221.341,137.795 221.314,137.443 222.233 M256.501 224.200 C 256.505 225.080,256.587 225.393,256.683 224.895 C 256.779 224.398,256.775 223.678,256.675 223.295 C 256.575 222.913,256.496 223.320,256.501 224.200 M138.000 227.725 C 138.000 227.794,138.585 228.379,139.300 229.025 L 140.600 230.200 139.425 228.900 C 138.330 227.688,138.000 227.416,138.000 227.725 M254.575 228.900 L 253.400 230.200 254.700 229.025 C 255.415 228.379,256.000 227.794,256.000 227.725 C 256.000 227.416,255.670 227.688,254.575 228.900 M252.731 241.392 C 251.779 242.157,250.010 243.533,248.800 244.449 C 246.362 246.295,245.443 247.114,246.400 246.587 C 247.505 245.978,249.784 244.243,251.522 242.686 C 252.469 241.837,253.819 240.893,254.522 240.587 C 255.225 240.281,255.499 240.024,255.131 240.016 C 254.763 240.007,253.683 240.626,252.731 241.392 M259.600 240.926 C 259.600 241.036,260.500 241.879,261.600 242.800 C 262.700 243.721,263.600 244.384,263.600 244.274 C 263.600 244.164,262.700 243.321,261.600 242.400 C 260.500 241.479,259.600 240.816,259.600 240.926 M142.200 245.984 C 141.760 246.167,140.860 246.921,140.200 247.658 L 139.000 249.000 140.309 247.816 C 141.029 247.165,142.109 246.415,142.709 246.149 C 143.925 245.610,143.460 245.459,142.200 245.984 M197.600 246.525 C 197.600 246.594,198.185 247.179,198.900 247.825 L 200.200 249.000 199.025 247.700 C 197.930 246.488,197.600 246.216,197.600 246.525 M138.643 249.833 C 138.310 250.701,138.348 252.899,138.706 253.462 C 138.868 253.716,139.000 252.861,139.000 251.562 C 139.000 248.961,138.992 248.923,138.643 249.833 M239.200 249.600 C 238.667 249.945,238.667 249.988,239.200 249.988 C 239.530 249.988,240.070 249.813,240.400 249.600 C 240.933 249.255,240.933 249.212,240.400 249.212 C 240.070 249.212,239.530 249.387,239.200 249.600 M200.268 251.000 C 200.571 252.977,200.802 253.314,200.794 251.767 C 200.791 251.125,200.616 250.330,200.405 250.000 C 200.145 249.591,200.101 249.910,200.268 251.000 M234.800 250.800 C 234.008 251.054,233.967 251.120,234.600 251.120 C 235.040 251.120,235.850 250.976,236.400 250.800 C 237.192 250.546,237.233 250.480,236.600 250.480 C 236.160 250.480,235.350 250.624,234.800 250.800 M228.100 251.887 C 228.705 251.978,229.695 251.978,230.300 251.887 C 230.905 251.795,230.410 251.720,229.200 251.720 C 227.990 251.720,227.495 251.795,228.100 251.887 M198.402 255.927 C 197.406 256.977,197.282 257.219,197.973 256.771 C 198.798 256.235,200.391 254.346,199.949 254.427 C 199.867 254.443,199.171 255.118,198.402 255.927 M142.938 257.694 C 143.192 257.856,155.190 257.988,169.600 257.988 C 184.010 257.988,196.008 257.856,196.262 257.694 C 196.516 257.532,184.518 257.400,169.600 257.400 C 154.682 257.400,142.684 257.532,142.938 257.694 M293.771 269.200 C 293.771 274.150,293.828 276.175,293.899 273.700 C 293.969 271.225,293.969 267.175,293.899 264.700 C 293.828 262.225,293.771 264.250,293.771 269.200 M254.000 265.607 C 253.379 265.811,253.909 265.851,255.400 265.712 C 256.720 265.589,257.875 265.424,257.967 265.344 C 258.289 265.065,254.988 265.284,254.000 265.607 M258.433 265.744 C 258.525 265.823,259.140 266.008,259.800 266.156 C 260.676 266.352,260.838 266.315,260.400 266.018 C 259.860 265.653,258.032 265.398,258.433 265.744 M264.013 268.437 C 264.791 269.187,265.839 270.340,266.343 271.000 C 266.847 271.660,267.126 271.930,266.964 271.600 C 266.261 270.171,265.078 268.770,263.884 267.953 L 262.600 267.074 264.013 268.437 M247.978 269.100 L 246.600 270.600 248.100 269.222 C 249.496 267.938,249.784 267.600,249.478 267.600 C 249.412 267.600,248.737 268.275,247.978 269.100 M257.200 270.884 C 257.310 270.993,258.026 271.293,258.791 271.551 C 259.556 271.810,260.006 271.850,259.791 271.639 C 259.576 271.429,258.860 271.129,258.200 270.972 C 257.540 270.816,257.090 270.776,257.200 270.884 M245.049 273.815 C 244.912 274.173,244.815 274.766,244.834 275.133 C 244.853 275.500,245.027 275.269,245.221 274.620 C 245.598 273.358,245.465 272.733,245.049 273.815 M268.128 277.200 C 268.128 278.630,268.201 279.215,268.289 278.500 C 268.378 277.785,268.378 276.615,268.289 275.900 C 268.201 275.185,268.128 275.770,268.128 277.200 M250.030 278.400 C 250.028 278.976,251.157 281.266,251.186 280.746 C 251.194 280.606,250.937 279.886,250.616 279.146 C 250.294 278.406,250.031 278.070,250.030 278.400 M219.309 280.000 C 219.309 280.990,219.387 281.395,219.482 280.900 C 219.578 280.405,219.578 279.595,219.482 279.100 C 219.387 278.605,219.309 279.010,219.309 280.000 M260.000 282.454 L 258.200 284.085 259.894 282.813 C 261.368 281.707,262.314 280.774,261.924 280.812 C 261.856 280.819,260.990 281.558,260.000 282.454 M293.029 283.629 C 292.876 284.979,292.833 286.166,292.933 286.267 C 293.034 286.367,293.244 285.347,293.400 284.000 C 293.556 282.653,293.599 281.466,293.495 281.362 C 293.391 281.258,293.181 282.278,293.029 283.629 M219.714 283.800 C 219.717 284.900,219.795 285.303,219.887 284.695 C 219.979 284.086,219.977 283.186,219.882 282.695 C 219.787 282.203,219.711 282.700,219.714 283.800 M246.364 283.533 C 246.580 283.936,247.071 284.521,247.455 284.833 C 247.887 285.184,247.790 284.904,247.201 284.100 C 246.151 282.665,245.757 282.398,246.364 283.533 M258.158 289.800 C 258.158 292.880,258.221 294.087,258.297 292.482 C 258.373 290.878,258.373 288.358,258.296 286.882 C 258.219 285.407,258.157 286.720,258.158 289.800 M264.507 285.700 L 263.257 287.000 263.129 292.264 C 263.058 295.159,263.132 297.319,263.294 297.064 C 263.456 296.809,263.591 294.449,263.594 291.819 L 263.600 287.038 264.878 285.719 C 265.582 284.994,266.067 284.400,265.957 284.400 C 265.847 284.400,265.194 284.985,264.507 285.700 M254.914 287.000 C 254.917 288.100,254.995 288.503,255.087 287.895 C 255.179 287.286,255.177 286.386,255.082 285.895 C 254.987 285.403,254.911 285.900,254.914 287.000 M249.344 292.280 C 249.385 295.885,249.546 297.296,249.959 297.680 C 250.423 298.112,250.458 298.098,250.168 297.600 C 249.976 297.270,249.699 294.840,249.553 292.200 L 249.289 287.400 249.344 292.280 M220.468 289.600 C 220.488 290.639,221.118 292.346,221.132 291.400 C 221.138 290.960,220.989 290.240,220.800 289.800 C 220.589 289.310,220.461 289.232,220.468 289.600 M221.848 295.400 C 221.991 296.060,222.266 296.870,222.459 297.200 C 222.684 297.584,222.718 297.368,222.552 296.600 C 222.409 295.940,222.134 295.130,221.941 294.800 C 221.716 294.416,221.682 294.632,221.848 295.400 M254.812 295.420 C 254.774 296.739,256.782 297.223,257.632 296.100 C 258.082 295.504,258.078 295.475,257.601 295.900 C 256.803 296.611,255.709 296.519,255.232 295.700 C 255.008 295.315,254.819 295.189,254.812 295.420 M124.086 298.371 C 124.401 298.905,125.095 299.602,125.629 299.920 L 126.600 300.498 125.712 299.749 C 125.223 299.337,124.529 298.640,124.168 298.200 C 123.543 297.437,123.539 297.445,124.086 298.371 M222.939 298.400 C 223.022 298.730,223.218 299.407,223.374 299.905 L 223.657 300.810 175.267 300.705 C 148.652 300.647,127.084 300.732,127.338 300.894 C 128.042 301.342,223.509 301.271,223.786 300.822 C 223.915 300.614,223.743 299.849,223.404 299.122 C 223.065 298.395,222.856 298.070,222.939 298.400 M250.400 298.647 C 250.400 301.432,259.143 302.425,261.425 299.900 L 262.600 298.600 261.378 299.700 C 259.419 301.464,252.958 301.379,251.436 299.569 C 250.866 298.892,250.400 298.478,250.400 298.647 M279.286 314.860 C 277.903 316.205,276.833 317.366,276.908 317.441 C 276.983 317.517,278.200 316.413,279.611 314.989 C 282.862 311.709,282.624 311.614,279.286 314.860 M119.915 313.672 C 120.292 313.821,145.800 313.914,176.600 313.878 C 207.400 313.841,226.750 313.764,219.600 313.706 C 187.720 313.449,119.294 313.426,119.915 313.672 M237.344 318.309 C 237.660 318.821,240.000 320.553,240.000 320.275 C 240.000 320.176,239.339 319.591,238.532 318.975 C 237.724 318.359,237.189 318.059,237.344 318.309 M268.700 322.629 C 267.205 323.440,267.296 323.778,268.800 323.000 C 269.460 322.659,270.000 322.294,270.000 322.190 C 270.000 321.932,269.957 321.947,268.700 322.629 M246.400 324.200 C 246.950 324.514,247.580 324.772,247.800 324.772 C 248.020 324.772,247.750 324.514,247.200 324.200 C 246.650 323.886,246.020 323.628,245.800 323.628 C 245.580 323.628,245.850 323.886,246.400 324.200 M257.400 327.442 L 255.400 327.990 257.162 327.780 C 258.130 327.665,259.210 327.403,259.562 327.198 C 260.395 326.710,259.848 326.772,257.400 327.442 " stroke="none" fill="#c4ccfc" fill-rule="evenodd"></path></g></svg>