<svg id="svg" version="1.1" xmlns="http://www.w3.org/2000/svg" xmlns:xlink="http://www.w3.org/1999/xlink" width="400" height="400" viewBox="0, 0, 400,400"><g id="svgg"><path id="path0" d="M192.400 97.847 C 148.647 101.842,132.919 159.872,168.411 186.353 C 193.766 205.271,231.820 195.221,243.209 166.600 C 243.734 165.280,244.289 164.020,244.441 163.800 C 246.697 160.546,247.872 143.615,246.314 136.800 C 240.540 111.539,218.314 95.480,192.400 97.847 M153.200 197.456 C 133.138 200.401,121.552 214.216,115.839 242.000 C 113.118 255.234,112.997 274.331,115.593 281.000 C 120.101 292.581,128.199 299.468,140.613 302.279 C 144.861 303.240,252.233 303.408,256.800 302.460 C 259.944 301.808,262.958 300.928,264.660 300.165 C 265.354 299.854,266.022 299.600,266.146 299.600 C 266.980 299.600,272.684 295.603,274.825 293.520 C 282.042 286.496,284.805 278.720,284.794 265.457 C 284.772 236.391,276.023 213.020,261.600 203.498 C 257.488 200.783,255.733 200.042,248.473 197.951 C 247.523 197.678,244.636 197.442,242.059 197.427 L 237.372 197.400 233.986 199.362 C 232.124 200.441,228.856 202.470,226.724 203.870 C 221.265 207.457,217.630 209.122,209.923 211.567 C 202.554 213.904,191.182 212.944,181.714 209.184 C 177.616 207.557,175.984 206.646,168.400 201.744 C 161.602 197.351,158.971 196.608,153.200 197.456 " stroke="none" fill="#fbfcfc" fill-rule="evenodd"></path><path id="path1" d="M49.824 0.464 C 48.076 0.665,46.456 0.986,46.224 1.177 C 45.991 1.369,44.943 1.653,43.895 1.809 C 42.847 1.965,41.892 2.252,41.771 2.446 C 41.651 2.641,41.248 2.801,40.876 2.802 C 40.504 2.804,39.684 3.074,39.054 3.402 C 38.424 3.731,37.659 4.000,37.354 4.000 C 37.049 4.000,36.800 4.180,36.800 4.400 C 36.800 4.620,36.575 4.806,36.300 4.814 C 36.025 4.821,35.080 5.175,34.200 5.600 C 33.320 6.025,32.375 6.379,32.100 6.386 C 31.825 6.394,31.600 6.580,31.600 6.800 C 31.600 7.020,31.339 7.200,31.020 7.200 C 30.701 7.200,30.296 7.425,30.120 7.700 C 29.944 7.975,28.928 8.650,27.862 9.200 C 26.796 9.750,25.482 10.605,24.941 11.100 C 24.401 11.595,23.871 12.000,23.764 12.000 C 23.657 12.000,22.820 12.720,21.904 13.600 C 20.988 14.480,20.091 15.200,19.911 15.200 C 19.483 15.200,15.200 19.483,15.200 19.911 C 15.200 20.091,14.480 20.988,13.600 21.904 C 12.720 22.820,12.000 23.657,12.000 23.764 C 12.000 23.871,11.595 24.401,11.100 24.941 C 10.605 25.482,9.750 26.796,9.200 27.862 C 8.650 28.928,7.975 29.944,7.700 30.120 C 7.425 30.296,7.200 30.701,7.200 31.020 C 7.200 31.339,7.034 31.600,6.832 31.600 C 6.629 31.600,6.345 32.140,6.200 32.800 C 6.055 33.460,5.791 34.000,5.613 34.000 C 5.435 34.000,5.171 34.630,5.026 35.400 C 4.882 36.170,4.592 36.800,4.382 36.800 C 4.172 36.800,4.000 37.072,4.000 37.405 C 4.000 37.738,3.830 38.323,3.621 38.705 C 3.027 39.795,1.600 44.325,1.600 45.122 C 1.600 45.517,1.430 46.011,1.222 46.220 C -0.099 47.548,-0.610 346.842,0.702 351.400 C 0.955 352.280,1.396 353.930,1.681 355.067 C 1.967 356.204,2.335 357.269,2.500 357.434 C 2.665 357.598,2.800 357.991,2.800 358.306 C 2.800 358.621,3.070 359.491,3.400 360.240 C 3.730 360.988,4.270 362.212,4.600 362.960 C 4.930 363.709,5.200 364.519,5.200 364.760 C 5.200 365.002,5.366 365.200,5.568 365.200 C 5.771 365.200,6.055 365.740,6.200 366.400 C 6.345 367.060,6.629 367.600,6.832 367.600 C 7.034 367.600,7.200 367.857,7.200 368.171 C 7.200 368.486,7.425 368.984,7.700 369.279 C 7.975 369.573,8.546 370.441,8.969 371.207 C 9.687 372.508,11.956 375.618,14.080 378.210 C 16.302 380.923,23.021 387.200,23.703 387.200 C 23.913 387.200,24.439 387.650,24.871 388.200 C 25.304 388.750,25.915 389.200,26.229 389.200 C 26.543 389.200,26.800 389.368,26.800 389.573 C 26.800 389.778,27.205 390.072,27.700 390.227 C 28.195 390.381,28.690 390.619,28.800 390.754 C 29.125 391.154,30.519 391.994,31.700 392.502 C 32.305 392.762,32.800 393.108,32.800 393.270 C 32.800 393.431,33.430 393.682,34.200 393.826 C 34.970 393.971,35.600 394.241,35.600 394.426 C 35.600 394.612,36.230 394.882,37.000 395.026 C 37.770 395.171,38.400 395.449,38.400 395.645 C 38.400 395.840,38.749 396.000,39.176 396.000 C 39.603 396.000,40.058 396.170,40.186 396.377 C 40.314 396.584,41.224 396.875,42.209 397.022 C 43.194 397.170,44.000 397.437,44.000 397.617 C 44.000 397.796,45.035 398.068,46.300 398.221 C 47.565 398.374,48.853 398.702,49.161 398.949 C 49.962 399.592,349.903 399.596,350.315 398.954 C 350.472 398.709,351.635 398.381,352.900 398.225 C 354.165 398.070,355.200 397.775,355.200 397.571 C 355.200 397.367,355.646 397.200,356.192 397.200 C 357.211 397.200,360.443 396.067,360.800 395.585 C 360.910 395.437,361.675 395.191,362.500 395.040 C 363.325 394.888,364.000 394.606,364.000 394.414 C 364.000 394.221,364.540 393.945,365.200 393.800 C 365.860 393.655,366.400 393.385,366.400 393.200 C 366.400 393.015,366.940 392.745,367.600 392.600 C 368.260 392.455,368.800 392.174,368.800 391.976 C 368.800 391.778,369.250 391.502,369.800 391.364 C 370.350 391.226,370.800 390.953,370.800 390.757 C 370.800 390.560,370.999 390.400,371.242 390.400 C 371.710 390.400,374.906 388.020,375.133 387.503 C 375.207 387.336,375.458 387.200,375.693 387.200 C 375.927 387.200,376.731 386.570,377.479 385.800 C 378.227 385.030,378.995 384.400,379.187 384.400 C 379.379 384.400,380.630 383.306,381.968 381.968 C 383.306 380.630,384.400 379.379,384.400 379.187 C 384.400 378.995,385.030 378.227,385.800 377.479 C 386.570 376.731,387.200 375.927,387.200 375.693 C 387.200 375.458,387.336 375.207,387.503 375.133 C 388.020 374.906,390.400 371.710,390.400 371.242 C 390.400 370.999,390.560 370.800,390.757 370.800 C 390.953 370.800,391.226 370.350,391.364 369.800 C 391.502 369.250,391.778 368.800,391.976 368.800 C 392.174 368.800,392.455 368.260,392.600 367.600 C 392.745 366.940,393.015 366.400,393.200 366.400 C 393.385 366.400,393.655 365.860,393.800 365.200 C 393.945 364.540,394.221 364.000,394.414 364.000 C 394.606 364.000,394.888 363.325,395.040 362.500 C 395.191 361.675,395.437 360.910,395.585 360.800 C 396.067 360.443,397.200 357.211,397.200 356.192 C 397.200 355.646,397.367 355.200,397.571 355.200 C 397.775 355.200,398.070 354.165,398.225 352.900 C 398.381 351.635,398.709 350.472,398.954 350.315 C 399.596 349.903,399.592 49.962,398.949 49.161 C 398.702 48.853,398.374 47.565,398.221 46.300 C 398.068 45.035,397.796 44.000,397.617 44.000 C 397.437 44.000,397.170 43.194,397.022 42.209 C 396.875 41.224,396.584 40.314,396.377 40.186 C 396.170 40.058,396.000 39.603,396.000 39.176 C 396.000 38.749,395.840 38.400,395.645 38.400 C 395.449 38.400,395.171 37.770,395.026 37.000 C 394.882 36.230,394.612 35.600,394.426 35.600 C 394.241 35.600,393.971 34.970,393.826 34.200 C 393.682 33.430,393.431 32.800,393.270 32.800 C 393.108 32.800,392.749 32.305,392.472 31.700 C 391.544 29.672,391.012 28.800,390.705 28.800 C 390.537 28.800,390.400 28.567,390.400 28.281 C 390.400 27.720,389.530 26.450,388.100 24.924 C 387.605 24.396,387.200 23.819,387.200 23.642 C 387.200 23.014,380.778 16.183,378.210 14.080 C 375.618 11.956,372.508 9.687,371.207 8.969 C 370.441 8.546,369.573 7.975,369.279 7.700 C 368.984 7.425,368.486 7.200,368.171 7.200 C 367.857 7.200,367.600 7.034,367.600 6.832 C 367.600 6.629,367.060 6.345,366.400 6.200 C 365.740 6.055,365.200 5.771,365.200 5.568 C 365.200 5.366,365.002 5.200,364.760 5.200 C 364.519 5.200,363.664 4.909,362.860 4.553 C 359.301 2.974,358.847 2.800,358.306 2.800 C 357.991 2.800,357.598 2.665,357.434 2.500 C 357.269 2.335,356.204 1.967,355.067 1.681 C 353.930 1.396,352.280 0.955,351.400 0.702 C 349.396 0.125,54.799 -0.107,49.824 0.464 M206.600 97.615 C 209.959 98.188,212.559 98.776,213.400 99.155 C 213.840 99.353,215.100 99.831,216.200 100.216 C 227.980 104.346,239.429 115.862,244.816 129.000 C 247.831 136.352,248.768 148.854,246.944 157.400 C 246.298 160.426,244.045 167.274,243.588 167.600 C 243.434 167.710,243.170 168.240,243.003 168.777 C 239.962 178.506,219.704 195.200,210.937 195.200 C 210.448 195.200,209.945 195.366,209.819 195.569 C 209.694 195.771,208.378 196.053,206.896 196.194 C 205.413 196.335,202.862 196.622,201.226 196.831 C 198.180 197.222,187.101 196.327,186.203 195.619 C 185.981 195.444,184.949 195.178,183.909 195.027 C 182.869 194.877,181.914 194.584,181.786 194.377 C 181.658 194.170,181.278 194.000,180.941 194.000 C 179.600 194.000,170.481 189.161,168.535 187.417 C 168.279 187.188,167.469 186.555,166.735 186.010 C 148.755 172.675,142.740 145.261,153.199 124.315 C 155.687 119.330,160.667 113.083,165.735 108.588 C 171.057 103.867,178.519 100.126,186.870 97.991 C 191.031 96.927,201.401 96.730,206.600 97.615 M160.677 196.807 C 162.076 197.130,171.355 202.391,172.000 203.227 C 174.926 207.021,190.284 211.942,199.200 211.942 C 209.952 211.942,216.607 209.532,230.600 200.572 C 236.706 196.662,236.887 196.600,241.882 196.681 C 257.065 196.927,268.949 205.130,276.536 220.600 C 278.916 225.453,280.344 229.160,281.390 233.200 C 281.761 234.630,282.231 236.430,282.436 237.200 C 284.774 245.999,286.371 267.409,285.195 274.200 C 284.492 278.261,283.929 280.610,283.569 280.980 C 283.366 281.189,283.200 281.604,283.200 281.902 C 283.200 283.650,279.846 289.221,276.816 292.506 C 272.105 297.615,266.686 300.742,259.294 302.617 L 255.418 303.600 199.209 303.595 C 138.421 303.590,143.172 303.727,136.000 301.775 C 128.032 299.607,117.340 289.808,115.733 283.200 C 115.599 282.650,115.344 282.013,115.166 281.784 C 114.826 281.349,114.232 279.172,113.531 275.800 C 112.994 273.216,113.325 250.870,113.936 248.400 C 114.182 247.410,114.572 245.430,114.805 244.000 C 115.788 237.947,116.053 236.558,116.364 235.800 C 116.545 235.360,116.906 234.190,117.165 233.200 C 118.499 228.108,119.931 224.329,122.169 219.995 C 124.619 215.253,125.354 214.005,125.700 214.003 C 125.865 214.001,126.000 213.794,126.000 213.543 C 126.000 212.597,133.987 204.007,134.871 204.002 C 135.021 204.001,135.381 203.769,135.671 203.486 C 140.119 199.160,154.375 195.352,160.677 196.807 " stroke="none" fill="#04fcfc" fill-rule="evenodd"></path><path id="path2" d="M165.775 108.900 L 164.600 110.200 165.900 109.025 C 166.615 108.379,167.200 107.794,167.200 107.725 C 167.200 107.416,166.870 107.688,165.775 108.900 M230.000 108.925 C 230.000 108.994,230.585 109.579,231.300 110.225 L 232.600 111.400 231.425 110.100 C 230.330 108.888,230.000 108.616,230.000 108.925 M234.800 113.800 C 235.546 114.570,236.247 115.200,236.357 115.200 C 236.467 115.200,235.946 114.570,235.200 113.800 C 234.454 113.030,233.753 112.400,233.643 112.400 C 233.533 112.400,234.054 113.030,234.800 113.800 M159.775 114.900 L 158.600 116.200 159.900 115.025 C 161.112 113.930,161.384 113.600,161.075 113.600 C 161.006 113.600,160.421 114.185,159.775 114.900 M247.301 141.800 C 247.305 142.680,247.387 142.993,247.483 142.495 C 247.579 141.998,247.575 141.278,247.475 140.895 C 247.375 140.513,247.296 140.920,247.301 141.800 M148.137 147.000 C 148.139 148.760,148.209 149.430,148.293 148.489 C 148.378 147.549,148.377 146.109,148.291 145.289 C 148.205 144.470,148.136 145.240,148.137 147.000 M247.301 152.200 C 247.305 153.080,247.387 153.393,247.483 152.895 C 247.579 152.398,247.575 151.678,247.475 151.295 C 247.375 150.913,247.296 151.320,247.301 152.200 M162.800 182.200 C 164.217 183.630,165.467 184.800,165.577 184.800 C 165.687 184.800,164.617 183.630,163.200 182.200 C 161.783 180.770,160.533 179.600,160.423 179.600 C 160.313 179.600,161.383 180.770,162.800 182.200 M196.700 196.689 C 197.415 196.778,198.585 196.778,199.300 196.689 C 200.015 196.601,199.430 196.528,198.000 196.528 C 196.570 196.528,195.985 196.601,196.700 196.689 M264.400 204.925 C 264.400 204.994,264.985 205.579,265.700 206.225 L 267.000 207.400 265.825 206.100 C 264.730 204.888,264.400 204.616,264.400 204.925 M130.985 207.700 L 129.000 209.800 131.100 207.815 C 132.255 206.723,133.200 205.778,133.200 205.715 C 133.200 205.417,132.829 205.749,130.985 207.700 M267.200 207.725 C 267.200 207.794,267.785 208.379,268.500 209.025 L 269.800 210.200 268.625 208.900 C 267.530 207.688,267.200 207.416,267.200 207.725 M113.693 253.600 C 113.693 254.370,113.775 254.685,113.876 254.300 C 113.976 253.915,113.976 253.285,113.876 252.900 C 113.775 252.515,113.693 252.830,113.693 253.600 M284.924 257.000 C 284.926 258.320,285.001 258.812,285.090 258.093 C 285.179 257.374,285.177 256.294,285.086 255.693 C 284.995 255.092,284.922 255.680,284.924 257.000 M113.314 258.200 C 113.317 259.300,113.395 259.703,113.487 259.095 C 113.579 258.486,113.577 257.586,113.482 257.095 C 113.387 256.603,113.311 257.100,113.314 258.200 M285.320 267.200 C 285.320 268.410,285.395 268.905,285.487 268.300 C 285.578 267.695,285.578 266.705,285.487 266.100 C 285.395 265.495,285.320 265.990,285.320 267.200 M171.900 303.500 C 186.915 303.558,211.485 303.558,226.500 303.500 C 241.515 303.442,229.230 303.394,199.200 303.394 C 169.170 303.394,156.885 303.442,171.900 303.500 " stroke="none" fill="#5dfcfc" fill-rule="evenodd"></path><path id="path3" d="M192.200 97.557 C 191.320 97.691,193.930 97.800,198.000 97.800 C 202.165 97.800,204.526 97.684,203.400 97.535 C 200.959 97.212,194.386 97.224,192.200 97.557 M207.200 98.400 C 207.750 98.576,208.560 98.720,209.000 98.720 C 209.633 98.720,209.592 98.654,208.800 98.400 C 208.250 98.224,207.440 98.080,207.000 98.080 C 206.367 98.080,206.408 98.146,207.200 98.400 M185.400 98.800 C 184.381 99.238,185.432 99.238,186.800 98.800 C 187.604 98.543,187.643 98.477,187.000 98.468 C 186.560 98.462,185.840 98.611,185.400 98.800 M182.000 99.800 C 181.230 100.097,180.870 100.345,181.200 100.352 C 181.530 100.358,182.340 100.117,183.000 99.814 C 184.545 99.107,183.826 99.097,182.000 99.800 M212.400 99.533 C 212.730 99.736,213.450 100.024,214.000 100.171 C 214.695 100.357,214.817 100.325,214.400 100.067 C 214.070 99.864,213.350 99.576,212.800 99.429 C 212.105 99.243,211.983 99.275,212.400 99.533 M178.900 100.812 C 177.561 101.351,177.811 101.624,179.200 101.140 C 179.860 100.910,180.400 100.649,180.400 100.561 C 180.400 100.324,179.913 100.405,178.900 100.812 M175.500 102.427 C 174.675 102.863,174.000 103.308,174.000 103.418 C 174.000 103.596,177.159 102.119,177.567 101.751 C 178.027 101.334,176.825 101.728,175.500 102.427 M221.338 103.324 C 226.431 106.612,228.101 107.771,229.800 109.199 L 231.800 110.879 229.860 109.038 C 227.887 107.166,221.603 102.781,220.955 102.824 C 220.760 102.836,220.932 103.061,221.338 103.324 M169.183 106.412 C 166.538 108.386,161.200 113.151,161.200 113.539 C 161.200 113.694,162.289 112.785,163.619 111.519 C 164.950 110.253,167.155 108.374,168.519 107.344 C 171.386 105.179,171.838 104.800,171.552 104.800 C 171.438 104.800,170.372 105.526,169.183 106.412 M234.177 113.537 C 235.485 114.891,236.628 116.000,236.717 116.000 C 237.016 116.000,232.702 111.403,232.248 111.237 C 232.001 111.147,232.870 112.182,234.177 113.537 M239.437 120.100 C 240.249 121.365,240.988 122.400,241.079 122.400 C 241.347 122.400,239.900 120.082,238.890 118.894 C 238.379 118.292,238.625 118.835,239.437 120.100 M152.875 125.819 C 151.670 128.300,151.805 128.647,153.046 126.261 C 153.601 125.194,153.987 124.253,153.903 124.170 C 153.819 124.086,153.357 124.828,152.875 125.819 M242.400 125.500 C 242.400 125.691,242.661 126.196,242.980 126.624 C 243.540 127.373,243.552 127.368,243.332 126.494 C 243.104 125.591,242.400 124.840,242.400 125.500 M243.829 128.400 C 243.976 128.950,244.264 129.670,244.467 130.000 C 244.725 130.417,244.757 130.295,244.571 129.600 C 244.424 129.050,244.136 128.330,243.933 128.000 C 243.675 127.583,243.643 127.705,243.829 128.400 M151.244 129.644 C 150.998 130.351,150.866 131.000,150.952 131.085 C 151.038 131.171,151.309 130.662,151.556 129.956 C 151.802 129.249,151.934 128.600,151.848 128.515 C 151.762 128.429,151.491 128.938,151.244 129.644 M244.856 131.200 C 244.856 131.530,245.011 132.160,245.200 132.600 C 245.417 133.104,245.544 133.178,245.544 132.800 C 245.544 132.470,245.389 131.840,245.200 131.400 C 244.983 130.896,244.856 130.822,244.856 131.200 M149.850 134.050 C 149.517 135.717,149.840 136.040,150.200 134.400 C 150.352 133.709,150.393 133.059,150.291 132.958 C 150.189 132.856,149.991 133.347,149.850 134.050 M246.068 135.800 C 246.074 136.240,246.224 137.050,246.400 137.600 L 246.720 138.600 246.732 137.600 C 246.738 137.050,246.589 136.240,246.400 135.800 L 246.056 135.000 246.068 135.800 M148.588 141.388 C 148.431 143.064,148.389 144.523,148.495 144.629 C 148.601 144.734,148.812 143.446,148.965 141.765 C 149.117 140.084,149.159 138.626,149.058 138.524 C 148.957 138.423,148.745 139.712,148.588 141.388 M247.346 147.000 C 247.347 149.200,247.414 150.049,247.495 148.887 C 247.576 147.724,247.576 145.924,247.493 144.887 C 247.411 143.849,247.345 144.800,247.346 147.000 M148.430 150.233 C 148.446 151.095,148.613 152.610,148.801 153.600 C 149.058 154.953,149.088 154.606,148.923 152.200 C 148.690 148.822,148.379 147.582,148.430 150.233 M246.250 156.850 C 245.917 158.517,246.240 158.840,246.600 157.200 C 246.752 156.509,246.793 155.859,246.691 155.758 C 246.589 155.656,246.391 156.147,246.250 156.850 M149.668 158.400 C 149.688 159.439,150.318 161.146,150.332 160.200 C 150.338 159.760,150.189 159.040,150.000 158.600 C 149.789 158.110,149.661 158.032,149.668 158.400 M243.979 164.655 C 243.758 165.236,243.652 165.785,243.743 165.876 C 243.833 165.967,244.099 165.492,244.333 164.820 C 244.853 163.328,244.539 163.182,243.979 164.655 M242.865 167.417 C 242.195 168.888,242.323 169.202,243.047 167.865 C 243.386 167.240,243.588 166.654,243.496 166.563 C 243.405 166.471,243.121 166.856,242.865 167.417 M155.203 172.200 C 157.063 175.397,160.021 179.068,163.260 182.200 L 166.570 185.400 162.773 181.400 C 160.685 179.200,158.097 176.050,157.023 174.400 C 154.825 171.023,153.791 169.774,155.203 172.200 M237.684 176.100 C 236.060 178.347,235.932 178.615,237.114 177.289 C 238.503 175.732,240.236 173.200,239.913 173.200 C 239.840 173.200,238.837 174.505,237.684 176.100 M231.600 182.886 C 229.510 184.891,228.700 185.797,229.800 184.898 C 231.753 183.303,235.953 179.180,235.585 179.220 C 235.483 179.231,233.690 180.881,231.600 182.886 M167.082 185.641 C 167.625 186.315,171.200 188.946,171.200 188.673 C 171.200 188.576,170.165 187.719,168.900 186.770 C 167.635 185.821,166.817 185.313,167.082 185.641 M177.600 192.231 C 177.600 192.501,179.678 193.256,179.876 193.057 C 179.967 192.967,179.492 192.701,178.820 192.467 C 178.149 192.233,177.600 192.127,177.600 192.231 M216.800 192.600 C 216.250 192.914,215.980 193.172,216.200 193.172 C 216.420 193.172,217.050 192.914,217.600 192.600 C 218.150 192.286,218.420 192.028,218.200 192.028 C 217.980 192.028,217.350 192.286,216.800 192.600 M180.800 193.533 C 181.130 193.736,181.850 194.024,182.400 194.171 C 183.095 194.357,183.217 194.325,182.800 194.067 C 182.470 193.864,181.750 193.576,181.200 193.429 C 180.505 193.243,180.383 193.275,180.800 193.533 M184.600 194.746 C 185.771 195.234,188.326 195.658,187.600 195.244 C 187.270 195.056,186.280 194.792,185.400 194.658 C 184.391 194.503,184.095 194.536,184.600 194.746 M208.200 195.200 C 207.181 195.638,208.232 195.638,209.600 195.200 C 210.404 194.943,210.443 194.877,209.800 194.868 C 209.360 194.862,208.640 195.011,208.200 195.200 M189.700 195.876 C 190.085 195.976,190.715 195.976,191.100 195.876 C 191.485 195.775,191.170 195.693,190.400 195.693 C 189.630 195.693,189.315 195.775,189.700 195.876 M198.000 196.000 L 191.800 196.232 197.600 196.286 C 200.790 196.316,204.210 196.197,205.200 196.020 C 207.304 195.646,207.458 195.646,198.000 196.000 M154.800 197.026 C 156.146 197.323,161.127 197.402,160.681 197.118 C 160.417 196.950,158.850 196.830,157.200 196.853 C 155.550 196.875,154.470 196.953,154.800 197.026 M239.700 197.091 C 240.525 197.178,241.875 197.178,242.700 197.091 C 243.525 197.005,242.850 196.934,241.200 196.934 C 239.550 196.934,238.875 197.005,239.700 197.091 M148.600 198.000 C 147.511 198.277,147.493 198.307,148.400 198.325 C 148.950 198.335,149.760 198.189,150.200 198.000 C 151.186 197.576,150.266 197.576,148.600 198.000 M163.400 198.681 C 164.500 199.315,166.390 200.466,167.600 201.240 C 170.469 203.073,171.237 203.462,170.000 202.456 C 168.666 201.370,163.206 198.098,162.200 197.781 C 161.760 197.643,162.300 198.048,163.400 198.681 M234.500 198.626 C 232.171 200.022,232.342 200.296,234.700 198.946 C 236.972 197.645,237.035 197.599,236.567 197.604 C 236.365 197.606,235.435 198.066,234.500 198.626 M248.400 197.994 C 248.730 198.211,249.435 198.391,249.967 198.394 C 251.251 198.402,250.925 198.175,249.200 197.858 C 248.215 197.677,247.978 197.718,248.400 197.994 M140.700 200.827 C 139.875 201.263,139.200 201.708,139.200 201.818 C 139.200 201.996,142.359 200.519,142.767 200.151 C 143.227 199.734,142.025 200.128,140.700 200.827 M260.400 202.524 C 260.400 202.617,261.165 203.190,262.100 203.797 C 263.035 204.404,264.261 205.283,264.824 205.750 C 265.387 206.218,265.183 205.970,264.371 205.200 C 262.991 203.891,260.400 202.146,260.400 202.524 M171.375 203.559 C 171.497 203.757,172.239 204.298,173.023 204.760 C 173.807 205.223,174.348 205.439,174.225 205.241 C 174.103 205.043,173.361 204.502,172.577 204.040 C 171.793 203.577,171.252 203.361,171.375 203.559 M225.681 204.172 C 223.823 205.485,223.562 205.861,225.131 204.962 C 225.863 204.543,226.650 203.975,226.880 203.700 C 227.471 202.993,227.193 203.102,225.681 204.172 M132.058 207.100 L 128.942 210.200 131.971 207.420 C 133.637 205.891,135.171 204.496,135.380 204.320 C 135.589 204.144,135.628 204.000,135.467 204.000 C 135.306 204.000,133.772 205.395,132.058 207.100 M175.000 205.938 C 175.532 206.484,180.433 208.900,180.623 208.710 C 180.705 208.628,179.383 207.879,177.686 207.045 C 175.989 206.210,174.780 205.712,175.000 205.938 M267.600 208.525 C 267.600 208.594,268.185 209.179,268.900 209.825 L 270.200 211.000 269.025 209.700 C 267.930 208.488,267.600 208.216,267.600 208.525 M215.400 209.414 C 214.400 209.896,214.366 209.951,215.200 209.748 C 216.333 209.471,217.607 208.821,217.000 208.830 C 216.780 208.833,216.060 209.096,215.400 209.414 M185.400 210.614 C 186.060 210.917,186.960 211.160,187.400 211.155 C 187.840 211.150,187.390 210.891,186.400 210.579 C 184.179 209.880,183.822 209.892,185.400 210.614 M212.000 210.600 C 211.230 210.897,210.870 211.145,211.200 211.152 C 211.530 211.158,212.340 210.917,213.000 210.614 C 214.545 209.907,213.826 209.897,212.000 210.600 M127.301 212.300 C 126.071 213.881,125.182 215.310,125.870 214.600 C 126.670 213.775,128.859 210.800,128.667 210.800 C 128.557 210.800,127.942 211.475,127.301 212.300 M188.800 211.594 C 189.130 211.811,189.835 211.991,190.367 211.994 C 191.651 212.002,191.325 211.775,189.600 211.458 C 188.615 211.277,188.378 211.318,188.800 211.594 M207.200 211.830 L 205.000 212.370 207.000 212.147 C 208.100 212.024,209.270 211.767,209.600 211.574 C 210.382 211.118,209.880 211.172,207.200 211.830 M197.100 212.695 C 198.255 212.776,200.145 212.776,201.300 212.695 C 202.455 212.614,201.510 212.548,199.200 212.548 C 196.890 212.548,195.945 212.614,197.100 212.695 M272.000 214.000 C 272.470 214.660,272.944 215.200,273.054 215.200 C 273.164 215.200,272.870 214.660,272.400 214.000 C 271.930 213.340,271.456 212.800,271.346 212.800 C 271.236 212.800,271.530 213.340,272.000 214.000 M121.265 222.617 C 120.595 224.088,120.723 224.402,121.447 223.065 C 121.786 222.440,121.988 221.854,121.896 221.763 C 121.805 221.671,121.521 222.056,121.265 222.617 M119.244 227.644 C 118.998 228.351,118.866 229.000,118.952 229.085 C 119.038 229.171,119.309 228.662,119.556 227.956 C 119.802 227.249,119.934 226.600,119.848 226.515 C 119.762 226.429,119.491 226.938,119.244 227.644 M117.829 231.829 C 117.681 232.415,117.638 232.972,117.732 233.066 C 117.827 233.160,118.024 232.758,118.171 232.171 C 118.319 231.585,118.362 231.028,118.268 230.934 C 118.173 230.840,117.976 231.242,117.829 231.829 M116.650 236.450 C 116.317 238.117,116.640 238.440,117.000 236.800 C 117.152 236.109,117.193 235.459,117.091 235.358 C 116.989 235.256,116.791 235.747,116.650 236.450 M115.657 241.057 C 115.406 242.309,115.274 243.408,115.365 243.498 C 115.456 243.589,115.742 242.645,116.000 241.400 C 116.258 240.155,116.390 239.057,116.292 238.959 C 116.194 238.861,115.909 239.805,115.657 241.057 M282.487 241.000 C 282.491 241.440,282.632 242.340,282.800 243.000 C 283.074 244.078,283.106 244.098,283.113 243.200 C 283.117 242.650,282.976 241.750,282.800 241.200 C 282.549 240.416,282.481 240.373,282.487 241.000 M114.585 247.385 C 114.430 248.623,114.390 249.723,114.495 249.829 C 114.601 249.934,114.807 249.001,114.954 247.754 C 115.100 246.507,115.141 245.407,115.043 245.310 C 114.946 245.212,114.739 246.146,114.585 247.385 M283.881 250.000 C 284.004 251.650,284.171 253.075,284.252 253.167 C 284.531 253.481,284.354 250.201,284.006 248.600 C 283.748 247.414,283.716 247.776,283.881 250.000 M114.093 251.600 C 114.093 252.370,114.175 252.685,114.276 252.300 C 114.376 251.915,114.376 251.285,114.276 250.900 C 114.175 250.515,114.093 250.830,114.093 251.600 M284.509 255.200 C 284.509 256.190,284.587 256.595,284.682 256.100 C 284.778 255.605,284.778 254.795,284.682 254.300 C 284.587 253.805,284.509 254.210,284.509 255.200 M113.462 258.700 C 113.139 263.576,113.173 270.834,113.530 273.178 C 113.678 274.157,113.814 270.422,113.831 264.878 C 113.848 259.335,113.830 254.800,113.791 254.800 C 113.752 254.800,113.604 256.555,113.462 258.700 M284.964 265.800 C 284.963 269.540,285.023 271.124,285.097 269.320 C 285.171 267.515,285.172 264.455,285.098 262.520 C 285.025 260.584,284.964 262.060,284.964 265.800 M284.050 276.250 C 283.782 277.705,283.639 278.972,283.733 279.066 C 283.826 279.159,284.126 278.050,284.400 276.600 C 284.674 275.150,284.816 273.883,284.717 273.784 C 284.618 273.685,284.318 274.795,284.050 276.250 M114.250 277.200 C 114.390 277.970,114.661 278.960,114.854 279.400 C 115.094 279.949,115.124 279.761,114.950 278.800 C 114.810 278.030,114.539 277.040,114.346 276.600 C 114.106 276.051,114.076 276.239,114.250 277.200 M282.844 280.844 C 282.598 281.551,282.466 282.200,282.552 282.285 C 282.638 282.371,282.909 281.862,283.156 281.156 C 283.402 280.449,283.534 279.800,283.448 279.715 C 283.362 279.629,283.091 280.138,282.844 280.844 M281.665 283.817 C 280.995 285.288,281.123 285.602,281.847 284.265 C 282.186 283.640,282.388 283.054,282.296 282.963 C 282.205 282.871,281.921 283.256,281.665 283.817 M116.407 283.762 C 116.392 284.545,119.235 289.130,120.675 290.644 C 121.514 291.526,121.824 291.787,121.364 291.224 C 120.063 289.630,118.782 287.693,117.547 285.453 C 116.924 284.324,116.411 283.563,116.407 283.762 M278.388 289.500 C 277.647 290.545,275.861 292.552,274.420 293.960 C 272.264 296.066,272.138 296.251,273.710 295.004 C 275.606 293.498,278.027 290.809,279.384 288.700 C 280.553 286.883,279.835 287.460,278.388 289.500 M130.000 298.652 C 130.000 298.919,134.465 300.869,134.651 300.683 C 134.734 300.600,133.721 300.066,132.401 299.496 C 131.080 298.926,130.000 298.546,130.000 298.652 M264.900 300.012 C 263.561 300.551,263.811 300.824,265.200 300.340 C 265.860 300.110,266.400 299.849,266.400 299.761 C 266.400 299.524,265.913 299.605,264.900 300.012 M261.800 301.200 C 261.296 301.417,261.222 301.544,261.600 301.544 C 261.930 301.544,262.560 301.389,263.000 301.200 C 263.504 300.983,263.578 300.856,263.200 300.856 C 262.870 300.856,262.240 301.011,261.800 301.200 M140.000 302.400 C 140.550 302.576,141.360 302.720,141.800 302.720 C 142.433 302.720,142.392 302.654,141.600 302.400 C 141.050 302.224,140.240 302.080,139.800 302.080 C 139.167 302.080,139.208 302.146,140.000 302.400 M256.800 302.400 C 256.008 302.654,255.967 302.720,256.600 302.720 C 257.040 302.720,257.850 302.576,258.400 302.400 C 259.192 302.146,259.233 302.080,258.600 302.080 C 258.160 302.080,257.350 302.224,256.800 302.400 M144.500 303.076 C 144.885 303.176,145.515 303.176,145.900 303.076 C 146.285 302.975,145.970 302.893,145.200 302.893 C 144.430 302.893,144.115 302.975,144.500 303.076 M252.705 303.083 C 253.202 303.179,253.922 303.175,254.305 303.075 C 254.687 302.975,254.280 302.896,253.400 302.901 C 252.520 302.905,252.207 302.987,252.705 303.083 " stroke="none" fill="#a0fcfc" fill-rule="evenodd"></path><path id="path4" d="M197.100 97.082 C 197.595 97.178,198.405 97.178,198.900 97.082 C 199.395 96.987,198.990 96.909,198.000 96.909 C 197.010 96.909,196.605 96.987,197.100 97.082 M224.400 104.524 C 224.400 104.617,225.165 105.198,226.100 105.815 C 227.035 106.432,227.589 106.680,227.331 106.368 C 226.834 105.767,224.400 104.236,224.400 104.524 M164.175 110.100 L 163.000 111.400 164.300 110.225 C 165.015 109.579,165.600 108.994,165.600 108.925 C 165.600 108.616,165.270 108.888,164.175 110.100 M232.600 111.200 C 233.906 112.520,235.065 113.600,235.175 113.600 C 235.285 113.600,234.306 112.520,233.000 111.200 C 231.694 109.880,230.535 108.800,230.425 108.800 C 230.315 108.800,231.294 109.880,232.600 111.200 M160.581 113.700 L 159.000 115.400 160.700 113.819 C 162.281 112.348,162.584 112.000,162.281 112.000 C 162.216 112.000,161.451 112.765,160.581 113.700 M238.800 118.400 C 239.270 119.060,239.744 119.600,239.854 119.600 C 239.964 119.600,239.670 119.060,239.200 118.400 C 238.730 117.740,238.256 117.200,238.146 117.200 C 238.036 117.200,238.330 117.740,238.800 118.400 M148.256 139.684 C 148.121 140.188,148.033 141.410,148.060 142.400 C 148.103 143.974,148.147 143.873,148.409 141.600 C 148.724 138.866,148.667 138.150,148.256 139.684 M247.701 145.000 C 247.705 145.880,247.787 146.193,247.883 145.695 C 247.979 145.198,247.975 144.478,247.875 144.095 C 247.775 143.713,247.696 144.120,247.701 145.000 M247.709 148.800 C 247.709 149.790,247.787 150.195,247.882 149.700 C 247.978 149.205,247.978 148.395,247.882 147.900 C 247.787 147.405,247.709 147.810,247.709 148.800 M148.114 151.800 C 148.117 152.900,148.195 153.303,148.287 152.695 C 148.379 152.086,148.377 151.186,148.282 150.695 C 148.187 150.203,148.111 150.700,148.114 151.800 M245.829 160.629 C 245.681 161.215,245.638 161.772,245.732 161.866 C 245.827 161.960,246.024 161.558,246.171 160.971 C 246.319 160.385,246.362 159.828,246.268 159.734 C 246.173 159.640,245.976 160.042,245.829 160.629 M158.000 177.325 C 158.000 177.394,158.585 177.979,159.300 178.625 L 160.600 179.800 159.425 178.500 C 158.330 177.288,158.000 177.016,158.000 177.325 M230.175 184.900 L 229.000 186.200 230.300 185.025 C 231.015 184.379,231.600 183.794,231.600 183.725 C 231.600 183.416,231.270 183.688,230.175 184.900 M216.200 193.414 C 215.195 193.898,215.163 193.953,216.000 193.751 C 216.550 193.619,217.171 193.350,217.380 193.155 C 217.898 192.671,217.614 192.733,216.200 193.414 M156.905 196.687 C 157.514 196.779,158.414 196.777,158.905 196.682 C 159.397 196.587,158.900 196.511,157.800 196.514 C 156.700 196.517,156.297 196.595,156.905 196.687 M193.505 196.683 C 194.002 196.779,194.722 196.775,195.105 196.675 C 195.487 196.575,195.080 196.496,194.200 196.501 C 193.320 196.505,193.007 196.587,193.505 196.683 M200.900 196.676 C 201.285 196.776,201.915 196.776,202.300 196.676 C 202.685 196.575,202.370 196.493,201.600 196.493 C 200.830 196.493,200.515 196.575,200.900 196.676 M239.705 196.687 C 240.314 196.779,241.214 196.777,241.705 196.682 C 242.197 196.587,241.700 196.511,240.600 196.514 C 239.500 196.517,239.097 196.595,239.705 196.687 M197.100 197.082 C 197.595 197.178,198.405 197.178,198.900 197.082 C 199.395 196.987,198.990 196.909,198.000 196.909 C 197.010 196.909,196.605 196.987,197.100 197.082 M267.000 207.200 C 268.083 208.300,269.060 209.200,269.170 209.200 C 269.280 209.200,268.483 208.300,267.400 207.200 C 266.317 206.100,265.340 205.200,265.230 205.200 C 265.120 205.200,265.917 206.100,267.000 207.200 M197.100 212.295 C 198.255 212.376,200.145 212.376,201.300 212.295 C 202.455 212.214,201.510 212.148,199.200 212.148 C 196.890 212.148,195.945 212.214,197.100 212.295 M117.029 233.029 C 116.881 233.615,116.838 234.172,116.932 234.266 C 117.027 234.360,117.224 233.958,117.371 233.371 C 117.519 232.785,117.562 232.228,117.468 232.134 C 117.373 232.040,117.176 232.442,117.029 233.029 M282.244 237.800 C 282.573 239.271,282.802 239.590,282.794 238.567 C 282.791 238.145,282.605 237.530,282.382 237.200 C 282.085 236.762,282.048 236.924,282.244 237.800 M283.458 244.000 C 283.775 245.725,284.002 246.051,283.994 244.767 C 283.991 244.235,283.811 243.530,283.594 243.200 C 283.318 242.778,283.277 243.015,283.458 244.000 M113.856 248.884 C 113.721 249.388,113.631 250.430,113.655 251.200 C 113.689 252.269,113.775 252.080,114.018 250.402 C 114.353 248.092,114.272 247.333,113.856 248.884 M284.672 252.600 C 284.799 253.700,284.969 254.675,285.051 254.767 C 285.332 255.082,285.120 252.599,284.780 251.600 C 284.551 250.926,284.516 251.251,284.672 252.600 M113.293 255.200 C 113.293 255.970,113.375 256.285,113.476 255.900 C 113.576 255.515,113.576 254.885,113.476 254.500 C 113.375 254.115,113.293 254.430,113.293 255.200 M285.340 262.000 C 285.340 263.870,285.409 264.635,285.493 263.700 C 285.577 262.765,285.577 261.235,285.493 260.300 C 285.409 259.365,285.340 260.130,285.340 262.000 M285.314 271.000 C 285.317 272.100,285.395 272.503,285.487 271.895 C 285.579 271.286,285.577 270.386,285.482 269.895 C 285.387 269.403,285.311 269.900,285.314 271.000 M284.846 274.867 C 284.821 275.234,284.696 275.864,284.570 276.267 C 284.352 276.962,284.363 276.963,284.797 276.287 C 285.048 275.896,285.173 275.266,285.073 274.887 C 284.911 274.268,284.888 274.266,284.846 274.867 M122.400 293.400 C 123.595 294.610,124.663 295.600,124.773 295.600 C 124.883 295.600,123.995 294.610,122.800 293.400 C 121.605 292.190,120.537 291.200,120.427 291.200 C 120.317 291.200,121.205 292.190,122.400 293.400 M275.385 293.700 L 273.400 295.800 275.500 293.815 C 277.451 291.971,277.783 291.600,277.485 291.600 C 277.422 291.600,276.477 292.545,275.385 293.700 M142.900 303.476 C 143.285 303.576,143.915 303.576,144.300 303.476 C 144.685 303.375,144.370 303.293,143.600 303.293 C 142.830 303.293,142.515 303.375,142.900 303.476 M254.100 303.476 C 254.485 303.576,255.115 303.576,255.500 303.476 C 255.885 303.375,255.570 303.293,254.800 303.293 C 254.030 303.293,253.715 303.375,254.100 303.476 " stroke="none" fill="#30fcfc" fill-rule="evenodd"></path></g></svg>