<svg id="svg" version="1.1" xmlns="http://www.w3.org/2000/svg" xmlns:xlink="http://www.w3.org/1999/xlink" width="400" height="400" viewBox="0, 0, 400,400"><g id="svgg"><path id="path0" d="M283.800 89.850 C 283.360 89.962,277.330 91.470,270.400 93.201 C 263.470 94.932,256.376 96.720,254.636 97.174 C 252.896 97.628,251.141 98.000,250.736 98.000 C 249.767 98.000,249.732 97.743,251.800 105.778 C 252.790 109.625,253.600 113.138,253.600 113.586 C 253.600 114.673,253.811 114.650,261.046 112.788 C 268.308 110.919,268.199 110.897,266.161 113.848 C 265.302 115.091,264.330 116.499,264.000 116.977 C 250.614 136.348,225.617 158.004,199.600 172.769 C 196.810 174.353,184.904 180.298,182.000 181.558 C 180.790 182.082,178.810 182.955,177.600 183.497 C 158.003 192.274,129.365 199.441,108.400 200.814 C 104.770 201.052,100.675 201.340,99.300 201.455 L 96.800 201.664 96.800 210.080 L 96.800 218.496 101.100 218.223 C 115.505 217.311,126.838 215.755,140.400 212.830 C 143.229 212.219,151.561 210.044,157.400 208.391 C 172.309 204.169,193.651 195.308,207.370 187.642 C 209.774 186.299,211.798 185.200,211.869 185.200 C 212.127 185.200,221.246 179.534,223.888 177.732 C 229.946 173.601,237.509 168.176,238.000 167.610 C 238.110 167.483,239.010 166.760,240.000 166.004 C 253.114 155.982,273.459 134.084,281.719 121.100 C 282.742 119.492,282.970 119.694,283.759 122.900 C 284.151 124.495,284.621 126.250,284.802 126.800 C 284.984 127.350,285.445 129.195,285.826 130.900 C 286.207 132.605,286.678 134.000,286.872 134.000 C 287.066 134.000,289.424 133.450,292.112 132.778 C 294.801 132.106,298.170 131.267,299.600 130.915 C 301.030 130.562,302.335 130.158,302.501 130.016 C 302.977 129.608,294.147 94.932,293.160 93.335 C 291.465 90.592,287.166 88.992,283.800 89.850 M240.200 176.188 C 238.244 176.883,235.402 179.888,235.054 181.629 C 234.914 182.328,234.800 202.498,234.800 226.450 L 234.800 270.000 260.400 270.000 L 286.000 270.000 286.000 226.408 C 286.000 176.112,286.288 179.243,281.410 176.485 C 279.721 175.529,242.803 175.264,240.200 176.188 M179.754 210.722 C 177.676 211.578,176.949 212.193,175.646 214.194 L 174.600 215.800 174.489 242.900 L 174.378 270.000 199.989 270.000 L 225.600 270.000 225.598 243.700 C 225.595 212.437,225.632 212.660,220.137 210.690 C 217.241 209.652,182.285 209.680,179.754 210.722 M119.923 227.799 C 117.586 228.658,116.073 229.996,114.997 232.156 L 114.000 234.157 114.000 252.079 L 114.000 270.000 139.600 270.000 L 165.200 270.000 165.200 252.250 C 165.200 230.332,165.083 229.806,159.752 227.896 C 157.149 226.963,122.427 226.879,119.923 227.799 M97.067 279.066 C 96.920 279.213,96.800 283.083,96.800 287.667 L 96.800 296.000 200.008 296.000 L 303.216 296.000 303.108 287.500 L 303.000 279.000 200.167 278.899 C 143.610 278.844,97.215 278.919,97.067 279.066 " stroke="none" fill="#fcfbfa" fill-rule="evenodd"></path><path id="path1" d="M49.824 0.464 C 48.076 0.665,46.456 0.982,46.224 1.169 C 45.991 1.356,44.997 1.642,44.015 1.804 C 43.034 1.966,41.954 2.244,41.615 2.420 C 40.912 2.787,39.529 3.314,39.133 3.365 C 38.987 3.384,38.732 3.535,38.567 3.700 C 38.402 3.865,37.937 4.000,37.533 4.000 C 37.130 4.000,36.800 4.180,36.800 4.400 C 36.800 4.620,36.572 4.800,36.294 4.800 C 36.016 4.800,35.116 5.160,34.296 5.600 C 33.475 6.040,32.532 6.400,32.201 6.400 C 31.871 6.400,31.600 6.580,31.600 6.800 C 31.600 7.020,31.339 7.200,31.020 7.200 C 30.701 7.200,30.296 7.425,30.120 7.700 C 29.944 7.975,28.942 8.648,27.893 9.196 C 26.844 9.743,25.547 10.598,25.010 11.096 C 24.474 11.593,23.930 12.000,23.802 12.000 C 23.674 12.000,22.820 12.720,21.904 13.600 C 20.988 14.480,20.091 15.200,19.911 15.200 C 19.483 15.200,15.200 19.483,15.200 19.911 C 15.200 20.091,14.480 20.988,13.600 21.904 C 12.720 22.820,12.000 23.657,12.000 23.764 C 12.000 23.871,11.595 24.401,11.100 24.941 C 10.605 25.482,9.750 26.796,9.200 27.862 C 8.650 28.928,7.975 29.944,7.700 30.120 C 7.425 30.296,7.200 30.701,7.200 31.020 C 7.200 31.339,7.020 31.600,6.800 31.600 C 6.580 31.600,6.400 31.947,6.400 32.371 C 6.400 32.796,6.152 33.391,5.849 33.694 C 5.546 33.997,5.171 34.820,5.017 35.523 C 4.863 36.225,4.571 36.800,4.368 36.800 C 4.166 36.800,4.000 37.130,4.000 37.533 C 4.000 37.937,3.875 38.392,3.722 38.545 C 3.569 38.698,3.400 39.043,3.346 39.312 C 3.293 39.580,2.868 40.970,2.403 42.400 C 1.938 43.830,1.383 45.540,1.170 46.200 C 0.958 46.860,0.601 49.110,0.377 51.200 C -0.232 56.879,0.084 349.255,0.702 351.400 C 0.955 352.280,1.396 353.930,1.681 355.067 C 1.967 356.204,2.335 357.269,2.500 357.434 C 2.665 357.598,2.800 357.991,2.800 358.306 C 2.800 358.621,3.070 359.491,3.400 360.240 C 3.730 360.988,4.270 362.212,4.600 362.960 C 4.930 363.709,5.200 364.519,5.200 364.760 C 5.200 365.002,5.366 365.200,5.568 365.200 C 5.771 365.200,6.055 365.740,6.200 366.400 C 6.345 367.060,6.629 367.600,6.832 367.600 C 7.034 367.600,7.200 367.857,7.200 368.171 C 7.200 368.486,7.425 368.981,7.701 369.271 C 7.976 369.562,8.559 370.477,8.995 371.305 C 9.431 372.133,10.162 373.214,10.619 373.707 C 11.076 374.200,11.619 374.899,11.825 375.259 C 13.322 377.876,22.597 387.200,23.703 387.200 C 23.913 387.200,24.439 387.650,24.871 388.200 C 25.304 388.750,25.915 389.200,26.229 389.200 C 26.543 389.200,26.800 389.368,26.800 389.573 C 26.800 389.778,27.205 390.072,27.700 390.227 C 28.195 390.381,28.690 390.619,28.800 390.754 C 29.125 391.154,30.519 391.994,31.700 392.502 C 32.305 392.762,32.800 393.108,32.800 393.270 C 32.800 393.431,33.430 393.682,34.200 393.826 C 34.970 393.971,35.600 394.241,35.600 394.426 C 35.600 394.612,36.230 394.882,37.000 395.026 C 37.770 395.171,38.400 395.449,38.400 395.645 C 38.400 395.840,38.749 396.000,39.176 396.000 C 39.603 396.000,40.058 396.170,40.186 396.377 C 40.314 396.584,41.224 396.875,42.209 397.022 C 43.194 397.170,44.000 397.437,44.000 397.617 C 44.000 397.796,45.035 398.068,46.300 398.221 C 47.565 398.374,48.853 398.702,49.161 398.949 C 49.962 399.592,349.903 399.596,350.315 398.954 C 350.472 398.709,351.635 398.381,352.900 398.225 C 354.165 398.070,355.200 397.775,355.200 397.571 C 355.200 397.367,355.646 397.200,356.192 397.200 C 357.211 397.200,360.443 396.067,360.800 395.585 C 360.910 395.437,361.675 395.191,362.500 395.040 C 363.325 394.888,364.000 394.606,364.000 394.414 C 364.000 394.221,364.540 393.945,365.200 393.800 C 365.860 393.655,366.400 393.385,366.400 393.200 C 366.400 393.015,366.940 392.745,367.600 392.600 C 368.260 392.455,368.800 392.174,368.800 391.976 C 368.800 391.778,369.250 391.502,369.800 391.364 C 370.350 391.226,370.800 390.953,370.800 390.757 C 370.800 390.560,370.999 390.400,371.242 390.400 C 371.710 390.400,374.906 388.020,375.133 387.503 C 375.207 387.336,375.458 387.200,375.693 387.200 C 375.927 387.200,376.731 386.570,377.479 385.800 C 378.227 385.030,378.995 384.400,379.187 384.400 C 379.379 384.400,380.630 383.306,381.968 381.968 C 383.306 380.630,384.400 379.379,384.400 379.187 C 384.400 378.995,385.030 378.227,385.800 377.479 C 386.570 376.731,387.200 375.927,387.200 375.693 C 387.200 375.458,387.336 375.207,387.503 375.133 C 388.020 374.906,390.400 371.710,390.400 371.242 C 390.400 370.999,390.560 370.800,390.757 370.800 C 390.953 370.800,391.226 370.350,391.364 369.800 C 391.502 369.250,391.778 368.800,391.976 368.800 C 392.174 368.800,392.455 368.260,392.600 367.600 C 392.745 366.940,393.015 366.400,393.200 366.400 C 393.385 366.400,393.655 365.860,393.800 365.200 C 393.945 364.540,394.221 364.000,394.414 364.000 C 394.606 364.000,394.888 363.325,395.040 362.500 C 395.191 361.675,395.437 360.910,395.585 360.800 C 396.067 360.443,397.200 357.211,397.200 356.192 C 397.200 355.646,397.367 355.200,397.571 355.200 C 397.775 355.200,398.070 354.165,398.225 352.900 C 398.381 351.635,398.709 350.472,398.954 350.315 C 399.596 349.903,399.592 49.962,398.949 49.161 C 398.702 48.853,398.374 47.565,398.221 46.300 C 398.068 45.035,397.796 44.000,397.617 44.000 C 397.437 44.000,397.170 43.194,397.022 42.209 C 396.875 41.224,396.584 40.314,396.377 40.186 C 396.170 40.058,396.000 39.603,396.000 39.176 C 396.000 38.749,395.840 38.400,395.645 38.400 C 395.449 38.400,395.171 37.770,395.026 37.000 C 394.882 36.230,394.612 35.600,394.426 35.600 C 394.241 35.600,393.971 34.970,393.826 34.200 C 393.682 33.430,393.431 32.800,393.270 32.800 C 393.108 32.800,392.749 32.305,392.472 31.700 C 391.544 29.672,391.012 28.800,390.705 28.800 C 390.537 28.800,390.400 28.567,390.400 28.281 C 390.400 27.720,389.530 26.450,388.100 24.924 C 387.605 24.396,387.200 23.819,387.200 23.642 C 387.200 22.589,377.781 13.268,375.259 11.825 C 374.899 11.619,374.200 11.076,373.707 10.619 C 373.214 10.162,372.133 9.431,371.305 8.995 C 370.477 8.559,369.562 7.976,369.271 7.701 C 368.981 7.425,368.486 7.200,368.171 7.200 C 367.857 7.200,367.600 7.034,367.600 6.832 C 367.600 6.629,367.060 6.345,366.400 6.200 C 365.740 6.055,365.200 5.771,365.200 5.568 C 365.200 5.366,365.002 5.200,364.760 5.200 C 364.519 5.200,363.664 4.909,362.860 4.553 C 359.301 2.974,358.847 2.800,358.306 2.800 C 357.991 2.800,357.598 2.665,357.434 2.500 C 357.269 2.335,356.204 1.967,355.067 1.681 C 353.930 1.396,352.280 0.955,351.400 0.702 C 349.396 0.125,54.799 -0.107,49.824 0.464 M290.111 89.818 C 293.145 91.342,294.717 93.581,295.574 97.600 C 295.941 99.322,296.448 101.413,297.829 106.900 C 298.175 108.275,298.682 110.390,298.956 111.600 C 299.230 112.810,299.565 114.070,299.701 114.400 C 299.837 114.730,300.124 115.810,300.338 116.800 C 300.890 119.345,302.341 125.045,303.023 127.346 C 303.928 130.399,303.518 131.200,301.050 131.200 C 300.498 131.200,299.951 131.356,299.833 131.547 C 299.715 131.738,298.698 132.017,297.574 132.166 C 296.450 132.315,295.231 132.593,294.865 132.783 C 294.194 133.133,287.316 134.800,286.545 134.800 C 285.989 134.800,285.337 132.679,283.840 126.000 C 283.568 124.790,283.234 123.530,283.097 123.200 C 282.959 122.870,282.787 122.240,282.713 121.800 C 282.610 121.182,282.179 121.591,280.817 123.600 C 279.848 125.030,278.908 126.260,278.728 126.333 C 278.547 126.407,278.400 126.707,278.400 127.000 C 278.400 127.293,278.257 127.593,278.082 127.667 C 277.907 127.740,276.524 129.420,275.010 131.400 C 270.711 137.018,269.529 138.421,263.742 144.770 C 257.349 151.783,244.888 163.435,240.634 166.377 C 240.175 166.694,239.710 167.062,239.600 167.195 C 239.490 167.328,238.230 168.324,236.800 169.409 C 235.370 170.493,234.020 171.529,233.800 171.712 C 233.580 171.895,231.870 173.110,230.000 174.413 C 228.130 175.716,226.420 176.926,226.200 177.103 C 225.980 177.281,225.080 177.860,224.200 178.392 C 223.320 178.923,222.510 179.480,222.400 179.629 C 222.290 179.778,221.570 180.241,220.800 180.659 C 220.030 181.077,218.410 182.058,217.200 182.840 C 215.990 183.622,214.191 184.698,213.201 185.231 C 212.212 185.764,211.312 186.290,211.201 186.400 C 210.513 187.083,193.922 195.427,189.400 197.365 C 187.420 198.213,184.867 199.333,183.726 199.854 C 182.585 200.374,181.457 200.800,181.220 200.800 C 180.983 200.800,180.477 200.968,180.095 201.174 C 178.676 201.939,176.665 202.800,176.299 202.800 C 176.091 202.800,175.354 203.057,174.660 203.372 C 171.842 204.652,155.135 210.000,153.956 210.000 C 153.566 210.000,153.149 210.159,153.029 210.354 C 152.908 210.548,151.953 210.835,150.905 210.991 C 149.857 211.147,148.820 211.415,148.600 211.587 C 148.380 211.759,147.322 212.026,146.248 212.182 C 145.174 212.337,143.914 212.609,143.448 212.786 C 142.477 213.155,138.538 214.037,133.600 214.991 C 131.730 215.353,129.300 215.830,128.200 216.051 C 125.402 216.613,120.958 217.182,115.800 217.636 C 113.380 217.849,110.632 218.198,109.694 218.412 C 108.756 218.625,105.381 218.800,102.194 218.800 L 96.400 218.800 96.400 209.856 L 96.400 200.911 98.500 200.659 C 99.655 200.520,102.285 200.405,104.345 200.403 C 108.895 200.399,116.826 199.476,126.800 197.790 C 132.751 196.784,133.849 196.568,134.214 196.330 C 134.442 196.181,135.747 195.933,137.114 195.778 C 138.481 195.623,139.600 195.363,139.600 195.200 C 139.600 195.037,140.507 194.783,141.616 194.636 C 142.725 194.489,144.030 194.213,144.516 194.024 C 145.002 193.835,146.570 193.370,148.000 192.990 C 149.430 192.610,151.320 192.071,152.200 191.792 C 153.080 191.513,154.880 190.967,156.200 190.580 C 157.520 190.193,159.167 189.634,159.860 189.338 C 160.554 189.042,161.388 188.800,161.715 188.800 C 162.041 188.800,162.824 188.531,163.454 188.202 C 164.084 187.874,164.904 187.604,165.276 187.602 C 165.648 187.601,166.064 187.420,166.200 187.200 C 166.336 186.980,166.724 186.800,167.063 186.800 C 167.402 186.800,168.246 186.553,168.940 186.250 C 169.633 185.948,171.640 185.117,173.400 184.404 C 175.160 183.691,177.140 182.871,177.800 182.583 C 181.253 181.076,181.958 180.800,182.360 180.800 C 182.602 180.800,182.800 180.620,182.800 180.400 C 182.800 180.180,183.049 180.000,183.353 180.000 C 183.795 180.000,192.243 175.834,199.400 172.086 C 201.539 170.967,211.784 164.652,212.329 164.118 C 212.619 163.833,213.037 163.600,213.257 163.600 C 213.477 163.600,213.896 163.375,214.188 163.100 C 214.671 162.646,219.596 159.167,221.125 158.200 C 221.473 157.980,222.215 157.395,222.775 156.900 C 223.334 156.405,223.916 156.000,224.067 156.000 C 224.219 156.000,224.581 155.775,224.872 155.500 C 225.163 155.225,227.201 153.563,229.401 151.806 C 231.600 150.049,233.490 148.519,233.600 148.406 C 233.710 148.293,235.408 146.760,237.373 145.000 C 241.855 140.986,251.032 131.699,254.200 127.969 C 255.520 126.415,257.114 124.571,257.742 123.872 C 258.371 123.172,259.181 122.150,259.542 121.600 C 259.904 121.050,260.517 120.231,260.904 119.779 C 261.291 119.327,262.698 117.471,264.031 115.655 L 266.455 112.353 264.927 112.618 C 264.087 112.764,262.629 113.134,261.686 113.442 C 260.743 113.749,259.564 114.000,259.066 114.000 C 258.568 114.000,257.989 114.159,257.780 114.353 C 255.957 116.048,252.800 114.995,252.800 112.693 C 252.800 112.165,252.665 111.599,252.500 111.435 C 252.335 111.270,251.988 110.115,251.729 108.868 C 251.470 107.621,250.987 105.520,250.654 104.200 C 248.892 97.195,248.792 97.874,251.707 97.090 C 254.507 96.338,257.491 95.575,259.200 95.173 C 260.659 94.830,263.838 94.043,268.100 92.971 C 269.475 92.625,271.590 92.118,272.800 91.844 C 274.010 91.570,275.270 91.235,275.600 91.099 C 275.930 90.963,277.010 90.671,278.000 90.451 C 278.990 90.230,280.790 89.788,282.000 89.469 C 285.475 88.552,287.789 88.652,290.111 89.818 M281.600 175.800 C 283.333 176.790,284.401 177.862,285.640 179.856 L 286.600 181.400 286.600 225.800 L 286.600 270.200 260.300 270.303 L 234.000 270.406 234.000 227.023 C 234.000 184.719,234.133 179.600,235.233 179.600 C 235.435 179.600,235.600 179.364,235.600 179.075 C 235.600 177.867,238.741 175.672,241.200 175.161 C 244.847 174.404,280.133 174.962,281.600 175.800 M221.196 210.200 C 222.933 211.195,224.006 212.271,225.240 214.256 L 226.200 215.800 226.200 243.000 L 226.200 270.200 200.100 270.303 C 179.355 270.385,173.998 270.303,173.992 269.903 C 173.987 269.626,173.991 257.260,174.000 242.422 L 174.016 215.445 175.199 213.601 C 177.929 209.347,178.361 209.276,201.200 209.344 C 219.013 209.398,219.859 209.434,221.196 210.200 M160.800 227.366 C 162.572 228.311,164.400 229.991,164.400 230.675 C 164.400 230.964,164.544 231.200,164.720 231.200 C 165.808 231.200,166.000 234.339,166.000 252.131 L 166.000 270.406 139.700 270.303 L 113.400 270.200 113.400 251.800 C 113.400 233.698,113.414 233.374,114.265 231.800 C 115.783 228.993,118.187 227.213,121.200 226.666 C 124.687 226.033,159.452 226.647,160.800 227.366 M303.300 278.399 C 303.465 278.399,303.600 282.450,303.600 287.400 L 303.600 296.400 200.000 296.400 L 96.400 296.400 96.400 287.433 C 96.400 281.811,96.549 278.417,96.800 278.333 C 97.072 278.243,277.540 278.300,303.300 278.399 " stroke="none" fill="#fc5404" fill-rule="evenodd"></path><path id="path2" d="M301.600 130.634 C 300.290 131.170,300.277 131.192,301.400 130.975 C 302.060 130.848,302.771 130.576,302.980 130.372 C 303.459 129.903,303.321 129.929,301.600 130.634 M245.000 138.000 C 241.706 141.300,239.100 144.000,239.210 144.000 C 239.320 144.000,242.106 141.300,245.400 138.000 C 248.694 134.700,251.300 132.000,251.190 132.000 C 251.080 132.000,248.294 134.700,245.000 138.000 M263.375 144.500 L 262.200 145.800 263.500 144.625 C 264.215 143.979,264.800 143.394,264.800 143.325 C 264.800 143.016,264.470 143.288,263.375 144.500 M236.175 146.500 L 235.000 147.800 236.300 146.625 C 237.015 145.979,237.600 145.394,237.600 145.325 C 237.600 145.016,237.270 145.288,236.175 146.500 M258.185 150.100 L 256.200 152.200 258.300 150.215 C 260.251 148.371,260.583 148.000,260.285 148.000 C 260.222 148.000,259.277 148.945,258.185 150.100 M250.981 156.900 L 249.400 158.600 251.100 157.019 C 252.681 155.548,252.984 155.200,252.681 155.200 C 252.616 155.200,251.851 155.965,250.981 156.900 M278.433 175.344 C 278.525 175.423,279.140 175.608,279.800 175.756 C 280.676 175.952,280.838 175.915,280.400 175.618 C 279.860 175.253,278.032 174.998,278.433 175.344 M236.575 178.100 L 235.400 179.400 236.700 178.225 C 237.415 177.579,238.000 176.994,238.000 176.925 C 238.000 176.616,237.670 176.888,236.575 178.100 M286.093 183.200 C 286.093 183.970,286.175 184.285,286.276 183.900 C 286.376 183.515,286.376 182.885,286.276 182.500 C 286.175 182.115,286.093 182.430,286.093 183.200 M286.193 226.800 C 286.193 250.010,286.241 259.505,286.300 247.900 C 286.359 236.295,286.359 217.305,286.300 205.700 C 286.241 194.095,286.193 203.590,286.193 226.800 M106.905 200.687 C 107.514 200.779,108.414 200.777,108.905 200.682 C 109.397 200.587,108.900 200.511,107.800 200.514 C 106.700 200.517,106.297 200.595,106.905 200.687 M100.291 201.089 C 101.001 201.177,102.261 201.179,103.091 201.092 C 103.921 201.005,103.340 200.933,101.800 200.931 C 100.260 200.929,99.581 201.000,100.291 201.089 M96.588 209.800 L 96.600 218.600 99.302 218.630 L 102.003 218.659 99.409 218.512 L 96.816 218.364 96.695 209.682 L 96.575 201.000 96.588 209.800 M190.300 209.900 C 195.635 209.963,204.365 209.963,209.700 209.900 C 215.035 209.837,210.670 209.785,200.000 209.785 C 189.330 209.785,184.965 209.837,190.300 209.900 M112.100 217.876 C 112.485 217.976,113.115 217.976,113.500 217.876 C 113.885 217.775,113.570 217.693,112.800 217.693 C 112.030 217.693,111.715 217.775,112.100 217.876 M106.100 218.276 C 106.485 218.376,107.115 218.376,107.500 218.276 C 107.885 218.175,107.570 218.093,106.800 218.093 C 106.030 218.093,105.715 218.175,106.100 218.276 M129.900 227.100 C 135.235 227.163,143.965 227.163,149.300 227.100 C 154.635 227.037,150.270 226.985,139.600 226.985 C 128.930 226.985,124.565 227.037,129.900 227.100 M113.800 251.900 L 113.800 270.200 139.600 270.204 L 165.400 270.209 139.704 270.101 L 114.008 269.994 113.904 251.797 L 113.800 233.600 113.800 251.900 M260.200 270.000 L 234.200 270.209 260.076 270.304 C 277.000 270.367,286.038 270.262,286.200 270.000 C 286.336 269.780,286.392 269.643,286.324 269.696 C 286.256 269.748,274.500 269.885,260.200 270.000 M186.900 270.300 C 194.105 270.361,205.895 270.361,213.100 270.300 C 220.305 270.239,214.410 270.189,200.000 270.189 C 185.590 270.189,179.695 270.239,186.900 270.300 M96.579 278.910 C 96.471 279.191,96.436 283.196,96.500 287.810 L 96.617 296.200 96.709 287.498 L 96.800 278.797 200.162 278.898 C 257.011 278.954,303.440 278.865,303.338 278.700 C 302.984 278.127,96.799 278.337,96.579 278.910 " stroke="none" fill="#fc935e" fill-rule="evenodd"></path><path id="path3" d="M285.107 89.090 C 285.826 89.179,286.906 89.177,287.507 89.086 C 288.108 88.995,287.520 88.922,286.200 88.924 C 284.880 88.926,284.388 89.001,285.107 89.090 M270.400 92.418 C 269.962 92.715,270.124 92.752,271.000 92.556 C 272.471 92.227,272.790 91.998,271.767 92.006 C 271.345 92.009,270.730 92.195,270.400 92.418 M265.600 93.618 C 265.162 93.915,265.324 93.952,266.200 93.756 C 267.671 93.427,267.990 93.198,266.967 93.206 C 266.545 93.209,265.930 93.395,265.600 93.618 M262.080 94.395 C 261.354 94.567,260.647 94.820,260.509 94.958 C 260.171 95.296,262.844 94.776,263.600 94.357 C 264.316 93.960,263.868 93.971,262.080 94.395 M294.856 96.234 C 295.091 97.095,295.376 97.890,295.489 98.000 C 295.841 98.344,295.134 95.420,294.772 95.034 C 294.583 94.833,294.621 95.373,294.856 96.234 M257.400 95.600 L 256.600 95.944 257.400 95.966 C 257.840 95.978,258.470 95.813,258.800 95.600 C 259.595 95.086,258.596 95.086,257.400 95.600 M252.600 96.800 C 252.096 97.017,252.022 97.144,252.400 97.144 C 252.730 97.144,253.360 96.989,253.800 96.800 C 254.304 96.583,254.378 96.456,254.000 96.456 C 253.670 96.456,253.040 96.611,252.600 96.800 M295.844 100.200 C 296.173 101.671,296.402 101.990,296.394 100.967 C 296.391 100.545,296.205 99.930,295.982 99.600 C 295.685 99.162,295.648 99.324,295.844 100.200 M297.044 105.000 C 297.373 106.471,297.602 106.790,297.594 105.767 C 297.591 105.345,297.405 104.730,297.182 104.400 C 296.885 103.962,296.848 104.124,297.044 105.000 M250.806 105.033 C 250.809 105.455,250.995 106.070,251.218 106.400 C 251.515 106.838,251.552 106.676,251.356 105.800 C 251.027 104.329,250.798 104.010,250.806 105.033 M298.244 109.800 C 298.573 111.271,298.802 111.590,298.794 110.567 C 298.791 110.145,298.605 109.530,298.382 109.200 C 298.085 108.762,298.048 108.924,298.244 109.800 M252.028 110.276 C 252.013 110.758,252.180 111.264,252.400 111.400 C 252.873 111.692,252.873 111.301,252.400 110.200 C 252.069 109.429,252.055 109.431,252.028 110.276 M264.600 112.400 C 263.581 112.838,264.632 112.838,266.000 112.400 C 266.804 112.143,266.843 112.077,266.200 112.068 C 265.760 112.062,265.040 112.211,264.600 112.400 M252.832 113.224 C 252.779 114.260,253.784 115.305,254.626 115.090 C 255.322 114.913,255.313 114.888,254.533 114.846 C 253.975 114.817,253.524 114.409,253.265 113.700 C 253.044 113.095,252.849 112.881,252.832 113.224 M260.600 113.415 C 259.016 113.963,259.014 113.966,260.400 113.738 C 261.170 113.612,262.070 113.354,262.400 113.166 C 263.281 112.664,262.430 112.782,260.600 113.415 M265.200 114.000 C 264.730 114.660,264.436 115.200,264.546 115.200 C 264.656 115.200,265.130 114.660,265.600 114.000 C 266.070 113.340,266.364 112.800,266.254 112.800 C 266.144 112.800,265.670 113.340,265.200 114.000 M256.400 114.400 L 255.400 114.720 256.476 114.760 C 257.068 114.782,257.664 114.620,257.800 114.400 C 258.081 113.945,257.820 113.945,256.400 114.400 M301.668 123.000 C 301.662 123.440,301.811 124.160,302.000 124.600 C 302.438 125.619,302.438 124.568,302.000 123.200 C 301.743 122.396,301.677 122.357,301.668 123.000 M256.477 125.207 C 255.750 126.083,255.271 126.800,255.413 126.800 C 255.716 126.800,257.035 125.306,257.621 124.300 C 258.258 123.205,257.912 123.479,256.477 125.207 M279.584 124.823 C 279.105 125.496,278.779 126.113,278.861 126.194 C 278.943 126.276,279.414 125.726,279.908 124.971 C 281.023 123.271,280.771 123.156,279.584 124.823 M284.006 127.033 C 284.009 127.455,284.195 128.070,284.418 128.400 C 284.715 128.838,284.752 128.676,284.556 127.800 C 284.227 126.329,283.998 126.010,284.006 127.033 M253.251 128.991 C 252.343 129.976,251.600 130.912,251.600 131.071 C 251.600 131.230,251.755 131.189,251.944 130.980 C 254.011 128.694,255.258 127.200,255.097 127.200 C 254.990 127.200,254.159 128.006,253.251 128.991 M302.947 128.875 C 302.977 129.931,303.152 130.600,303.347 130.407 C 303.544 130.214,303.521 129.399,303.295 128.533 L 302.895 127.000 302.947 128.875 M285.206 131.833 C 285.209 132.255,285.395 132.870,285.618 133.200 C 285.915 133.638,285.952 133.476,285.756 132.600 C 285.427 131.129,285.198 130.810,285.206 131.833 M298.600 131.600 C 297.829 131.931,297.831 131.945,298.676 131.972 C 299.158 131.987,299.664 131.820,299.800 131.600 C 300.092 131.127,299.701 131.127,298.600 131.600 M272.959 133.700 C 271.207 135.721,270.687 136.400,270.890 136.400 C 271.007 136.400,271.767 135.590,272.579 134.600 C 274.081 132.766,274.379 132.063,272.959 133.700 M289.000 134.000 C 287.981 134.438,289.032 134.438,290.400 134.000 C 291.204 133.743,291.243 133.677,290.600 133.668 C 290.160 133.662,289.440 133.811,289.000 134.000 M268.841 138.614 C 268.159 139.392,267.600 140.146,267.600 140.289 C 267.600 140.433,267.915 140.195,268.300 139.759 C 270.087 137.738,270.508 137.200,270.303 137.200 C 270.182 137.200,269.524 137.836,268.841 138.614 M265.800 142.000 C 265.168 142.660,264.819 143.190,265.025 143.178 C 265.378 143.157,267.439 140.800,267.105 140.800 C 267.020 140.800,266.432 141.340,265.800 142.000 M239.375 143.300 L 238.200 144.600 239.500 143.425 C 240.215 142.779,240.800 142.194,240.800 142.125 C 240.800 141.816,240.470 142.088,239.375 143.300 M262.981 145.300 L 261.400 147.000 263.100 145.419 C 264.681 143.948,264.984 143.600,264.681 143.600 C 264.616 143.600,263.851 144.365,262.981 145.300 M235.578 146.700 L 234.200 148.200 235.700 146.822 C 237.096 145.538,237.384 145.200,237.078 145.200 C 237.012 145.200,236.337 145.875,235.578 146.700 M251.374 156.907 L 249.800 158.599 251.396 157.199 C 252.273 156.430,253.068 155.755,253.162 155.700 C 253.256 155.645,253.247 155.513,253.141 155.407 C 253.035 155.301,252.240 155.976,251.374 156.907 M223.200 156.600 C 222.455 157.150,222.015 157.599,222.222 157.598 C 222.628 157.596,225.149 155.638,224.778 155.614 C 224.655 155.606,223.945 156.050,223.200 156.600 M219.615 159.216 C 217.808 160.761,218.251 160.749,220.200 159.200 C 221.031 158.540,221.550 158.007,221.355 158.016 C 221.160 158.025,220.377 158.565,219.615 159.216 M247.600 160.200 C 246.628 161.190,245.923 162.000,246.033 162.000 C 246.143 162.000,247.028 161.190,248.000 160.200 C 248.972 159.210,249.677 158.400,249.567 158.400 C 249.457 158.400,248.572 159.210,247.600 160.200 M241.800 165.097 C 240.700 166.094,240.175 166.660,240.634 166.355 C 241.993 165.450,244.112 163.578,243.950 163.426 C 243.868 163.348,242.900 164.100,241.800 165.097 M228.154 175.268 C 226.322 176.647,226.092 176.975,227.531 176.157 C 228.767 175.454,229.950 174.400,229.503 174.400 C 229.396 174.400,228.789 174.791,228.154 175.268 M251.300 175.100 C 256.305 175.163,264.495 175.163,269.500 175.100 C 274.505 175.036,270.410 174.984,260.400 174.984 C 250.390 174.984,246.295 175.036,251.300 175.100 M237.076 177.300 C 235.830 178.533,235.825 178.549,236.981 177.603 C 237.652 177.055,238.371 176.470,238.580 176.303 C 238.789 176.136,238.831 176.000,238.674 176.000 C 238.517 176.000,237.798 176.585,237.076 177.300 M282.599 176.798 C 282.734 177.017,283.240 177.399,283.722 177.647 L 284.600 178.099 283.717 177.249 C 282.795 176.363,282.175 176.113,282.599 176.798 M183.500 179.876 C 183.115 179.976,182.800 180.232,182.800 180.443 C 182.800 180.665,183.182 180.630,183.700 180.360 C 185.200 179.579,185.145 179.446,183.500 179.876 M285.524 180.200 C 285.726 180.640,285.992 181.270,286.114 181.600 C 286.307 182.118,286.341 182.115,286.368 181.576 C 286.386 181.234,286.120 180.604,285.778 180.176 C 285.166 179.412,285.162 179.413,285.524 180.200 M234.193 226.600 C 234.193 250.800,234.241 260.641,234.300 248.469 C 234.359 236.297,234.359 216.497,234.300 204.469 C 234.241 192.441,234.193 202.400,234.193 226.600 M286.400 226.880 C 286.290 250.794,286.336 270.224,286.502 270.058 C 286.668 269.892,286.758 250.326,286.702 226.578 L 286.600 183.400 286.400 226.880 M160.100 189.212 C 158.761 189.751,159.011 190.024,160.400 189.540 C 161.060 189.310,161.600 189.049,161.600 188.961 C 161.600 188.724,161.113 188.805,160.100 189.212 M152.600 191.600 C 152.096 191.817,152.022 191.944,152.400 191.944 C 152.730 191.944,153.360 191.789,153.800 191.600 C 154.304 191.383,154.378 191.256,154.000 191.256 C 153.670 191.256,153.040 191.411,152.600 191.600 M148.600 192.800 C 148.096 193.017,148.022 193.144,148.400 193.144 C 148.730 193.144,149.360 192.989,149.800 192.800 C 150.304 192.583,150.378 192.456,150.000 192.456 C 149.670 192.456,149.040 192.611,148.600 192.800 M134.190 196.416 C 134.021 196.689,134.323 196.738,135.066 196.560 C 136.599 196.192,136.744 196.000,135.490 196.000 C 134.917 196.000,134.332 196.187,134.190 196.416 M128.000 197.606 C 127.578 197.882,127.815 197.923,128.800 197.742 C 130.525 197.425,130.851 197.198,129.567 197.206 C 129.035 197.209,128.330 197.389,128.000 197.606 M122.800 198.400 C 121.443 198.686,121.437 198.695,122.600 198.707 C 123.260 198.715,124.250 198.576,124.800 198.400 C 126.112 197.980,124.796 197.980,122.800 198.400 M114.000 199.600 C 112.351 199.856,112.317 199.883,113.600 199.917 C 114.370 199.937,115.720 199.805,116.600 199.623 C 118.666 199.196,116.712 199.178,114.000 199.600 M182.200 200.214 C 181.195 200.698,181.163 200.753,182.000 200.551 C 182.550 200.419,183.171 200.150,183.380 199.955 C 183.898 199.471,183.614 199.533,182.200 200.214 M97.800 200.795 C 96.920 200.950,98.360 200.990,101.000 200.883 C 103.640 200.776,105.875 200.624,105.967 200.545 C 106.257 200.293,99.470 200.501,97.800 200.795 M191.100 209.500 C 195.995 209.563,204.005 209.563,208.900 209.500 C 213.795 209.436,209.790 209.384,200.000 209.384 C 190.210 209.384,186.205 209.436,191.100 209.500 M151.800 210.400 C 151.029 210.731,151.031 210.745,151.876 210.772 C 152.358 210.787,152.864 210.620,153.000 210.400 C 153.292 209.927,152.901 209.927,151.800 210.400 M147.400 211.600 C 146.629 211.931,146.631 211.945,147.476 211.972 C 147.958 211.987,148.464 211.820,148.600 211.600 C 148.892 211.127,148.501 211.127,147.400 211.600 M137.200 214.000 C 136.408 214.254,136.367 214.320,137.000 214.320 C 137.440 214.320,138.250 214.176,138.800 214.000 C 139.592 213.746,139.633 213.680,139.000 213.680 C 138.560 213.680,137.750 213.824,137.200 214.000 M131.000 215.200 L 130.200 215.544 131.000 215.532 C 131.440 215.526,132.250 215.376,132.800 215.200 L 133.800 214.880 132.800 214.868 C 132.250 214.862,131.440 215.011,131.000 215.200 M125.626 216.054 C 124.430 216.252,123.354 216.513,123.233 216.633 C 122.933 216.934,127.208 216.360,128.200 215.968 C 129.215 215.566,128.408 215.593,125.626 216.054 M118.000 217.200 L 116.200 217.480 118.000 217.534 C 118.990 217.563,120.070 217.413,120.400 217.200 C 121.105 216.745,120.929 216.745,118.000 217.200 M105.000 218.400 L 101.800 218.653 105.200 218.699 C 107.070 218.723,108.960 218.589,109.400 218.400 C 110.344 217.994,110.125 217.994,105.000 218.400 M226.189 244.000 C 226.189 258.410,226.239 264.305,226.300 257.100 C 226.361 249.895,226.361 238.105,226.300 230.900 C 226.239 223.695,226.189 229.590,226.189 244.000 M130.700 226.700 C 135.595 226.763,143.605 226.763,148.500 226.700 C 153.395 226.636,149.390 226.584,139.600 226.584 C 129.810 226.584,125.805 226.636,130.700 226.700 M117.189 228.282 C 116.080 229.046,115.389 229.820,114.761 231.000 C 114.527 231.440,114.803 231.228,115.374 230.528 C 115.946 229.829,116.905 228.890,117.507 228.441 C 118.831 227.453,118.577 227.325,117.189 228.282 M162.088 228.601 C 162.899 229.152,163.745 229.917,163.969 230.301 C 164.193 230.686,164.381 230.794,164.388 230.541 C 164.403 229.972,161.746 227.600,161.093 227.600 C 160.830 227.600,161.278 228.051,162.088 228.601 M165.502 246.337 C 165.558 253.962,165.654 262.540,165.715 265.400 C 165.776 268.260,165.862 262.230,165.907 252.000 C 165.951 241.770,165.856 233.192,165.694 232.937 C 165.532 232.683,165.446 238.713,165.502 246.337 M113.289 252.476 C 113.240 262.088,113.335 270.036,113.500 270.139 C 113.773 270.307,113.767 257.009,113.488 241.200 C 113.427 237.790,113.338 242.864,113.289 252.476 M148.100 296.300 C 176.645 296.357,223.355 296.357,251.900 296.300 C 280.445 296.243,257.090 296.197,200.000 296.197 C 142.910 296.197,119.555 296.243,148.100 296.300 " stroke="none" fill="#fc641b" fill-rule="evenodd"></path><path id="path4" d="M283.627 89.552 C 283.085 89.703,284.096 89.818,285.910 89.812 C 287.701 89.805,288.859 89.678,288.483 89.528 C 287.617 89.183,284.898 89.196,283.627 89.552 M291.156 91.117 C 291.682 91.541,292.462 92.318,292.891 92.844 C 293.319 93.370,293.536 93.530,293.374 93.200 C 292.892 92.221,291.864 91.153,291.004 90.736 C 290.394 90.440,290.430 90.532,291.156 91.117 M261.000 95.200 C 260.496 95.417,260.422 95.544,260.800 95.544 C 261.130 95.544,261.760 95.389,262.200 95.200 C 262.704 94.983,262.778 94.856,262.400 94.856 C 262.070 94.856,261.440 95.011,261.000 95.200 M256.400 96.400 C 255.576 96.664,255.541 96.726,256.200 96.754 C 256.640 96.773,257.270 96.613,257.600 96.400 C 258.301 95.947,257.814 95.947,256.400 96.400 M251.600 97.600 C 250.796 97.857,250.757 97.923,251.400 97.932 C 251.840 97.938,252.560 97.789,253.000 97.600 C 254.019 97.162,252.968 97.162,251.600 97.600 M295.256 99.600 C 295.256 99.930,295.411 100.560,295.600 101.000 C 295.817 101.504,295.944 101.578,295.944 101.200 C 295.944 100.870,295.789 100.240,295.600 99.800 C 295.383 99.296,295.256 99.222,295.256 99.600 M250.456 101.600 C 250.456 101.930,250.611 102.560,250.800 103.000 C 251.017 103.504,251.144 103.578,251.144 103.200 C 251.144 102.870,250.989 102.240,250.800 101.800 C 250.583 101.296,250.456 101.222,250.456 101.600 M296.250 103.600 C 296.390 104.370,296.661 105.360,296.854 105.800 C 297.094 106.349,297.124 106.161,296.950 105.200 C 296.810 104.430,296.539 103.440,296.346 103.000 C 296.106 102.451,296.076 102.639,296.250 103.600 M251.450 105.600 C 251.590 106.370,251.861 107.360,252.054 107.800 C 252.294 108.349,252.324 108.161,252.150 107.200 C 252.010 106.430,251.739 105.440,251.546 105.000 C 251.306 104.451,251.276 104.639,251.450 105.600 M297.268 107.600 C 297.288 108.639,297.918 110.346,297.932 109.400 C 297.938 108.960,297.789 108.240,297.600 107.800 C 297.389 107.310,297.261 107.232,297.268 107.600 M252.650 110.400 C 252.790 111.170,253.061 112.160,253.254 112.600 C 253.494 113.149,253.524 112.961,253.350 112.000 C 253.210 111.230,252.939 110.240,252.746 109.800 C 252.506 109.251,252.476 109.439,252.650 110.400 M265.800 111.596 C 265.159 111.868,265.257 111.922,266.299 111.867 C 267.014 111.830,267.599 111.665,267.599 111.500 C 267.600 111.119,266.828 111.160,265.800 111.596 M261.800 112.615 C 260.223 113.161,260.220 113.165,261.600 112.932 C 263.232 112.657,264.900 112.048,264.000 112.056 C 263.670 112.059,262.680 112.311,261.800 112.615 M298.456 112.400 C 298.456 112.730,298.611 113.360,298.800 113.800 C 299.017 114.304,299.144 114.378,299.144 114.000 C 299.144 113.670,298.989 113.040,298.800 112.600 C 298.583 112.096,298.456 112.022,298.456 112.400 M257.800 113.600 C 257.296 113.817,257.222 113.944,257.600 113.944 C 257.930 113.944,258.560 113.789,259.000 113.600 C 259.504 113.383,259.578 113.256,259.200 113.256 C 258.870 113.256,258.240 113.411,257.800 113.600 M264.975 115.068 C 264.359 115.876,264.059 116.411,264.309 116.256 C 264.821 115.940,266.553 113.600,266.275 113.600 C 266.176 113.600,265.591 114.261,264.975 115.068 M262.626 118.300 C 261.762 119.405,261.693 119.590,262.363 119.004 C 263.165 118.304,264.223 116.800,263.914 116.800 C 263.851 116.800,263.272 117.475,262.626 118.300 M299.668 117.200 C 299.688 118.239,300.318 119.946,300.332 119.000 C 300.338 118.560,300.189 117.840,300.000 117.400 C 299.789 116.910,299.661 116.832,299.668 117.200 M282.111 120.500 C 281.408 121.410,281.128 122.216,281.799 121.400 C 282.160 120.960,282.624 120.645,282.828 120.700 C 283.033 120.755,283.200 120.620,283.200 120.400 C 283.200 119.843,282.575 119.900,282.111 120.500 M300.868 121.800 C 300.862 122.240,301.011 122.960,301.200 123.400 C 301.638 124.419,301.638 123.368,301.200 122.000 C 300.943 121.196,300.877 121.157,300.868 121.800 M278.800 125.200 C 278.330 125.860,278.036 126.400,278.146 126.400 C 278.256 126.400,278.730 125.860,279.200 125.200 C 279.670 124.540,279.964 124.000,279.854 124.000 C 279.744 124.000,279.270 124.540,278.800 125.200 M284.644 127.400 C 284.973 128.871,285.202 129.190,285.194 128.167 C 285.191 127.745,285.005 127.130,284.782 126.800 C 284.485 126.362,284.448 126.524,284.644 127.400 M302.056 126.800 C 302.056 127.130,302.211 127.760,302.400 128.200 C 302.617 128.704,302.744 128.778,302.744 128.400 C 302.744 128.070,302.589 127.440,302.400 127.000 C 302.183 126.496,302.056 126.422,302.056 126.800 M252.800 130.200 C 251.828 131.190,251.123 132.000,251.233 132.000 C 251.343 132.000,252.228 131.190,253.200 130.200 C 254.172 129.210,254.877 128.400,254.767 128.400 C 254.657 128.400,253.772 129.210,252.800 130.200 M295.000 132.000 C 293.981 132.438,295.032 132.438,296.400 132.000 C 297.204 131.743,297.243 131.677,296.600 131.668 C 296.160 131.662,295.440 131.811,295.000 132.000 M272.155 133.881 C 271.307 134.916,270.822 135.634,271.077 135.476 C 271.621 135.140,274.155 132.000,273.882 132.000 C 273.780 132.000,273.003 132.847,272.155 133.881 M245.395 138.100 L 239.800 143.800 245.500 138.205 C 250.795 133.008,251.381 132.400,251.095 132.400 C 251.037 132.400,248.472 134.965,245.395 138.100 M286.134 133.196 C 286.179 133.872,286.457 134.218,287.000 134.273 C 287.576 134.331,287.611 134.298,287.125 134.152 C 286.753 134.042,286.364 133.557,286.259 133.075 C 286.100 132.342,286.080 132.361,286.134 133.196 M290.200 133.200 C 289.181 133.638,290.232 133.638,291.600 133.200 C 292.404 132.943,292.443 132.877,291.800 132.868 C 291.360 132.862,290.640 133.011,290.200 133.200 M267.375 139.700 L 266.200 141.000 267.500 139.825 C 268.215 139.179,268.800 138.594,268.800 138.525 C 268.800 138.216,268.470 138.488,267.375 139.700 M264.975 142.500 L 263.800 143.800 265.100 142.625 C 265.815 141.979,266.400 141.394,266.400 141.325 C 266.400 141.016,266.070 141.288,264.975 142.500 M237.381 145.700 L 235.800 147.400 237.500 145.819 C 239.081 144.348,239.384 144.000,239.081 144.000 C 239.016 144.000,238.251 144.765,237.381 145.700 M256.993 150.900 L 252.600 155.400 257.100 151.007 C 261.280 146.926,261.782 146.400,261.493 146.400 C 261.434 146.400,259.409 148.425,256.993 150.900 M231.375 150.900 L 230.200 152.200 231.500 151.025 C 232.215 150.379,232.800 149.794,232.800 149.725 C 232.800 149.416,232.470 149.688,231.375 150.900 M225.330 155.521 C 221.879 158.262,221.140 159.006,223.600 157.264 C 225.571 155.868,228.719 153.227,228.400 153.236 C 228.290 153.239,226.909 154.267,225.330 155.521 M247.600 159.649 L 244.600 162.483 247.504 159.996 C 250.093 157.780,251.099 156.783,250.724 156.808 C 250.656 156.813,249.250 158.091,247.600 159.649 M219.220 160.031 C 216.610 161.941,216.180 162.366,217.800 161.434 C 219.040 160.722,221.954 158.416,221.600 158.429 C 221.490 158.432,220.419 159.153,219.220 160.031 M214.881 162.972 C 213.023 164.285,212.762 164.661,214.331 163.762 C 215.063 163.343,215.850 162.775,216.080 162.500 C 216.671 161.793,216.393 161.902,214.881 162.972 M211.281 165.372 C 209.423 166.685,209.162 167.061,210.731 166.162 C 211.463 165.743,212.250 165.175,212.480 164.900 C 213.071 164.193,212.793 164.302,211.281 165.372 M234.600 170.235 L 233.400 171.266 234.700 170.406 C 235.415 169.933,236.000 169.468,236.000 169.373 C 236.000 169.073,235.831 169.178,234.600 170.235 M229.304 173.943 C 226.775 175.772,226.171 176.371,227.800 175.434 C 229.052 174.715,231.948 172.420,231.600 172.424 C 231.490 172.425,230.457 173.108,229.304 173.943 M193.500 175.627 C 192.675 176.063,192.000 176.508,192.000 176.618 C 192.000 176.727,192.720 176.449,193.600 176.000 C 194.480 175.551,195.200 175.097,195.200 174.992 C 195.200 174.730,195.197 174.731,193.500 175.627 M251.127 175.500 C 256.258 175.563,264.538 175.563,269.527 175.500 C 274.517 175.436,270.320 175.384,260.200 175.384 C 250.080 175.384,245.997 175.436,251.127 175.500 M236.647 178.401 C 235.851 179.282,235.200 180.128,235.200 180.281 C 235.200 180.435,235.335 180.389,235.501 180.180 C 235.667 179.971,236.422 179.125,237.180 178.300 C 237.937 177.475,238.453 176.800,238.325 176.800 C 238.197 176.800,237.442 177.521,236.647 178.401 M223.300 178.046 C 221.937 178.919,221.495 179.506,222.700 178.843 C 223.618 178.339,225.056 177.227,224.800 177.219 C 224.690 177.216,224.015 177.588,223.300 178.046 M187.600 178.600 C 187.050 178.914,186.780 179.172,187.000 179.172 C 187.220 179.172,187.850 178.914,188.400 178.600 C 188.950 178.286,189.220 178.028,189.000 178.028 C 188.780 178.028,188.150 178.286,187.600 178.600 M234.649 181.815 C 234.512 182.173,234.443 202.206,234.497 226.333 L 234.593 270.200 234.797 225.800 C 235.014 178.390,235.022 180.845,234.649 181.815 M174.200 184.614 C 173.200 185.096,173.166 185.151,174.000 184.948 C 175.133 184.671,176.407 184.021,175.800 184.030 C 175.580 184.033,174.860 184.296,174.200 184.614 M169.000 186.614 C 168.000 187.096,167.966 187.151,168.800 186.948 C 169.933 186.671,171.207 186.021,170.600 186.030 C 170.380 186.033,169.660 186.296,169.000 186.614 M209.100 186.629 C 207.605 187.440,207.696 187.778,209.200 187.000 C 209.860 186.659,210.400 186.294,210.400 186.190 C 210.400 185.932,210.357 185.947,209.100 186.629 M205.500 188.626 C 204.455 189.170,203.600 189.705,203.600 189.814 C 203.600 189.924,204.500 189.557,205.600 189.000 C 206.700 188.443,207.600 187.900,207.600 187.793 C 207.600 187.529,207.636 187.514,205.500 188.626 M143.000 194.800 C 142.496 195.017,142.422 195.144,142.800 195.144 C 143.130 195.144,143.760 194.989,144.200 194.800 C 144.704 194.583,144.778 194.456,144.400 194.456 C 144.070 194.456,143.440 194.611,143.000 194.800 M192.400 195.200 C 191.630 195.622,191.180 195.966,191.400 195.966 C 191.620 195.966,192.430 195.622,193.200 195.200 C 193.970 194.778,194.420 194.434,194.200 194.434 C 193.980 194.434,193.170 194.778,192.400 195.200 M132.400 197.200 C 131.056 197.631,132.508 197.631,134.200 197.200 C 135.278 196.926,135.298 196.894,134.400 196.887 C 133.850 196.883,132.950 197.024,132.400 197.200 M121.200 199.200 C 119.843 199.486,119.837 199.495,121.000 199.507 C 121.660 199.515,122.650 199.376,123.200 199.200 C 124.512 198.780,123.196 198.780,121.200 199.200 M182.800 199.400 C 182.250 199.714,181.980 199.972,182.200 199.972 C 182.420 199.972,183.050 199.714,183.600 199.400 C 184.150 199.086,184.420 198.828,184.200 198.828 C 183.980 198.828,183.350 199.086,182.800 199.400 M111.400 200.400 C 109.468 200.665,109.454 200.676,111.000 200.714 C 111.880 200.736,113.320 200.605,114.200 200.423 C 116.242 200.001,114.420 199.986,111.400 200.400 M179.800 200.614 C 178.800 201.096,178.766 201.151,179.600 200.948 C 180.733 200.671,182.007 200.021,181.400 200.030 C 181.180 200.033,180.460 200.296,179.800 200.614 M105.100 201.082 C 105.595 201.178,106.405 201.178,106.900 201.082 C 107.395 200.987,106.990 200.909,106.000 200.909 C 105.010 200.909,104.605 200.987,105.100 201.082 M97.300 201.476 C 97.685 201.576,98.315 201.576,98.700 201.476 C 99.085 201.375,98.770 201.293,98.000 201.293 C 97.230 201.293,96.915 201.375,97.300 201.476 M153.000 209.600 C 152.496 209.817,152.422 209.944,152.800 209.944 C 153.130 209.944,153.760 209.789,154.200 209.600 C 154.704 209.383,154.778 209.256,154.400 209.256 C 154.070 209.256,153.440 209.411,153.000 209.600 M148.400 210.800 C 147.596 211.057,147.557 211.123,148.200 211.132 C 148.640 211.138,149.360 210.989,149.800 210.800 C 150.819 210.362,149.768 210.362,148.400 210.800 M143.800 212.000 C 143.296 212.217,143.222 212.344,143.600 212.344 C 143.930 212.344,144.560 212.189,145.000 212.000 C 145.504 211.783,145.578 211.656,145.200 211.656 C 144.870 211.656,144.240 211.811,143.800 212.000 M138.600 213.200 C 138.096 213.417,138.022 213.544,138.400 213.544 C 138.730 213.544,139.360 213.389,139.800 213.200 C 140.304 212.983,140.378 212.856,140.000 212.856 C 139.670 212.856,139.040 213.011,138.600 213.200 M132.600 214.419 C 132.042 214.671,132.285 214.707,133.400 214.538 C 134.280 214.404,135.075 214.228,135.167 214.147 C 135.510 213.844,133.368 214.071,132.600 214.419 M125.800 215.610 C 125.266 215.847,125.598 215.886,126.800 215.727 C 127.790 215.596,128.675 215.424,128.767 215.344 C 129.114 215.043,126.564 215.272,125.800 215.610 M225.502 236.914 C 225.558 248.621,225.653 260.900,225.713 264.200 C 225.773 267.500,225.850 258.230,225.883 243.600 C 225.916 228.970,225.821 216.691,225.672 216.314 C 225.522 215.936,225.446 225.206,225.502 236.914 M119.300 216.676 C 119.685 216.776,120.315 216.776,120.700 216.676 C 121.085 216.575,120.770 216.493,120.000 216.493 C 119.230 216.493,118.915 216.575,119.300 216.676 M112.705 217.483 C 113.202 217.579,113.922 217.575,114.305 217.475 C 114.687 217.375,114.280 217.296,113.400 217.301 C 112.520 217.305,112.207 217.387,112.705 217.483 M174.189 243.600 C 174.189 258.230,174.239 264.215,174.300 256.900 C 174.361 249.585,174.361 237.615,174.300 230.300 C 174.239 222.985,174.189 228.970,174.189 243.600 M108.307 217.890 C 109.026 217.979,110.106 217.977,110.707 217.886 C 111.308 217.795,110.720 217.722,109.400 217.724 C 108.080 217.726,107.588 217.801,108.307 217.890 M102.307 218.290 C 103.026 218.379,104.106 218.377,104.707 218.286 C 105.308 218.195,104.720 218.122,103.400 218.124 C 102.080 218.126,101.588 218.201,102.307 218.290 M119.300 227.612 C 117.915 228.169,118.234 228.414,119.700 227.920 C 120.415 227.679,121.075 227.418,121.167 227.341 C 121.492 227.066,120.186 227.256,119.300 227.612 M116.892 229.021 C 116.405 229.362,115.813 230.037,115.576 230.521 C 115.149 231.394,115.151 231.395,115.873 230.600 C 116.273 230.160,116.954 229.485,117.386 229.100 C 118.359 228.233,118.080 228.188,116.892 229.021 M162.799 229.801 C 163.568 230.680,164.355 231.580,164.548 231.800 C 164.740 232.020,164.711 231.840,164.483 231.400 C 164.255 230.960,163.468 230.060,162.734 229.401 L 161.400 228.202 162.799 229.801 M165.103 247.313 C 165.160 255.501,165.257 264.000,165.319 266.200 C 165.381 268.400,165.457 262.010,165.488 252.000 C 165.518 241.990,165.421 233.491,165.272 233.113 C 165.122 232.735,165.046 239.125,165.103 247.313 M303.199 287.319 L 303.399 295.800 303.508 287.629 C 303.568 283.134,303.478 279.318,303.309 279.148 C 303.139 278.978,303.090 282.655,303.199 287.319 " stroke="none" fill="#fcac86" fill-rule="evenodd"></path></g></svg>